<svg xmlns="http://www.w3.org/2000/svg" width="492.72" height="467.01" viewBox="0 0 492.72 467.01"><g id="Layer_2" data-name="Layer 2"><g id="icon"><path d="M239.63,127.68A61.08,61.08,0,0,0,250,114.74l19.07,2.5L276,92.48l-17.22-7.73a61.85,61.85,0,0,0-1.87-17.11l14.72-11.33L259,33.82,242,40.3A62.3,62.3,0,0,0,228,29.14l2.28-17.91-24.81-7-7.28,16.34a61.91,61.91,0,0,0-17.91,2.1l-11-14.22L146.89,21l6.5,16.9a61.35,61.35,0,0,0-10.87,14L124.4,49.5l-6.93,24.77,17,7.64a61.56,61.56,0,0,0,2.26,17l-14.92,11.48,12.64,22.48,18-6.82a62.39,62.39,0,0,0,13.15,10.2l-2.45,19.22,24.81,7,7.95-17.82a61.66,61.66,0,0,0,16.26-1.9l12,15.51L246.6,145.8ZM176,106.06a31.55,31.55,0,1,1,44.65-2.43A31.61,31.61,0,0,1,176,106.06Z" style="fill:#c7ddeb"/><path d="M188,166.75a4.56,4.56,0,0,1-1.15-.16l-24.81-7a4.18,4.18,0,0,1-3-4.56l2.1-16.52a66.15,66.15,0,0,1-9.66-7.51L136,136.84a4.18,4.18,0,0,1-5.14-1.86l-12.65-22.49a4.19,4.19,0,0,1,1.1-5.37L132,97.32a66.18,66.18,0,0,1-1.68-12.68l-14.59-6.55a4.18,4.18,0,0,1-2.32-5l6.93-24.77a4.17,4.17,0,0,1,4.58-3l15.38,2a65.24,65.24,0,0,1,8.17-10.55L143,22.45a4.18,4.18,0,0,1,1.87-5.16L167.29,4.75a4.17,4.17,0,0,1,5.36,1.1L182,17.91a65.73,65.73,0,0,1,13.55-1.59l6.16-13.83a4.19,4.19,0,0,1,5-2.33l24.81,7a4.2,4.2,0,0,1,3,4.57L232.54,27a66.5,66.5,0,0,1,10.51,8.41l14.46-5.49a4.18,4.18,0,0,1,5.14,1.86l12.64,22.48a4.18,4.18,0,0,1-1.09,5.38l-12.59,9.69A66.43,66.43,0,0,1,263,82.05l14.72,6.6a4.2,4.2,0,0,1,2.32,5l-6.93,24.76a4.19,4.19,0,0,1-4.58,3l-16.42-2.16a65.4,65.4,0,0,1-7.59,9.49l6,15.57a4.19,4.19,0,0,1-1.87,5.16L226.2,162a4.21,4.21,0,0,1-5.37-1.1L210.5,147.52a65.64,65.64,0,0,1-11.86,1.39l-6.84,15.35A4.18,4.18,0,0,1,188,166.75Zm-20.2-14.28,17.84,5.06L192.09,143a4.16,4.16,0,0,1,3.9-2.48,57.84,57.84,0,0,0,15.16-1.77,4.2,4.2,0,0,1,4.35,1.5l9.76,12.65,16.12-9-5.66-14.73a4.19,4.19,0,0,1,1-4.54,57.33,57.33,0,0,0,9.66-12.06,4.19,4.19,0,0,1,4.14-2l15.48,2,5-17.78-13.94-6.25a4.2,4.2,0,0,1-2.47-4,57.2,57.2,0,0,0-1.75-16,4.19,4.19,0,0,1,1.51-4.35l11.85-9.12L257.11,39l-13.65,5.19a4.2,4.2,0,0,1-4.56-1.05,58.17,58.17,0,0,0-13-10.41,4.19,4.19,0,0,1-2-4.14l1.83-14.34-17.85-5-5.8,13a4.18,4.18,0,0,1-4,2.48,57.67,57.67,0,0,0-16.69,2A4.19,4.19,0,0,1,177,25.19l-8.77-11.36-16.12,9,5.19,13.52a4.2,4.2,0,0,1-1,4.52,57.06,57.06,0,0,0-10.13,13.07A4.2,4.2,0,0,1,142,56l-14.51-1.91-5,17.79,13.74,6.16a4.2,4.2,0,0,1,2.48,3.86,57.68,57.68,0,0,0,2.11,15.89,4.2,4.2,0,0,1-1.49,4.45l-12,9.27,9.1,16.17L151,122.18a4.19,4.19,0,0,1,4.48,1,57.91,57.91,0,0,0,12.26,9.51,4.21,4.21,0,0,1,2.06,4.16Zm29.39-34.16a35.78,35.78,0,0,1-23.92-9.13h0a35.84,35.84,0,1,1,23.92,9.13Zm-18.34-15.38a27.46,27.46,0,0,0,38.73-2.1,27.11,27.11,0,0,0,6.88-19.78,27.53,27.53,0,0,0-47.9-16.83,27.41,27.41,0,0,0,2.29,38.71Z" style="fill:#5a595b"/><path d="M366.12,92.44A48.33,48.33,0,0,0,353.46,90l-5.13-14-19.58,4.12.87,14.57a48.3,48.3,0,0,0-11.13,7.41l-13.11-6-11,16.71L305,122.13a48.09,48.09,0,0,0-2.68,13.53l-13.18,4.85L293.23,160l13.89-.86A47.54,47.54,0,0,0,315,170.69l-5.86,12.61,16.72,10.89,9.33-10.5a47.89,47.89,0,0,0,13.58,2.42l4.88,13.26,19.57-4.12-.86-14.4a48.31,48.31,0,0,0,10.95-7.65l13.29,6.11,11-16.71-11.18-9.87a47.91,47.91,0,0,0,2.31-12.66l14.14-5.21-4.08-19.51-15.15.94a47.25,47.25,0,0,0-7.16-10.46l6.39-13.76L376.12,81.19Zm8,51.31A24.53,24.53,0,1,1,356.35,114,24.62,24.62,0,0,1,374.09,143.75Z" style="fill:#ef4848"/><path d="M353.66,202.89a3.52,3.52,0,0,1-3.3-2.31l-4.08-11.09a52,52,0,0,1-10-1.78l-7.82,8.81a3.51,3.51,0,0,1-4.54.61l-16.73-10.88a3.52,3.52,0,0,1-1.27-4.42l4.9-10.54a50.12,50.12,0,0,1-5.81-8.48l-11.61.72a3.52,3.52,0,0,1-3.65-2.78l-4.08-19.52a3.51,3.51,0,0,1,2.23-4L299,133.15a51.71,51.71,0,0,1,2-9.92l-8.86-7.82a3.52,3.52,0,0,1-.62-4.56l11-16.71a3.52,3.52,0,0,1,4.41-1.26L317.93,98A51.8,51.8,0,0,1,326,92.6l-.73-12.27A3.51,3.51,0,0,1,328,76.69l19.58-4.12a3.51,3.51,0,0,1,4,2.22L356,86.65a52.3,52.3,0,0,1,9,1.76l8.49-9.55a3.52,3.52,0,0,1,4.54-.62l16.72,10.89A3.5,3.5,0,0,1,396,93.55l-5.43,11.7a51.65,51.65,0,0,1,5.06,7.39l12.89-.8a3.51,3.51,0,0,1,3.66,2.79l4.07,19.52a3.51,3.51,0,0,1-2.22,4l-12,4.42a51.2,51.2,0,0,1-1.65,9l9.49,8.38a3.5,3.5,0,0,1,.61,4.55l-11,16.71a3.51,3.51,0,0,1-4.4,1.27l-11.2-5.16a51.7,51.7,0,0,1-7.93,5.54l.73,12.17a3.52,3.52,0,0,1-2.78,3.64l-19.58,4.12A3.53,3.53,0,0,1,353.66,202.89ZM335.2,180.18a3.21,3.21,0,0,1,1.1.18,44.68,44.68,0,0,0,12.6,2.24,3.52,3.52,0,0,1,3.18,2.3l3.83,10.41,13.64-2.87-.68-11.38a3.52,3.52,0,0,1,1.91-3.34,44.7,44.7,0,0,0,10.15-7.09,3.5,3.5,0,0,1,3.86-.62l10.54,4.85L403,163.22l-8.89-7.86a3.5,3.5,0,0,1-1-3.71,44.43,44.43,0,0,0,2.14-11.74,3.51,3.51,0,0,1,2.3-3.14l11.29-4.16L406,119l-12.12.75a3.51,3.51,0,0,1-3.36-1.92,43.57,43.57,0,0,0-6.63-9.69,3.5,3.5,0,0,1-.57-3.83l5.1-11-11.64-7.58-8,9a3.52,3.52,0,0,1-3.76,1,44.34,44.34,0,0,0-11.73-2.29,3.49,3.49,0,0,1-3.09-2.3l-4.09-11.12-13.64,2.88.69,11.54a3.51,3.51,0,0,1-2,3.37,44.88,44.88,0,0,0-10.31,6.87,3.53,3.53,0,0,1-3.81.57l-10.36-4.77L299,112.16l8.32,7.34a3.51,3.51,0,0,1,1,3.8,44.54,44.54,0,0,0-2.49,12.54,3.51,3.51,0,0,1-2.29,3.12l-10.33,3.8L296,156.34l10.86-.68a3.5,3.5,0,0,1,3.37,2,44.23,44.23,0,0,0,7.31,10.67,3.52,3.52,0,0,1,.61,3.87L313.62,182l11.63,7.58,7.32-8.24A3.49,3.49,0,0,1,335.2,180.18Zm15-14.4A27.93,27.93,0,0,1,323.11,131a28.16,28.16,0,0,1,34.09-20.32,27.91,27.91,0,0,1,20.29,34A28.18,28.18,0,0,1,350.23,165.78Zm.13-49a21.15,21.15,0,0,0-20.45,15.87,20.9,20.9,0,0,0,15.2,25.44,21.13,21.13,0,0,0,25.58-15.23h0a20.94,20.94,0,0,0-20.33-26.08Z" style="fill:#5a595b"/><path d="M327,278.05a84.42,84.42,0,0,0-1.33-22.66l21.68-14.94-15.67-31.52-24.58,7.94a84.27,84.27,0,0,0-17.6-15.67l4.57-25-33.46-11.25-11.37,22.19a85.23,85.23,0,0,0-24.37,1.42l-14.11-20.29-31.66,15.6,7.59,23.28a84.22,84.22,0,0,0-16.28,18.55l-24.2-4.38-11.3,33.31L157,265.84a84.1,84.1,0,0,0,1.82,24.22L138.2,304.24l15.66,31.52,24.31-7.85a84.92,84.92,0,0,0,17.93,15.25l-4.63,25.35,33.46,11.25,12-23.41a84.72,84.72,0,0,0,22.72-1.68l15.13,21.77,31.66-15.6-8.27-25.39A84.75,84.75,0,0,0,313,318.62l26.38,4.78,11.31-33.32Zm-84.44,36.32A43.17,43.17,0,1,1,285.64,271,43.27,43.27,0,0,1,242.51,314.37Z" style="fill:#faaf42"/><path d="M105.86,218.55c25.43,1.24,46.32-19,45-43.55-1.11-21.06-18.8-38.17-40.59-39.23-25.45-1.25-46.35,19-45,43.57C66.37,200.39,84.08,217.49,105.86,218.55Z" style="fill:#5a595b"/><path d="M492.66,202c-1.1-21-18.8-38.16-40.58-39.23-25.45-1.24-46.35,19-45.05,43.57,1.12,21.06,18.83,38.16,40.61,39.22C473.07,246.74,494,226.54,492.66,202Z" style="fill:#5a595b"/><path d="M405.39,336.61l18.26-41.41c11.44-25.93-1-55.92-27.85-67-10.12-4.17-21.81.37-26.13,10.15l-20,45.27-17.26-8.76a89.44,89.44,0,0,0-1-17.07l18.88-13a5.3,5.3,0,0,0,1.74-6.74l-15.66-31.51a5.31,5.31,0,0,0-6.39-2.69l-21.28,6.87a89.26,89.26,0,0,0-13.43-12l3.95-21.65a5.3,5.3,0,0,0-3.53-6L262.25,159.9a5.29,5.29,0,0,0-6.41,2.61l-9.78,19.08a90.67,90.67,0,0,0-18.84,1.11l-12.15-17.48a5.32,5.32,0,0,0-6.71-1.73l-31.65,15.6a5.3,5.3,0,0,0-2.7,6.4l6.5,20a89.89,89.89,0,0,0-12.61,14.38l-20.79-3.77a5.31,5.31,0,0,0-6,3.52l-11.31,33.32a5.31,5.31,0,0,0,2.62,6.44l19,9.66c0,1.18,0,2.35,0,3.52l-.88.1L127,256.79c-5.06-19.56-21.92-34.94-43.84-37.53h0c-10.86-1.28-20.9,6.25-22.41,16.83l-11.85,82.8a19,19,0,0,0,0,5.54l-11.3,40.79-36,71.91a16.17,16.17,0,1,0,28.93,14.46L68,376.88l9.73-35.1,8.84,1c.14.13.26.26.41.38l38.32,31.49,7.41,67.13a16.18,16.18,0,0,0,16.06,14.4,15.46,15.46,0,0,0,1.79-.1,16.17,16.17,0,0,0,14.3-17.85L156,358.06l-35.52-29.19c.11-.49.22-1,.29-1.48l5.57-38.91,12.84,8.63-4,2.76a5.33,5.33,0,0,0-1.74,6.74l15.67,31.51a5.29,5.29,0,0,0,6.38,2.69L176.58,334a89.46,89.46,0,0,0,13.67,11.65l-4,21.9a5.31,5.31,0,0,0,3.53,6l33.46,11.25a5.3,5.3,0,0,0,6.42-2.61L240.1,361.8a91.21,91.21,0,0,0,17.16-1.27l13.17,18.94a5.3,5.3,0,0,0,6.7,1.73l31.66-15.6a5.3,5.3,0,0,0,2.7-6.4l-7.21-22.13a89.82,89.82,0,0,0,11.08-12.62l15.71,2.84c0,.25-.06.5-.07.75l-2,48-29,68.45a16.17,16.17,0,1,0,29.77,12.64l31.34-73.86,1.53-36.46,11.07,4.56,33,30.22L398,448.77a16.18,16.18,0,0,0,14,18.1A16.36,16.36,0,0,0,414,467a16.16,16.16,0,0,0,16-14.11l10.78-83.78ZM313.9,313.39a5.32,5.32,0,0,0-5.37,2.28,79.2,79.2,0,0,1-13.85,15.78,5.29,5.29,0,0,0-1.56,5.64l6.85,21-23.43,11.55-12.53-18a5.31,5.31,0,0,0-5.46-2.17,80.15,80.15,0,0,1-21.3,1.59,5.3,5.3,0,0,0-5.05,2.87l-9.91,19.34-24.77-8.33,3.81-20.83a5.33,5.33,0,0,0-2.38-5.43,79.63,79.63,0,0,1-16.81-14.3,5.31,5.31,0,0,0-5.6-1.52l-20,6.44L145,306,155.23,299l33.27-3.59a13.3,13.3,0,0,0,9.06-5,48.74,48.74,0,0,0,44.72,29.36h.26a48.48,48.48,0,1,0-.25-97H242a48.54,48.54,0,0,0-48.39,47.77,13.22,13.22,0,0,0-8-1.66l-23.56,2.54c0-1.72.07-3.45.19-5.17a5.32,5.32,0,0,0-2.89-5.11l-18-9.14,8.36-24.63,19.69,3.57a5.31,5.31,0,0,0,5.41-2.34,79.06,79.06,0,0,1,15.25-17.38,5.33,5.33,0,0,0,1.62-5.7l-6.16-18.9L209,175l11.5,16.54a5.28,5.28,0,0,0,5.42,2.17,79.72,79.72,0,0,1,22.86-1.33,5.32,5.32,0,0,0,5.18-2.87l9.28-18.12L288,179.75l-3.74,20.49a5.3,5.3,0,0,0,2.28,5.37A79.8,79.8,0,0,1,303,220.3a5.31,5.31,0,0,0,5.68,1.62l20.23-6.53,11.59,23.3L322.6,251a5.3,5.3,0,0,0-2.19,5.39,78.7,78.7,0,0,1,1.24,21.23,5.32,5.32,0,0,0,2.89,5.14l19.59,10-5.23,15.41-3,6.77a20.69,20.69,0,0,0-.82,2.32Zm-109.67-42a37.56,37.56,0,0,1,11-26.82,38,38,0,0,1,26.86-11.24h.2a38,38,0,0,1,38,37.66,37.52,37.52,0,0,1-11,26.83,38,38,0,0,1-26.86,11.24h-.2A38,38,0,0,1,204.23,271.4Z" style="fill:#5a595b"/><path d="M294.89,299.75a13.34,13.34,0,0,1-7-24.7l58.2-35.81,38.05-6.92a13.34,13.34,0,0,1,4.77,26.24l-33.11,6-53.93,33.19A13.31,13.31,0,0,1,294.89,299.75Z" style="fill:#5a595b"/></g></g></svg>