<svg xmlns="http://www.w3.org/2000/svg" width="405.49" height="514" viewBox="0 0 405.49 514"><g id="Layer_2" data-name="Layer 2"><g id="icon"><path d="M27.84,509.81s36.36-87.29,162.22-87.29,164.09,87.29,164.09,87.29" style="fill:#c7ddeb"/><path d="M232.49,173c2.73,20.54,21.39,35.92,42.81,35.27,25-.76,43.9-22.17,40.73-46.15-2.71-20.54-21.38-35.93-42.8-35.28C248.21,127.54,229.3,149,232.49,173Z" style="fill:#5a595b"/><polygon points="251.2 27.07 140.94 7.72 221.07 81.48 251.2 27.07" style="fill:#faaf42"/><path d="M404.86,503.39c-.5-1.13-12.48-28-43.68-54.9-18.95-16.36-47.73-34.79-88.33-45.35a15.86,15.86,0,0,0,7.29-13.69l-1.48-69.92L243.3,294.87,257.61,254c.53-1.53,1-3.06,1.35-4.6H359.71a12.65,12.65,0,0,0,12-8.64l0-8.93h14.37a9.05,9.05,0,0,0,9.06-9.06v-5.58H255.71a50.73,50.73,0,0,0-30.58-26.63h0a19.92,19.92,0,0,0-5.23-.93l-16-6.48-10.76-38.35,36.26-68.23,29.41-53.1L125.33,0l90.08,82.94-27.28,51.32a13.09,13.09,0,0,0-21.44,13.21l5,17.77L112.27,277l8.26,4.4,54.8-103.1,6.82,24.3,15.9,6.43-24.86,71.06a19.14,19.14,0,0,0-.83,3.42,16.14,16.14,0,0,0-1.79,3.21l-18.18,44.38-41.18,59.86a15.89,15.89,0,0,0,.09,18.12C81,419.83,58.65,434.9,43.14,448.53c-30.66,27-42.08,53.86-42.56,55a7.58,7.58,0,0,0,14,5.84c.1-.26,10.87-25.31,39.18-50,26.07-22.72,72.89-49.8,147.89-49.8s122.48,27.11,149.06,49.86c28.87,24.7,40.19,49.79,40.29,50a7.58,7.58,0,0,0,6.94,4.53,7.45,7.45,0,0,0,3-.64A7.57,7.57,0,0,0,404.86,503.39ZM219.8,73.66,156.56,15.44l86.65,15.2L233.5,48.91ZM201.63,394.43a287.76,287.76,0,0,0-58.17,5.71l37-53.86,15.88-38.76,17.66,5.7,33.18,23.13,1.14,53.78a15.81,15.81,0,0,0,2.58,8.32A295.62,295.62,0,0,0,201.63,394.43Z" style="fill:#5a595b"/></g></g></svg>