<svg xmlns="http://www.w3.org/2000/svg" width="401.96" height="390.33" viewBox="0 0 401.96 390.33"><g id="Layer_2" data-name="Layer 2"><g id="icon"><ellipse cx="214.42" cy="230.09" rx="167.02" ry="160.24" style="fill:#c7ddeb"/><circle cx="180.05" cy="188.94" r="25.17" transform="translate(-45.2 320.76) rotate(-76.72)" style="fill:#faaf42"/><path d="M180.05,218.61a29.67,29.67,0,1,1,29.67-29.67A29.7,29.7,0,0,1,180.05,218.61Zm0-50.35a20.68,20.68,0,1,0,20.68,20.68A20.71,20.71,0,0,0,180.05,168.26Z" style="fill:#5a595b"/><path d="M181,257.68a67.78,67.78,0,1,1,67.77-67.77A67.85,67.85,0,0,1,181,257.68Zm0-123.93a56.16,56.16,0,1,0,56.16,56.16A56.22,56.22,0,0,0,181,133.75Z" style="fill:#5a595b"/><path d="M181,309A119.1,119.1,0,1,1,300.11,189.91,119.23,119.23,0,0,1,181,309Zm0-218.82a99.73,99.73,0,1,0,99.73,99.73A99.84,99.84,0,0,0,181,90.18Z" style="fill:#5a595b"/><path d="M181,370.92c-99.82,0-181-81.2-181-181s81.2-181,181-181,181,81.2,181,181S280.83,370.92,181,370.92Zm0-333.07C97.17,37.85,29,106.06,29,189.91S97.17,342,181,342s152-68.21,152-152S264.86,37.85,181,37.85Z" style="fill:#5a595b"/><polygon points="282.75 102.03 274.32 53.86 326.1 11.42 332.12 66.48 282.75 102.03" style="fill:#faaf42"/><polygon points="285.33 104.86 331.45 126.21 388.84 90.93 335.12 69.83 285.33 104.86" style="fill:#faaf42"/><path d="M402,89.77,337.82,64.58,330.76,0,267.94,51.49,277,103,175.79,184.63a6.78,6.78,0,0,0,8.52,10.55l102.85-83,44.68,20.68ZM321.43,22.84l4.47,40.87-39,28.08L280.7,56.23ZM297.36,104l3.6-2.91,35-24.59,39.82,15.63-44.68,27.46Z" style="fill:#5a595b"/></g></g></svg>