<svg xmlns="http://www.w3.org/2000/svg" width="409.6" height="409.6" viewBox="0 0 409.6 409.6"><g id="Layer_2" data-name="Layer 2"><g id="Layer_1-2" data-name="Layer 1"><path d="M409.6,204.8c0,113.11-91.69,204.8-204.8,204.8S0,317.91,0,204.8C0,204.85,204.8,0,204.8,0,317.91,0,409.6,91.69,409.6,204.8Z" style="fill:#0052b4"/><path d="M204.25,204.8h.55v-.55l-.55.55Z" style="fill:#f0f0f0"/><path d="M204.8,106.85V0h0C91.67,0,0,91.7,0,204.8H106.85V144.63L167,204.8h37.23l.55-.55V167l-60.17-60.17Z" style="fill:#f0f0f0"/><path d="M103.61,26.71a205.81,205.81,0,0,0-76.9,76.9V204.8H80.14V80.14H204.8V26.71Z" style="fill:#d80027"/><path d="M204.8,179.61,132,106.86H106.85l98,97.94Z" style="fill:#d80027"/><path d="M123.52,240.42l11.24,23.5,25.38-5.86L148.77,281.5l20.41,16.18-25.41,5.73.07,26-20.32-16.3-20.33,16.3.08-26-25.42-5.73L98.26,281.5,86.89,258.06l25.39,5.86Z" style="fill:#f0f0f0"/><path d="M306.63,284.94l5.62,11.75,12.69-2.93-5.69,11.72,10.21,8.09-12.71,2.86,0,13-10.16-8.15-10.17,8.15,0-13-12.71-2.86L294,305.48l-5.68-11.72L301,296.69Z" style="fill:#f0f0f0"/><path d="M254.35,160.28,260,172l12.7-2.93L267,180.82l10.21,8.09-12.71,2.86,0,13-10.16-8.15-10.17,8.15,0-13-12.71-2.86,10.21-8.09L236,169.1l12.7,2.93Z" style="fill:#f0f0f0"/><path d="M306.63,89l5.62,11.76,12.69-2.94-5.69,11.72,10.21,8.1-12.71,2.86,0,13-10.16-8.16-10.17,8.16,0-13-12.71-2.86,10.21-8.1-5.68-11.72L301,100.8Z" style="fill:#f0f0f0"/><path d="M352.29,142.47l5.62,11.75,12.7-2.93L364.92,163l10.21,8.09L362.42,174l0,13-10.17-8.15L342.13,187l0-13-12.71-2.87L339.67,163,334,151.29l12.69,2.93Z" style="fill:#f0f0f0"/><path d="M319.64,204.8l4.42,13.61h14.31l-11.58,8.4,4.42,13.61L319.64,232l-11.57,8.41,4.42-13.61-11.58-8.4h14.31Z" style="fill:#f0f0f0"/></g></g></svg>