<svg xmlns="http://www.w3.org/2000/svg" width="409.6" height="409.6" viewBox="0 0 409.6 409.6"><g id="Layer_2" data-name="Layer 2"><g id="Layer_1-2" data-name="Layer 1"><path d="M409.6,204.8c0,113.11-91.69,204.8-204.8,204.8S0,317.91,0,204.8,91.69,0,204.8,0,409.6,91.69,409.6,204.8Z" style="fill:#6da544"/><path d="M204.8,80.14,374,204.8,204.8,329.46,35.62,204.8Z" style="fill:#ffda44"/><path d="M276,204.8a71.23,71.23,0,1,1-71.23-71.23A71.24,71.24,0,0,1,276,204.8Z" style="fill:#f0f0f0"/><path d="M169.18,200.35a119.65,119.65,0,0,0-35.59,5.38,71.21,71.21,0,0,0,129.55,39.93,120,120,0,0,0-94-45.31Z" style="fill:#0052b4"/><path d="M274.71,218.45a71.24,71.24,0,0,0-135.37-41.77,146.92,146.92,0,0,1,135.37,41.77Z" style="fill:#0052b4"/></g></g></svg>