<svg xmlns="http://www.w3.org/2000/svg" width="51.5" height="50" viewBox="0 0 51.5 50">
  <defs>
    <style>
      .cls-1 {
        fill: #fff;
        fill-rule: evenodd;
      }
    </style>
  </defs>
  <path class="cls-1" d="M15250.1,755.025v3.332h1.3v-3.332h-1.3Zm0.7,16.058a4.6,4.6,0,0,0,0-9.2A4.6,4.6,0,0,0,15250.8,771.083Zm0-7.874a3.274,3.274,0,0,1,0,6.547A3.274,3.274,0,1,1,15250.8,763.209Zm-2.6,13.978v1.522h1.6v-1.522h-1.6Zm-3.7,0v1.522h1.5v-1.522h-1.5Zm28.3,5.064v-4.023h-1.3v4.023h1.3Zm0-18.4v-4.023h-1.3v4.023h1.3Zm0,6.134V765.96h-1.3v4.022h1.3Zm0,6.134v-4.024h-1.3v4.024h1.3Zm-11.8,4.769h-1.4v9.049h-17.5v-9.049h-1.3v10.376h20.2V780.885Zm-5.2-3.7v1.522h1.5v-1.522h-1.5Zm5.3,1.522v-1.522h-1.6v1.522h1.6Zm-18.9,0v-1.522h-1.5v1.522h1.5Zm9.8-1.522v1.522h1.5v-1.522h-1.5Zm32.3,14.968V786.3h1.4a2.081,2.081,0,0,0,2.1-2.093V757.867a2.063,2.063,0,0,0-2.1-2.091h-16.5a2.059,2.059,0,0,0-1.5.615,2.034,2.034,0,0,0-.6,1.477v12.216h-6.2V749h-20.2v21.084h-1.8a2.631,2.631,0,0,0-2.6,2.611v19.461a2.629,2.629,0,0,0,2.6,2.608h1.9v3.649h10.8v-3.649h12.1v0.65a3.55,3.55,0,1,0,7.1,0v-0.649h10.9A2.63,2.63,0,0,0,15284.3,792.155Zm0-35.052h1.4a1.059,1.059,0,0,1,.6.221,1.007,1.007,0,0,1,.2.543v26.341a0.981,0.981,0,0,1-.2.535,0.807,0.807,0,0,1-.6.229h-1.4V757.1Zm-4.1,0h2.8v27.869h-2.8V757.1Zm-11.8.765a0.683,0.683,0,0,1,.2-0.538,1.027,1.027,0,0,1,.6-0.227h9.6v27.869h-9.6a1.029,1.029,0,0,1-.6-0.224,0.661,0.661,0,0,1-.2-0.542V757.868Zm-7.5,13.543h6.2v2.176h-6.2v-2.176Zm-1.4-21.084v2.553l-0.2-.082a3.159,3.159,0,0,1-2.2-2.2l-0.1-.273h2.5Zm-17.5,0h2.6l-0.1.273a3.351,3.351,0,0,1-2.2,2.2l-0.3.082v-2.553Zm0,3.888,0.2-.032a4.791,4.791,0,0,0,3.7-3.682v-0.174h9.8V750.5a4.535,4.535,0,0,0,3.7,3.682l0.1,0.032v19.372H15242V754.215Zm8.3,42.871h-8.2v-2.323h8.2v2.323Zm17,0.583a2.256,2.256,0,1,1,2.2-2.256A2.261,2.261,0,0,1,15267.3,797.669Zm2.9-4.231v-0.09a3.667,3.667,0,0,0-2.9-1.517,3.713,3.713,0,0,0-3,1.516v0.09h-25.4a1.3,1.3,0,0,1-1.3-1.282V772.694a1.3,1.3,0,0,1,1.3-1.284h1.8v3.5h26.4v9.291a2.033,2.033,0,0,0,.6,1.478,2.059,2.059,0,0,0,1.5.615h13.8v5.856a1.3,1.3,0,0,1-1.3,1.283h-11.5Z" transform="translate(-15236.3 -749)"/>
</svg>
