<svg xmlns="http://www.w3.org/2000/svg" width="49.9" height="50" viewBox="0 0 49.9 50">
  <defs>
    <style>
      .cls-1 {
        fill: #fff;
        fill-rule: evenodd;
      }
    </style>
  </defs>
  <path class="cls-1" d="M15547.8,799a25,25,0,1,1,24.9-25A25.019,25.019,0,0,1,15547.8,799Zm0-48.438A23.438,23.438,0,1,0,15571.1,774,23.448,23.448,0,0,0,15547.8,750.562Zm-3.9,32.813h-1.6v-4.688h1.6v4.688Zm9.3,0h-1.6v-4.688h1.6v4.688Zm3.1-14.844h-0.8a2.3,2.3,0,0,1-2.3-2.344v-1.562a0.756,0.756,0,0,0-.8-0.781h-0.8v-1.08l-2.1,1.08h-6.4a0.819,0.819,0,0,0-.8.781v1.562a2.3,2.3,0,0,1-2.3,2.344v-1.562a0.736,0.736,0,0,0,.7-0.782v-1.562a2.39,2.39,0,0,1,2.4-2.344h6l4.1-2.045v2.179a2.394,2.394,0,0,1,1.6,2.21v1.562a0.736,0.736,0,0,0,.7.782h0.8v1.562Zm-16.3,0h-0.8v-1.562h0.8v1.562Zm7.8,12.5c-6.1,0-8.5-5.891-8.6-9.827l-0.8-.787V761.5a3.122,3.122,0,0,1,3.1-3.125h0.1a3.2,3.2,0,0,1,3-2.344h8.6a3.941,3.941,0,0,1,3.9,3.906v10.48l-0.8.787C15556.2,775.14,15553.8,781.031,15547.8,781.031Zm-7.8-11.261,0.7,0.781v0.324c0,3.322,1.9,8.594,7.1,8.594,5.1,0,7-5.272,7-8.594v-0.324l0.7-.781v-9.833a2.3,2.3,0,0,0-2.3-2.343h-8.6a1.552,1.552,0,0,0-1.5,1.562v0.781h-1.6a1.553,1.553,0,0,0-1.5,1.563v8.27Zm4.8,20.786-8.7-3.864,5.2-4.169,7.2,1.8v2.5Zm-5.7-4.249,5.4,2.386,2.5-2.517v-0.628l-5.3-1.322Zm11.6,4.249-3.7-3.733v-2.5l7.2-1.8,5.2,4.169Zm-2.2-4.38,2.5,2.517,5.4-2.386-2.6-2.081-5.3,1.322v0.628Zm0,8.918h-1.5v-1.563h1.5v1.563Zm0-3.125h-1.5v-1.563h1.5v1.563Zm-18-1.188-1.4-.724c0.2-.309,1.2-1.933,5.9-3.517l2.4-.781,0.5,1.482-2.4.781C15531.4,789.415,15530.5,790.768,15530.5,790.781Zm34.5-.026s-0.9-1.346-5-2.733l-2.4-.781,0.5-1.482,2.4,0.781c4.7,1.584,5.7,3.208,5.9,3.517l-1.4.7h0Z" transform="translate(-15522.8 -749)"/>
</svg>
