<svg xmlns="http://www.w3.org/2000/svg" width="54" height="50" viewBox="0 0 54 50">
  <defs>
    <style>
      .cls-1 {
        fill: #fff;
        fill-rule: evenodd;
      }
    </style>
  </defs>
  <path class="cls-1" d="M14952.4,776.063V750.38h51.2v25.683h-12.9v1.376h14.3V749h-54v28.435h10.2l1.1-1.376h-9.9Zm44.7-3.822a2.693,2.693,0,0,1,2.7-2.694h0.7V756.9h-0.7a2.693,2.693,0,0,1-2.7-2.694v-0.688h-38.3V754.2a2.447,2.447,0,0,1-2.6,2.694h-0.7v12.651h0.7a2.674,2.674,0,0,1,2.6,2.694v0.688h10.6v-1.375h-9.2l-0.1-.124a3.945,3.945,0,0,0-3.1-3.177l-0.1-.026v-10l0.1-.022a3.566,3.566,0,0,0,3.1-3.187l0.1-.13h35.6l0.1,0.124a3.943,3.943,0,0,0,3.1,3.176l0.1,0.026v10.011l-0.1.026a3.945,3.945,0,0,0-3.1,3.177l-0.1.124h-5.2v1.375h6.5v-0.688Zm-6.4-8.332v-1.376h-1.9v1.376h1.9Zm-17.3,32.259v1.376h2v-1.376h-2Zm4.6-39.274a5.586,5.586,0,0,0-4.1,1.877,6.936,6.936,0,0,0-1.6,4.445,6.308,6.308,0,0,0,.4,2.365l1.3-.5a4.023,4.023,0,0,1-.4-1.86,5.462,5.462,0,0,1,1.3-3.526,4.223,4.223,0,0,1,3.1-1.422,4.011,4.011,0,0,1,3,1.424,4.98,4.98,0,0,1,1.3,3.526,5.766,5.766,0,0,1-.3,1.859l1.3,0.5a6.276,6.276,0,0,0,.4-2.362,6.944,6.944,0,0,0-1.6-4.447A5.586,5.586,0,0,0,14978,756.894Zm-12.7,5.639v1.376h1.9v-1.376h-1.9Zm1.3,21.769c0.8,1.857,1.7,3.951,2.9,4.94,1.6,1.264,2.3,1.922,2.3,2.49v1.391h-1.5v5.862h1.4V794.5h14.5v4.487h1.4v-5.863h-1.5v-1.6a2.3,2.3,0,0,1,.6-1,4.889,4.889,0,0,0,1.6-3.568V772.87a2.557,2.557,0,0,0-2.6-2.592,2.191,2.191,0,0,0-.9.2l-0.3.091v-0.746a2.536,2.536,0,0,0-2.5-2.591,2.233,2.233,0,0,0-1,.212l-0.2.086-0.1-.214a2.528,2.528,0,0,0-2.5-2.369,2.474,2.474,0,0,0-2.4,1.709l-0.1.164-0.1-.078a2.906,2.906,0,0,0-1.2-.272,2.621,2.621,0,0,0-2.6,2.592v9.161c0,1.367-.1,2.206-0.4,2.427l-0.1.067-0.1-.061a4.354,4.354,0,0,1-1.3-1.972,3.775,3.775,0,0,0-2.8-2.518,3.442,3.442,0,0,0-2.9.838c-1.2,1.19-.2,2.785,1.2,4.748A22.107,22.107,0,0,1,14966.6,784.3Zm-1.4-6.326a2.006,2.006,0,0,1,1.7-.456,2.8,2.8,0,0,1,1.8,1.721c1,2.469,2.1,2.838,2.6,2.838,1.9,0,1.9-2.7,1.9-3.855v-9.161a1.2,1.2,0,1,1,2.4,0v8.6h1.4V767.539a1.2,1.2,0,1,1,2.4,0v10.887h1.4v-8.6a1.185,1.185,0,0,1,1.2-1.215,1.251,1.251,0,0,1,1.2,1.215v9.236h1.3v-6.19a1.251,1.251,0,0,1,1.2-1.216,1.272,1.272,0,0,1,1.3,1.216v14.087a3.451,3.451,0,0,1-1.3,2.64,2.916,2.916,0,0,0-1,1.929v1.6h-11.5v-1.391c0-1.294-1.1-2.2-2.8-3.564-1-.777-1.9-2.786-2.5-4.4a30.216,30.216,0,0,0-1.4-2.81C14964.8,778.638,14964.9,778.2,14965.2,777.976Z" transform="translate(-14951 -749)"/>
</svg>
