<svg xmlns="http://www.w3.org/2000/svg" width="53.2" height="50" viewBox="0 0 53.2 50">
  <defs>
    <style>
      .cls-1 {
        fill: #fff;
        fill-rule: evenodd;
      }
    </style>
  </defs>
  <path class="cls-1" d="M15826.6,788.76v-7.4l2,1.941,1.1-1.069-3.8-3.768-3.8,3.768,1.1,1.069,1.9-1.941v7.4h1.5Zm-14.2-6.531,1.1,1.069,1.9-1.941v7.4h1.5v-7.4l2,1.941,1-1.069-3.7-3.768ZM15854,792.4v-1.512h-6.2V792.4h6.2Zm-40.7-1.512V792.4h15.4v-1.512h-15.4Zm40.7-7.211v-1.513h-6.2v1.513h6.2Zm0,4.36v-1.512h-6.2v1.512h6.2Zm5-39.032h-53.1v49.979h53.1V749.009Zm-29,1.512v12.486h-9.8V750.521h9.8Zm12.8,46.955h-35.4V750.521h11.3v14h12.8v-14h11.3v46.955Zm14.7,0h-13.2V750.521h13.2v46.955Z" transform="translate(-15805.8 -749)"/>
</svg>
