<svg xmlns="http://www.w3.org/2000/svg" width="409.6" height="409.6" viewBox="0 0 409.6 409.6"><g id="Layer_2" data-name="Layer 2"><g id="Layer_1-2" data-name="Layer 1"><path d="M409.6,204.8c0,113.11-91.69,204.8-204.8,204.8S0,317.91,0,204.8,91.69,0,204.8,0,409.6,91.69,409.6,204.8Z" style="fill:#f0f0f0"/><path d="M409.6,204.8A204.82,204.82,0,0,0,293.84,20.32v369A204.81,204.81,0,0,0,409.6,204.8Z" style="fill:#d80027"/><path d="M0,204.8A204.81,204.81,0,0,0,115.76,389.28v-369A204.82,204.82,0,0,0,0,204.8Z" style="fill:#d80027"/><path d="M240.42,231.51,276,213.7l-17.8-8.9V187L222.61,204.8l17.81-35.62H222.61L204.8,142.47,187,169.18H169.18L187,204.8,151.37,187V204.8l-17.8,8.9,35.61,17.81-8.9,17.81h35.61V276H213.7V249.32h35.62Z" style="fill:#d80027"/></g></g></svg>