<svg xmlns="http://www.w3.org/2000/svg" width="58.38" height="41.53" viewBox="0 0 58.38 41.53"><g id="Layer_2" data-name="Layer 2"><g id="icons"><rect x="7.29" y="33.03" width="8.16" height="1.85" style="fill:#5a595b"/><rect x="19.17" y="33.03" width="8.16" height="1.85" style="fill:#5a595b"/><rect x="31.05" y="33.03" width="8.16" height="1.85" style="fill:#5a595b"/><path d="M51.09,20.18H42.93V28h8.16Zm-6.31,6V22h4.46v4.13Z" style="fill:#5a595b"/><path d="M57.3,40.46a3.73,3.73,0,0,0,1.08-2.62V3.7a3.66,3.66,0,0,0-1.09-2.62A3.65,3.65,0,0,0,54.69,0h-51A3.69,3.69,0,0,0,0,3.7V37.84a3.73,3.73,0,0,0,1.08,2.62,3.67,3.67,0,0,0,2.61,1.07h51A3.67,3.67,0,0,0,57.3,40.46ZM1.85,5V3.7a1.85,1.85,0,0,1,.54-1.31,1.82,1.82,0,0,1,1.3-.54h51A1.87,1.87,0,0,1,56,2.38a1.89,1.89,0,0,1,.54,1.32V5Zm0,8V6.84H56.53V13Zm0,1.85H56.53v23a1.87,1.87,0,0,1-.54,1.3,1.78,1.78,0,0,1-1.3.53h-51a1.78,1.78,0,0,1-1.3-.53,1.87,1.87,0,0,1-.54-1.31Z" style="fill:#5a595b"/><rect x="42.93" y="33.03" width="8.16" height="1.85" style="fill:#5a595b"/><path d="M27.33,20.18h-20V28h20Zm-18.18,6V22H25.48v4.13Z" style="fill:#5a595b"/><rect x="44.78" y="22.03" width="4.46" height="4.14" style="fill:#faaf42"/><rect x="1.85" y="6.84" width="54.68" height="6.13" style="fill:#faaf42"/><rect x="9.15" y="22.03" width="16.34" height="4.14" style="fill:#faaf42"/></g></g></svg>