<svg xmlns="http://www.w3.org/2000/svg" width="15.81" height="14.969" viewBox="0 0 15.81 14.969">
  <defs>
    <style>
      .cls-1 {
        fill: #5a595b;
        fill-rule: evenodd;
      }
    </style>
  </defs>
  <path id="cart_icon" data-name="cart icon" class="cls-1" d="M1353.7,76.822l1.3-6.082a0.689,0.689,0,0,0-.64-0.857h-10.8l-0.25-1.31a0.667,0.667,0,0,0-.65-0.561h-2.81a0.678,0.678,0,0,0-.66.7v0.468a0.678,0.678,0,0,0,.66.7h1.92l1.93,10.042a1.668,1.668,0,0,0-.78,1.42,1.543,1.543,0,1,0,3.08,0,1.66,1.66,0,0,0-.46-1.169h5.76a1.705,1.705,0,0,0-.46,1.169,1.543,1.543,0,1,0,3.08,0,1.639,1.639,0,0,0-.87-1.474l0.15-.71a0.689,0.689,0,0,0-.64-0.857h-7.38l-0.18-.936h8.06A0.666,0.666,0,0,0,1353.7,76.822Z" transform="translate(-1339.19 -68)"/>
</svg>
