<?xml version="1.0" encoding="utf-8"?>
<!-- Generator: Adobe Illustrator 24.1.2, SVG Export Plug-In . SVG Version: 6.00 Build 0)  -->
<svg version="1.1" id="Layer_1" xmlns="http://www.w3.org/2000/svg" xmlns:xlink="http://www.w3.org/1999/xlink" x="0px" y="0px"
	 viewBox="0 0 199.2 102.4" style="enable-background:new 0 0 199.2 102.4;" xml:space="preserve">
<style type="text/css">
	.st0{enable-background:new    ;}
	.st1{fill:#5B5B5B;}
	.st2{fill:#727272;}
	.st3{fill:#E2E2E2;}
	.st4{clip-path:url(#SVGID_2_);}
	.st5{opacity:0.5;}
	.st6{fill:#D6D6D6;}
	.st7{fill:#FAAF42;}
	.st8{fill:#C6E0F7;}
</style>
<g id="Layer_2_1_">
	<g id="Layer_1-2">
		<g class="st0">
			<path class="st1" d="M79.1,6.2c-0.4-0.4-0.6-1.1-0.6-1.8V1.2h1v2.9c0,0.4,0,0.7,0.1,1c0.1,0.3,0.2,0.5,0.4,0.6
				c0.2,0.1,0.5,0.2,0.8,0.2s0.6-0.1,0.8-0.2c0.2-0.1,0.3-0.3,0.4-0.6c0.1-0.3,0.1-0.6,0.1-1V1.2h1v3.2c0,0.8-0.2,1.4-0.6,1.8
				c-0.4,0.4-1,0.7-1.7,0.7C80,6.9,79.5,6.7,79.1,6.2z"/>
			<path class="st1" d="M84.9,6.8c-0.4-0.1-0.6-0.2-0.8-0.3l0.1-1.1c0.7,0.3,1.3,0.5,1.9,0.5c0.3,0,0.5-0.1,0.7-0.2s0.2-0.3,0.2-0.5
				c0-0.2,0-0.3-0.1-0.4c-0.1-0.1-0.2-0.2-0.4-0.3c-0.2-0.1-0.4-0.2-0.8-0.3c-0.3-0.1-0.6-0.2-0.8-0.4c-0.2-0.1-0.4-0.3-0.5-0.5
				c-0.1-0.2-0.2-0.5-0.2-0.8c0-0.5,0.2-0.9,0.5-1.2c0.4-0.3,0.9-0.4,1.5-0.4c0.3,0,0.6,0,0.9,0.1s0.6,0.2,0.8,0.3l-0.1,1
				c-0.3-0.1-0.6-0.3-0.9-0.3S86.3,2.1,86,2.1c-0.3,0-0.5,0.1-0.7,0.2s-0.2,0.2-0.2,0.4c0,0.1,0,0.3,0.1,0.4
				c0.1,0.1,0.2,0.2,0.3,0.2c0.1,0.1,0.4,0.1,0.7,0.2c0.6,0.2,1.1,0.4,1.4,0.7c0.3,0.3,0.4,0.6,0.4,1.1c0,0.4-0.2,0.8-0.5,1.1
				c-0.3,0.3-0.9,0.5-1.7,0.5C85.6,6.9,85.3,6.9,84.9,6.8z"/>
			<path class="st1" d="M88.9,1.2H91c0.5,0,1,0.1,1.4,0.3c0.4,0.2,0.7,0.5,1,1c0.2,0.4,0.4,0.9,0.4,1.5s-0.1,1.1-0.4,1.5
				c-0.2,0.4-0.6,0.7-1,1S91.6,6.8,91,6.8h-2.1V1.2z M91,5.9c0.5,0,0.9-0.2,1.2-0.5s0.4-0.8,0.4-1.4s-0.1-1.1-0.4-1.4
				C92,2.3,91.6,2.1,91,2.1H90v3.8H91z"/>
		</g>
		<g class="st0">
			<path class="st1" d="M95.9,2.8h1l1,2.8l1-2.8h1l-1.5,4h-0.8L95.9,2.8z"/>
		</g>
		<g class="st0">
			<path class="st1" d="M100.7,6.8c-0.2,0-0.4-0.1-0.7-0.2l0.1-0.8c0.2,0.1,0.4,0.2,0.6,0.3c0.2,0.1,0.4,0.1,0.6,0.1
				c0.4,0,0.6-0.1,0.6-0.4c0-0.1-0.1-0.3-0.2-0.3c-0.1-0.1-0.3-0.2-0.6-0.3c-0.4-0.1-0.7-0.3-0.9-0.5c-0.2-0.2-0.3-0.4-0.3-0.7
				c0-0.3,0.1-0.6,0.4-0.8c0.3-0.2,0.6-0.3,1.1-0.3c0.5,0,0.9,0.1,1.2,0.3l-0.1,0.8c-0.2-0.1-0.4-0.2-0.6-0.3
				c-0.2-0.1-0.4-0.1-0.6-0.1c-0.2,0-0.3,0-0.4,0.1s-0.1,0.2-0.1,0.3c0,0.1,0,0.2,0.1,0.2c0.1,0.1,0.1,0.1,0.2,0.2
				c0.1,0.1,0.3,0.1,0.5,0.2c0.4,0.1,0.7,0.3,0.8,0.5s0.3,0.4,0.3,0.7c0,0.4-0.1,0.7-0.4,0.9s-0.7,0.3-1.2,0.3
				C101.2,6.9,100.9,6.9,100.7,6.8z"/>
			<path class="st1" d="M106.7,5.9h2.6v0.9h-4.2l2.7-4.7h-2.3V1.2h3.9L106.7,5.9z"/>
			<path class="st1" d="M112.9,5.5h-2l-0.5,1.3h-1l2-5.6h1l2,5.6h-1L112.9,5.5z M112.6,4.6l-0.7-2l-0.7,2H112.6z"/>
			<path class="st1" d="M115,1.2h2c0.6,0,1.1,0.1,1.4,0.4s0.5,0.7,0.5,1.3c0,0.4-0.1,0.7-0.2,1s-0.4,0.4-0.7,0.6l1.3,2.4h-1.1
				l-1.1-2.1h0h-1v2.1h-1V1.2z M116.8,3.9c0.8,0,1.1-0.3,1.1-0.9c0-0.3-0.1-0.5-0.3-0.7c-0.2-0.2-0.4-0.2-0.8-0.2H116v1.8H116.8z"/>
		</g>
		<g class="st0">
			<path class="st2" d="M38.4,97.5h3v0.6h-2.3v1.4h1.8v0.6h-1.8v2.3h-0.7V97.5z"/>
			<path class="st2" d="M42.1,97.5h3v0.6h-2.3v1.4h1.8v0.6h-1.8v1.7h2.4v0.6h-3.1V97.5z"/>
			<path class="st2" d="M49.1,100.2c0.2,0.2,0.2,0.5,0.2,0.8c0,0.4-0.1,0.8-0.4,1c-0.3,0.2-0.7,0.4-1.1,0.4h-1.8v-4.9h1.5
				c0.4,0,0.8,0.1,1,0.3c0.2,0.2,0.4,0.5,0.4,0.9c0,0.2,0,0.4-0.1,0.6s-0.2,0.3-0.4,0.4C48.7,99.8,48.9,100,49.1,100.2z M46.6,99.5
				h0.8c0.3,0,0.5-0.1,0.6-0.2s0.2-0.3,0.2-0.6s-0.1-0.5-0.2-0.6c-0.1-0.1-0.3-0.2-0.6-0.2h-0.8V99.5z M48.4,101.6
				c0.2-0.1,0.2-0.3,0.2-0.6c0-0.6-0.3-0.8-0.9-0.8h-1.1v1.7h1.1C48,101.8,48.2,101.7,48.4,101.6z"/>
			<path class="st2" d="M52.9,100.4c0.2-0.4,0.4-0.7,0.5-0.9c0.1-0.2,0.2-0.5,0.2-0.7c0-0.2-0.1-0.4-0.2-0.6
				C53.2,98.1,53,98,52.8,98c-0.4,0-0.8,0.2-1.2,0.6l-0.1-0.7c0.2-0.1,0.4-0.3,0.6-0.3s0.5-0.1,0.7-0.1c0.4,0,0.8,0.1,1,0.4
				c0.2,0.3,0.4,0.6,0.4,1c0,0.3-0.1,0.6-0.2,0.9c-0.1,0.3-0.3,0.6-0.6,1.1l-0.7,1.1h1.7v0.6h-2.9L52.9,100.4z"/>
			<path class="st2" d="M56.1,102.2c-0.3-0.2-0.5-0.5-0.7-0.9c-0.2-0.4-0.2-0.8-0.2-1.3c0-0.5,0.1-0.9,0.3-1.3
				c0.2-0.4,0.4-0.7,0.7-0.9c0.3-0.2,0.7-0.3,1.1-0.3c0.4,0,0.8,0.1,1.1,0.3c0.3,0.2,0.6,0.5,0.7,0.9c0.2,0.4,0.3,0.8,0.3,1.3
				c0,0.5-0.1,1-0.2,1.3c-0.2,0.4-0.4,0.7-0.7,0.9c-0.3,0.2-0.7,0.3-1.1,0.3S56.4,102.4,56.1,102.2z M58.2,101.4
				c0.2-0.3,0.4-0.8,0.4-1.5c0-0.6-0.1-1.1-0.4-1.4s-0.6-0.5-1-0.5c-0.4,0-0.7,0.2-1,0.5c-0.2,0.3-0.4,0.8-0.4,1.4
				c0,0.6,0.1,1.1,0.4,1.5c0.2,0.3,0.6,0.5,1,0.5C57.7,101.9,58,101.7,58.2,101.4z"/>
			<path class="st2" d="M61.4,100.4c0.2-0.4,0.4-0.7,0.5-0.9c0.1-0.2,0.2-0.5,0.2-0.7c0-0.2-0.1-0.4-0.2-0.6
				c-0.1-0.1-0.3-0.2-0.6-0.2c-0.4,0-0.8,0.2-1.2,0.6l-0.1-0.7c0.2-0.1,0.4-0.3,0.6-0.3c0.2-0.1,0.5-0.1,0.7-0.1
				c0.4,0,0.8,0.1,1,0.4c0.2,0.3,0.4,0.6,0.4,1c0,0.3-0.1,0.6-0.2,0.9s-0.3,0.6-0.6,1.1l-0.7,1.1H63v0.6h-2.9L61.4,100.4z"/>
			<path class="st2" d="M64.7,102.2c-0.3-0.2-0.5-0.5-0.7-0.9c-0.2-0.4-0.2-0.8-0.2-1.3c0-0.5,0.1-0.9,0.3-1.3s0.4-0.7,0.7-0.9
				s0.7-0.3,1.1-0.3c0.4,0,0.8,0.1,1.1,0.3s0.6,0.5,0.7,0.9c0.2,0.4,0.3,0.8,0.3,1.3c0,0.5-0.1,1-0.2,1.3c-0.2,0.4-0.4,0.7-0.7,0.9
				c-0.3,0.2-0.7,0.3-1.1,0.3S65,102.4,64.7,102.2z M66.8,101.4c0.2-0.3,0.4-0.8,0.4-1.5c0-0.6-0.1-1.1-0.4-1.4s-0.6-0.5-1-0.5
				c-0.4,0-0.7,0.2-1,0.5c-0.3,0.3-0.4,0.8-0.4,1.4c0,0.6,0.1,1.1,0.4,1.5c0.2,0.3,0.6,0.5,1,0.5C66.2,101.9,66.6,101.7,66.8,101.4z
				"/>
		</g>
		<g class="st0">
			<path class="st2" d="M98.8,102.4l-0.5-3.7l-1.3,2.5l-1.4-2.5l-0.5,3.7h-0.7l0.7-4.9h0.6l1.3,2.4l1.3-2.4h0.6l0.7,4.9H98.8z"/>
			<path class="st2" d="M102.9,101.1h-1.9l-0.5,1.3h-0.7l1.8-4.9h0.7l1.8,4.9h-0.7L102.9,101.1z M102.7,100.5l-0.7-2l-0.7,2H102.7z"
				/>
			<path class="st2" d="M104.7,97.5h1.6c0.5,0,0.9,0.1,1.2,0.4c0.3,0.2,0.4,0.6,0.4,1.1c0,0.7-0.3,1.1-0.9,1.4l1.1,2h-0.8l-1-1.9h0
				h-1v1.9h-0.7V97.5z M106.3,99.9c0.3,0,0.6-0.1,0.7-0.2c0.2-0.2,0.3-0.4,0.3-0.7c0-0.3-0.1-0.5-0.3-0.7c-0.2-0.2-0.4-0.2-0.8-0.2
				h-0.9v1.8H106.3z"/>
			<path class="st2" d="M111.7,100.4c0.2-0.4,0.4-0.7,0.5-0.9c0.1-0.2,0.2-0.5,0.2-0.7c0-0.2-0.1-0.4-0.2-0.6
				c-0.1-0.1-0.3-0.2-0.6-0.2c-0.4,0-0.8,0.2-1.2,0.6l-0.1-0.7c0.2-0.1,0.4-0.3,0.6-0.3c0.2-0.1,0.5-0.1,0.7-0.1
				c0.4,0,0.8,0.1,1,0.4c0.2,0.3,0.4,0.6,0.4,1c0,0.3-0.1,0.6-0.2,0.9s-0.3,0.6-0.6,1.1l-0.7,1.1h1.7v0.6h-2.9L111.7,100.4z"/>
			<path class="st2" d="M115,102.2c-0.3-0.2-0.5-0.5-0.7-0.9c-0.2-0.4-0.2-0.8-0.2-1.3c0-0.5,0.1-0.9,0.3-1.3s0.4-0.7,0.7-0.9
				s0.7-0.3,1.1-0.3c0.4,0,0.8,0.1,1.1,0.3s0.6,0.5,0.7,0.9c0.2,0.4,0.3,0.8,0.3,1.3c0,0.5-0.1,1-0.2,1.3c-0.2,0.4-0.4,0.7-0.7,0.9
				c-0.3,0.2-0.7,0.3-1.1,0.3S115.3,102.4,115,102.2z M117.1,101.4c0.2-0.3,0.4-0.8,0.4-1.5c0-0.6-0.1-1.1-0.4-1.4s-0.6-0.5-1-0.5
				c-0.4,0-0.7,0.2-1,0.5c-0.3,0.3-0.4,0.8-0.4,1.4c0,0.6,0.1,1.1,0.4,1.5c0.2,0.3,0.6,0.5,1,0.5
				C116.5,101.9,116.8,101.7,117.1,101.4z"/>
			<path class="st2" d="M120.2,100.4c0.2-0.4,0.4-0.7,0.5-0.9c0.1-0.2,0.2-0.5,0.2-0.7c0-0.2-0.1-0.4-0.2-0.6
				c-0.1-0.1-0.3-0.2-0.6-0.2c-0.4,0-0.8,0.2-1.2,0.6l-0.1-0.7c0.2-0.1,0.4-0.3,0.6-0.3c0.2-0.1,0.5-0.1,0.7-0.1
				c0.4,0,0.8,0.1,1,0.4c0.2,0.3,0.4,0.6,0.4,1c0,0.3-0.1,0.6-0.2,0.9s-0.3,0.6-0.6,1.1l-0.7,1.1h1.7v0.6h-2.9L120.2,100.4z"/>
			<path class="st2" d="M123.5,102.2c-0.3-0.2-0.5-0.5-0.7-0.9c-0.2-0.4-0.2-0.8-0.2-1.3c0-0.5,0.1-0.9,0.3-1.3s0.4-0.7,0.7-0.9
				s0.7-0.3,1.1-0.3c0.4,0,0.8,0.1,1.1,0.3s0.6,0.5,0.7,0.9c0.2,0.4,0.3,0.8,0.3,1.3c0,0.5-0.1,1-0.2,1.3c-0.2,0.4-0.4,0.7-0.7,0.9
				c-0.3,0.2-0.7,0.3-1.1,0.3S123.8,102.4,123.5,102.2z M125.6,101.4c0.2-0.3,0.4-0.8,0.4-1.5c0-0.6-0.1-1.1-0.4-1.4s-0.6-0.5-1-0.5
				c-0.4,0-0.7,0.2-1,0.5c-0.3,0.3-0.4,0.8-0.4,1.4c0,0.6,0.1,1.1,0.4,1.5c0.2,0.3,0.6,0.5,1,0.5
				C125.1,101.9,125.4,101.7,125.6,101.4z"/>
		</g>
		<g class="st0">
			<path class="st2" d="M155.2,101.1h-1.9l-0.5,1.3h-0.7l1.8-4.9h0.7l1.8,4.9h-0.7L155.2,101.1z M155,100.5l-0.7-2l-0.7,2H155z"/>
			<path class="st2" d="M156.9,97.5h1.6c0.5,0,0.9,0.1,1.2,0.4c0.3,0.3,0.4,0.7,0.4,1.2c0,0.5-0.1,0.9-0.4,1.2
				c-0.3,0.3-0.7,0.4-1.2,0.4h-0.9v1.7h-0.7V97.5z M158.5,100.1c0.4,0,0.6-0.1,0.8-0.2c0.2-0.2,0.3-0.4,0.3-0.7
				c0-0.3-0.1-0.6-0.3-0.8c-0.2-0.2-0.4-0.2-0.8-0.2h-0.8v2H158.5z"/>
			<path class="st2" d="M160.9,97.5h1.6c0.5,0,0.9,0.1,1.2,0.4c0.3,0.2,0.4,0.6,0.4,1.1c0,0.7-0.3,1.1-0.9,1.4l1.1,2h-0.8l-1-1.9h0
				h-1v1.9h-0.7V97.5z M162.5,99.9c0.3,0,0.6-0.1,0.7-0.2c0.2-0.2,0.3-0.4,0.3-0.7c0-0.3-0.1-0.5-0.3-0.7c-0.2-0.2-0.4-0.2-0.8-0.2
				h-0.9v1.8H162.5z"/>
			<path class="st2" d="M167.9,100.4c0.2-0.4,0.4-0.7,0.5-0.9c0.1-0.2,0.2-0.5,0.2-0.7c0-0.2-0.1-0.4-0.2-0.6
				c-0.1-0.1-0.3-0.2-0.6-0.2c-0.4,0-0.8,0.2-1.2,0.6l-0.1-0.7c0.2-0.1,0.4-0.3,0.6-0.3s0.5-0.1,0.7-0.1c0.4,0,0.8,0.1,1,0.4
				c0.2,0.3,0.4,0.6,0.4,1c0,0.3-0.1,0.6-0.2,0.9c-0.1,0.3-0.3,0.6-0.6,1.1l-0.7,1.1h1.7v0.6h-2.9L167.9,100.4z"/>
			<path class="st2" d="M171.2,102.2c-0.3-0.2-0.5-0.5-0.7-0.9c-0.2-0.4-0.2-0.8-0.2-1.3c0-0.5,0.1-0.9,0.3-1.3
				c0.2-0.4,0.4-0.7,0.7-0.9s0.7-0.3,1.1-0.3c0.4,0,0.8,0.1,1.1,0.3s0.6,0.5,0.7,0.9s0.3,0.8,0.3,1.3c0,0.5-0.1,1-0.2,1.3
				c-0.2,0.4-0.4,0.7-0.7,0.9c-0.3,0.2-0.7,0.3-1.1,0.3S171.5,102.4,171.2,102.2z M173.3,101.4c0.2-0.3,0.4-0.8,0.4-1.5
				c0-0.6-0.1-1.1-0.4-1.4s-0.6-0.5-1-0.5c-0.4,0-0.7,0.2-1,0.5c-0.3,0.3-0.4,0.8-0.4,1.4c0,0.6,0.1,1.1,0.4,1.5
				c0.2,0.3,0.6,0.5,1,0.5S173.1,101.7,173.3,101.4z"/>
			<path class="st2" d="M176.5,100.4c0.2-0.4,0.4-0.7,0.5-0.9c0.1-0.2,0.2-0.5,0.2-0.7c0-0.2-0.1-0.4-0.2-0.6
				c-0.1-0.1-0.3-0.2-0.6-0.2c-0.4,0-0.8,0.2-1.2,0.6l-0.1-0.7c0.2-0.1,0.4-0.3,0.6-0.3c0.2-0.1,0.5-0.1,0.7-0.1
				c0.4,0,0.8,0.1,1,0.4c0.2,0.3,0.4,0.6,0.4,1c0,0.3-0.1,0.6-0.2,0.9s-0.3,0.6-0.6,1.1l-0.7,1.1h1.7v0.6h-2.9L176.5,100.4z"/>
			<path class="st2" d="M179.7,102.2c-0.3-0.2-0.5-0.5-0.7-0.9c-0.2-0.4-0.2-0.8-0.2-1.3c0-0.5,0.1-0.9,0.3-1.3
				c0.2-0.4,0.4-0.7,0.7-0.9c0.3-0.2,0.7-0.3,1.1-0.3c0.4,0,0.8,0.1,1.1,0.3c0.3,0.2,0.6,0.5,0.7,0.9s0.3,0.8,0.3,1.3
				c0,0.5-0.1,1-0.2,1.3c-0.2,0.4-0.4,0.7-0.7,0.9c-0.3,0.2-0.7,0.3-1.1,0.3S180.1,102.4,179.7,102.2z M181.9,101.4
				c0.2-0.3,0.4-0.8,0.4-1.5c0-0.6-0.1-1.1-0.4-1.4s-0.6-0.5-1-0.5c-0.4,0-0.7,0.2-1,0.5c-0.2,0.3-0.4,0.8-0.4,1.4
				c0,0.6,0.1,1.1,0.4,1.5c0.2,0.3,0.6,0.5,1,0.5S181.6,101.7,181.9,101.4z"/>
		</g>
		<g>
			<rect x="21.9" y="13.8" class="st3" width="0.5" height="77.6"/>
		</g>
		<g>
			<rect x="15.5" y="13.5" class="st3" width="183.7" height="0.5"/>
		</g>
		<g>
			<rect x="15.5" y="32.9" class="st3" width="183.7" height="0.5"/>
		</g>
		<g>
			<rect x="15.5" y="52.2" class="st3" width="183.7" height="0.5"/>
		</g>
		<g>
			<rect x="15.5" y="90.8" class="st3" width="183.7" height="0.5"/>
		</g>
		<g>
			<rect x="15.5" y="71.5" class="st3" width="183.7" height="0.5"/>
		</g>
		<g class="st0">
			<path class="st2" d="M2.9,89.1c-0.2,0.1-0.3,0.3-0.5,0.3c-0.1,0.1-0.3,0.1-0.4,0.2L2,88.9c0.2-0.1,0.4-0.2,0.7-0.4S3,88.2,3.1,88
				h0.5v5.6H2.9V89.1z"/>
			<path class="st2" d="M8.4,91.1c0.1,0.3,0.2,0.5,0.2,0.9c0,0.3-0.1,0.6-0.2,0.9S8,93.4,7.7,93.5c-0.3,0.1-0.6,0.2-1,0.2
				c-0.4,0-0.7-0.1-1-0.2c-0.3-0.1-0.5-0.3-0.7-0.6S4.8,92.3,4.8,92c0-0.3,0.1-0.6,0.2-0.9c0.1-0.3,0.4-0.5,0.6-0.6
				c-0.2-0.1-0.3-0.3-0.4-0.5C5.1,89.9,5,89.6,5,89.4c0-0.3,0.1-0.5,0.2-0.7c0.1-0.2,0.3-0.4,0.6-0.6C6,88,6.3,87.9,6.7,87.9
				s0.7,0.1,0.9,0.2c0.2,0.1,0.4,0.3,0.5,0.6c0.1,0.2,0.2,0.5,0.2,0.7c0,0.2,0,0.5-0.1,0.6c-0.1,0.2-0.2,0.4-0.4,0.5
				C8.1,90.7,8.3,90.9,8.4,91.1z M7.6,92.8c0.2-0.2,0.3-0.4,0.3-0.7c0-0.3-0.1-0.6-0.3-0.8c-0.2-0.2-0.5-0.3-0.9-0.3
				S6.1,91,5.9,91.2c-0.2,0.2-0.3,0.5-0.3,0.8c0,0.3,0.1,0.6,0.3,0.7C6.1,92.9,6.4,93,6.7,93S7.4,92.9,7.6,92.8z M6,88.8
				c-0.2,0.1-0.2,0.3-0.2,0.6c0,0.2,0.1,0.4,0.2,0.6c0.2,0.2,0.4,0.2,0.7,0.2c0.3,0,0.5-0.1,0.7-0.2c0.2-0.2,0.2-0.4,0.2-0.6
				c0-0.3-0.1-0.5-0.2-0.6c-0.2-0.1-0.4-0.2-0.7-0.2C6.4,88.6,6.2,88.7,6,88.8z"/>
		</g>
		<g class="st0">
			<path class="st2" d="M9.5,92.8h0.9v0.8H9.5V92.8z"/>
		</g>
		<g class="st0">
			<path class="st2" d="M11.9,89.1c-0.2,0.1-0.3,0.3-0.5,0.3s-0.3,0.1-0.4,0.2L11,88.9c0.2-0.1,0.4-0.2,0.7-0.4
				c0.2-0.2,0.4-0.3,0.5-0.5h0.5v5.6h-0.7V89.1z"/>
		</g>
		<g class="st0">
			<path class="st2" d="M1.2,69.8c-0.2,0.1-0.3,0.3-0.5,0.3c-0.1,0.1-0.3,0.1-0.4,0.2l-0.1-0.7c0.2-0.1,0.4-0.2,0.7-0.4
				s0.4-0.3,0.5-0.5H2v5.6H1.2V69.8z"/>
			<path class="st2" d="M6.7,71.8C6.9,72.1,7,72.4,7,72.7c0,0.3-0.1,0.6-0.2,0.9S6.3,74.1,6,74.2c-0.3,0.1-0.6,0.2-1,0.2
				c-0.4,0-0.7-0.1-1-0.2c-0.3-0.1-0.5-0.3-0.7-0.6S3.1,73,3.1,72.7c0-0.3,0.1-0.6,0.2-0.9c0.1-0.3,0.4-0.5,0.6-0.6
				c-0.2-0.1-0.3-0.3-0.4-0.5c-0.1-0.2-0.2-0.4-0.2-0.6c0-0.3,0.1-0.5,0.2-0.7c0.1-0.2,0.3-0.4,0.6-0.6c0.3-0.1,0.6-0.2,0.9-0.2
				c0.4,0,0.7,0.1,0.9,0.2c0.2,0.1,0.4,0.3,0.5,0.6c0.1,0.2,0.2,0.5,0.2,0.7c0,0.2,0,0.5-0.1,0.6c-0.1,0.2-0.2,0.4-0.4,0.5
				C6.4,71.4,6.6,71.6,6.7,71.8z M5.9,73.5c0.2-0.2,0.3-0.4,0.3-0.7c0-0.3-0.1-0.6-0.3-0.8c-0.2-0.2-0.5-0.3-0.9-0.3
				s-0.6,0.1-0.9,0.3c-0.2,0.2-0.3,0.5-0.3,0.8c0,0.3,0.1,0.6,0.3,0.7c0.2,0.2,0.5,0.3,0.9,0.3S5.7,73.6,5.9,73.5z M4.3,69.5
				c-0.2,0.1-0.2,0.3-0.2,0.6c0,0.2,0.1,0.4,0.2,0.6c0.2,0.2,0.4,0.2,0.7,0.2c0.3,0,0.5-0.1,0.7-0.2c0.2-0.2,0.2-0.4,0.2-0.6
				c0-0.3-0.1-0.5-0.2-0.6S5.3,69.3,5,69.3C4.7,69.3,4.5,69.4,4.3,69.5z"/>
			<path class="st2" d="M7.8,73.5h0.9v0.8H7.8V73.5z"/>
			<path class="st2" d="M11.1,72c0.3-0.4,0.5-0.8,0.6-1c0.1-0.3,0.2-0.5,0.2-0.7c0-0.3-0.1-0.5-0.2-0.7c-0.2-0.2-0.4-0.2-0.6-0.2
				c-0.5,0-1,0.2-1.4,0.6l-0.1-0.8c0.2-0.2,0.4-0.3,0.7-0.4c0.3-0.1,0.5-0.2,0.8-0.2c0.5,0,0.9,0.1,1.2,0.4c0.3,0.3,0.4,0.7,0.4,1.1
				c0,0.4-0.1,0.7-0.2,1c-0.1,0.3-0.4,0.7-0.7,1.2l-0.8,1.3h2v0.7H9.6L11.1,72z"/>
		</g>
		<g class="st0">
			<path class="st2" d="M1.1,50.5c-0.2,0.1-0.3,0.3-0.5,0.3c-0.1,0.1-0.3,0.1-0.4,0.2l-0.1-0.7c0.2-0.1,0.4-0.2,0.7-0.4
				s0.4-0.3,0.5-0.5h0.5V55H1.1V50.5z"/>
			<path class="st2" d="M6.6,52.5c0.1,0.3,0.2,0.5,0.2,0.9c0,0.3-0.1,0.6-0.2,0.9s-0.4,0.5-0.7,0.6c-0.3,0.1-0.6,0.2-1,0.2
				c-0.4,0-0.7-0.1-1-0.2c-0.3-0.1-0.5-0.3-0.7-0.6s-0.2-0.6-0.2-0.9c0-0.3,0.1-0.6,0.2-0.9c0.1-0.3,0.4-0.5,0.6-0.6
				c-0.2-0.1-0.3-0.3-0.4-0.5c-0.1-0.2-0.2-0.4-0.2-0.6c0-0.3,0.1-0.5,0.2-0.7c0.1-0.2,0.3-0.4,0.6-0.6c0.3-0.1,0.6-0.2,0.9-0.2
				c0.4,0,0.7,0.1,0.9,0.2c0.2,0.1,0.4,0.3,0.5,0.6c0.1,0.2,0.2,0.5,0.2,0.7c0,0.2,0,0.5-0.1,0.6c-0.1,0.2-0.2,0.4-0.4,0.5
				C6.3,52.1,6.5,52.3,6.6,52.5z M5.7,54.1C5.9,54,6,53.7,6,53.4c0-0.3-0.1-0.6-0.3-0.8c-0.2-0.2-0.5-0.3-0.9-0.3S4.2,52.4,4,52.6
				c-0.2,0.2-0.3,0.5-0.3,0.8c0,0.3,0.1,0.6,0.3,0.7c0.2,0.2,0.5,0.3,0.9,0.3S5.5,54.3,5.7,54.1z M4.2,50.2C4,50.3,4,50.5,4,50.8
				C4,51,4,51.2,4.2,51.4c0.2,0.2,0.4,0.2,0.7,0.2c0.3,0,0.5-0.1,0.7-0.2c0.2-0.2,0.2-0.4,0.2-0.6c0-0.3-0.1-0.5-0.2-0.6
				S5.2,50,4.9,50C4.6,50,4.4,50.1,4.2,50.2z"/>
			<path class="st2" d="M7.7,54.2h0.9V55H7.7V54.2z"/>
			<path class="st2" d="M12.8,53.5c0,0.3-0.1,0.6-0.3,0.9s-0.4,0.4-0.7,0.6c-0.3,0.1-0.6,0.2-1,0.2c-0.5,0-1.1-0.1-1.6-0.4L9.5,54
				c0.3,0.1,0.5,0.3,0.7,0.3c0.2,0.1,0.5,0.1,0.7,0.1c0.3,0,0.6-0.1,0.8-0.3c0.2-0.2,0.3-0.4,0.3-0.7c0-0.3-0.1-0.6-0.3-0.8
				c-0.2-0.2-0.6-0.3-1-0.3h-0.4v-0.7h0.4c0.3,0,0.6-0.1,0.8-0.2c0.2-0.2,0.3-0.4,0.3-0.7c0-0.3-0.1-0.5-0.2-0.7
				C11.4,50,11.2,50,10.9,50c-0.2,0-0.4,0-0.6,0.1c-0.2,0.1-0.4,0.2-0.6,0.3l-0.1-0.8c0.4-0.2,0.9-0.4,1.4-0.4
				c0.5,0,0.9,0.1,1.2,0.4c0.3,0.3,0.4,0.6,0.4,1.1c0,0.3-0.1,0.6-0.2,0.8c-0.2,0.2-0.4,0.4-0.6,0.5C12.5,52.3,12.8,52.8,12.8,53.5z
				"/>
		</g>
		<g class="st0">
			<path class="st2" d="M0.8,31.2c-0.2,0.1-0.3,0.3-0.5,0.3c-0.1,0.1-0.3,0.1-0.4,0.2L-0.2,31c0.2-0.1,0.4-0.2,0.7-0.4
				s0.4-0.3,0.5-0.5h0.5v5.6H0.8V31.2z"/>
			<path class="st2" d="M6.3,33.2c0.1,0.3,0.2,0.5,0.2,0.9c0,0.3-0.1,0.6-0.2,0.9s-0.4,0.5-0.7,0.6c-0.3,0.1-0.6,0.2-1,0.2
				c-0.4,0-0.7-0.1-1-0.2C3.3,35.5,3,35.3,2.9,35s-0.2-0.6-0.2-0.9c0-0.3,0.1-0.6,0.2-0.9C3,33,3.2,32.8,3.5,32.6
				c-0.2-0.1-0.3-0.3-0.4-0.5c-0.1-0.2-0.2-0.4-0.2-0.6c0-0.3,0.1-0.5,0.2-0.7c0.1-0.2,0.3-0.4,0.6-0.6C3.9,30.1,4.2,30,4.6,30
				c0.4,0,0.7,0.1,0.9,0.2c0.2,0.1,0.4,0.3,0.5,0.6c0.1,0.2,0.2,0.5,0.2,0.7c0,0.2,0,0.5-0.1,0.6c-0.1,0.2-0.2,0.4-0.4,0.5
				C6,32.8,6.2,33,6.3,33.2z M5.4,34.8c0.2-0.2,0.3-0.4,0.3-0.7c0-0.3-0.1-0.6-0.3-0.8C5.2,33.1,5,33,4.6,33s-0.6,0.1-0.9,0.3
				c-0.2,0.2-0.3,0.5-0.3,0.8c0,0.3,0.1,0.6,0.3,0.7c0.2,0.2,0.5,0.3,0.9,0.3S5.2,35,5.4,34.8z M3.9,30.9c-0.2,0.1-0.2,0.3-0.2,0.6
				c0,0.2,0.1,0.4,0.2,0.6c0.2,0.2,0.4,0.2,0.7,0.2c0.3,0,0.5-0.1,0.7-0.2c0.2-0.2,0.2-0.4,0.2-0.6c0-0.3-0.1-0.5-0.2-0.6
				s-0.4-0.2-0.7-0.2C4.3,30.7,4.1,30.8,3.9,30.9z"/>
			<path class="st2" d="M7.4,34.9h0.9v0.8H7.4V34.9z"/>
			<path class="st2" d="M13.1,33.6v0.6h-0.7v1.4h-0.8v-1.4H8.8l3-4.2h0.6v3.5H13.1z M11.6,33.6v-2.1l-1.5,2.1H11.6z"/>
		</g>
		<g class="st0">
			<path class="st2" d="M1.1,10.9c-0.2,0.1-0.3,0.3-0.5,0.3c-0.1,0.1-0.3,0.1-0.4,0.2l-0.1-0.7c0.2-0.1,0.4-0.2,0.7-0.4
				S1.2,10,1.3,9.8h0.5v5.6H1.1V10.9z"/>
			<path class="st2" d="M6.6,12.9c0.1,0.3,0.2,0.5,0.2,0.9c0,0.3-0.1,0.6-0.2,0.9s-0.4,0.5-0.7,0.6c-0.3,0.1-0.6,0.2-1,0.2
				c-0.4,0-0.7-0.1-1-0.2c-0.3-0.1-0.5-0.3-0.7-0.6s-0.2-0.6-0.2-0.9c0-0.3,0.1-0.6,0.2-0.9c0.1-0.3,0.4-0.5,0.6-0.6
				c-0.2-0.1-0.3-0.3-0.4-0.5c-0.1-0.2-0.2-0.4-0.2-0.6c0-0.3,0.1-0.5,0.2-0.7c0.1-0.2,0.3-0.4,0.6-0.6c0.3-0.1,0.6-0.2,0.9-0.2
				c0.4,0,0.7,0.1,0.9,0.2c0.2,0.1,0.4,0.3,0.5,0.6c0.1,0.2,0.2,0.5,0.2,0.7c0,0.2,0,0.5-0.1,0.6C6.3,12,6.2,12.2,6,12.3
				C6.3,12.5,6.5,12.7,6.6,12.9z M5.7,14.5C5.9,14.4,6,14.1,6,13.8c0-0.3-0.1-0.6-0.3-0.8c-0.2-0.2-0.5-0.3-0.9-0.3S4.2,12.8,4,13
				c-0.2,0.2-0.3,0.5-0.3,0.8c0,0.3,0.1,0.6,0.3,0.7c0.2,0.2,0.5,0.3,0.9,0.3S5.5,14.7,5.7,14.5z M4.2,10.6C4,10.7,4,10.9,4,11.2
				c0,0.2,0.1,0.4,0.2,0.6C4.4,12,4.6,12,4.9,12c0.3,0,0.5-0.1,0.7-0.2c0.2-0.2,0.2-0.4,0.2-0.6c0-0.3-0.1-0.5-0.2-0.6
				s-0.4-0.2-0.7-0.2C4.6,10.4,4.4,10.5,4.2,10.6z"/>
			<path class="st2" d="M7.7,14.6h0.9v0.8H7.7V14.6z"/>
			<path class="st2" d="M12,12.1c0.3,0.2,0.5,0.4,0.6,0.6c0.1,0.3,0.2,0.6,0.2,0.9c0,0.4-0.1,0.7-0.3,1c-0.2,0.3-0.4,0.5-0.7,0.6
				c-0.3,0.2-0.6,0.2-1,0.2c-0.3,0-0.6,0-0.8-0.1c-0.3-0.1-0.5-0.2-0.7-0.3l0.2-0.7c0.2,0.1,0.4,0.2,0.7,0.3
				c0.2,0.1,0.4,0.1,0.7,0.1c0.4,0,0.6-0.1,0.9-0.3c0.2-0.2,0.3-0.5,0.3-0.8c0-0.4-0.1-0.7-0.4-0.9c-0.2-0.2-0.5-0.3-0.9-0.3
				c-0.3,0-0.7,0.1-1.1,0.2L10,9.8h2.6l0,0.7h-2l-0.2,1.4c0.2,0,0.4,0,0.6,0C11.4,11.9,11.8,11.9,12,12.1z"/>
		</g>
		<g>
			<defs>
				<rect id="SVGID_1_" x="22.2" y="12.8" width="177" height="78.2"/>
			</defs>
			<clipPath id="SVGID_2_">
				<use xlink:href="#SVGID_1_"  style="overflow:visible;"/>
			</clipPath>
			<g class="st4">
				<g class="st5">
					<g>
						<path class="st6" d="M-190.4,109.2c9.4-26.8,15.7-50.3,21.7-43s6.7,7.7,13.1-3.2s7.1,0.9,8.5,8.7s8.5-9.6,11-16.4
							s5.3,4.6,7.1,9.6c1.8,5,2.8,0.5,5-5.9s3.2,1.4,4.6,6.8s3.9-1.9,5.2-4.7s5.1,3.8,5.6,4.8s1.1,0,2.4-3.8s2.9-6.2,6.4-0.7
							s5.6,6.5,7.7-6.2s4.3,2.4,5.3,6.5s3.2,13.7,7.5,0.3s4.6-12.9,5.9-9.2s4.2,9,7,2.1s2.7-4.1,3-1.8s0.4,8.2,3,8s2.5-1.6,5.2-7.3
							S-44.5,0.1-42.3,11s2.1,15,3.5,22.3s4.3-5,5-10.9s2.8,3.2,5.7,9.6s5,7.7,7.1,0.9s3.6,6.4,4.6,10.5s10.6,65.8,10.6,65.8
							L-190.4,109.2z"/>
					</g>
				</g>
				<g>
					<path class="st7" d="M-5.2,109.7h-186l0.2-0.7c1.6-4.4,3-8.7,4.4-12.8c6.1-18,10.5-31,15-31.9c1.2-0.1,2.5,0.4,3.1,1.5
						c2.8,3.3,4.4,5.2,5.8,5.1c1.6-0.1,3.4-2.8,6.5-8.2c2-3.4,3.6-4.9,5-4.6c2.3,0.4,3.1,5.3,3.9,10.3c0.2,1.1,0.3,2.1,0.5,3.1
						s0.5,1.5,0.7,1.6l0,0c1.5,0,5.6-7.9,9.3-18c0.4-1.1,1-2.5,2.2-2.5c1.8,0,3.2,3.9,5,9.4c0.3,1,0.6,1.9,0.9,2.6
						c0.6,1.7,1,1.8,1,1.8c0.6-0.1,1.6-3.2,2.4-5.7c0.2-0.6,0.4-1.3,0.7-2c0.7-2,1.3-2.8,2-2.7c1.3,0.1,1.8,2.3,2.9,6.7
						c0.2,1,0.4,2,0.7,2.9c0.4,1.5,0.8,1.6,0.8,1.6c0.7,0,2.2-3.3,2.8-4.7c0.3-0.6,0.5-1.2,0.7-1.7c0.2-0.6,0.7-0.9,1.3-0.9l0,0
						c2.1,0,4.9,5.2,5.2,5.7c0.6-1.2,1.1-2.4,1.5-3.7c0.7-2.1,1.6-4,3.2-4.2c1.3-0.1,2.6,1,4.1,3.4c1,1.6,2.5,3.8,3.5,3.6
						c1.2-0.2,2.3-3.5,3.3-9.6c0.8-4.4,1.4-5.4,2.3-5.4l0,0c1.3,0,2.1,2.6,3.4,8.9c0.3,1.2,0.5,2.2,0.6,2.9l0.1,0.5
						c0.5,2,1.6,6.2,2.8,6.3c0.4,0,1.7-0.6,3.5-6.5c3.3-10.2,4.1-11.7,5.1-11.8l0,0c0.8,0,1.2,1.1,1.8,2.5c1.2,3.2,2.5,5.1,3.6,5.1
						c0.8,0,1.7-1,2.5-3c1.7-4.1,2.3-4.7,2.9-4.6c0.7,0.1,0.8,0.9,0.9,2.1c0,0.3,0.1,0.5,0.1,0.8s0.1,1,0.2,1.5
						c0.2,2.3,0.6,6.1,2.3,6s2-0.7,3.3-3.7c0.4-0.9,0.8-2,1.5-3.3c0.9-2,2.6-9.6,4.4-17.7c4.4-19.9,6.2-27,8-27l0,0
						c0.8,0,1.1,1.1,1.3,2c1.2,6,1.7,10,2.2,13.5c0.4,2.8,0.7,5.5,1.4,8.8c0.3,1.6,0.6,1.8,0.7,1.8c0.8-0.3,2.7-7.1,3.3-12.8
						c0.2-1.4,0.4-2.3,1.1-2.4c0.9-0.1,1.6,1.4,3.2,5.9c0.7,1.9,1.5,4,2.3,5.9c1.9,4.3,3.1,5.2,3.7,5.1c0.4,0,1.4-0.6,2.5-4.2
						c0.4-1.1,0.9-2.4,1.7-2.3c1.3,0.1,2,2.9,3.1,8.9c0.3,1.5,0.5,3,0.8,3.9c1.3,4,10.5,63.3,10.9,65.8L-5.2,109.7z M-189.7,108.7
						H-6.3c-1-6.3-9.5-61.4-10.5-65.2c-0.3-1-0.5-2.4-0.8-4c-0.5-2.7-1.4-7.6-2.2-8c-0.3,0.5-0.6,1-0.7,1.5c-1,3.3-2.1,4.8-3.4,4.9
						s-2.8-1.6-4.7-5.7c-0.8-1.9-1.6-4-2.3-5.9c-0.6-1.8-1.3-3.5-2.1-5.1c-0.1,0.4-0.2,0.9-0.3,1.3c0,0.1-1.8,13.5-4.3,13.6
						c-1,0-1.4-1.4-1.6-2.7c-0.6-3.3-1-6-1.4-8.8c-0.5-3.5-1-7.5-2.2-13.5c-0.1-0.4-0.2-0.8-0.4-1.2c-1.6,1.2-4.8,16.2-7,26.2
						c-1.9,8.5-3.5,15.8-4.4,17.9c-0.6,1.3-1.1,2.4-1.4,3.3c-1.3,3-1.8,4.1-4.1,4.3c-2.7,0.2-3.1-4.1-3.4-6.9
						c-0.1-0.6-0.1-1.1-0.2-1.5s-0.1-0.6-0.1-0.9s-0.1-0.7-0.1-1c-0.7,1.2-1.4,2.5-1.9,3.8c-1,2.5-2.1,3.7-3.4,3.6
						c-2,0-3.6-3.2-4.5-5.8c-0.2-0.7-0.5-1.3-0.8-1.9c-0.8,0.6-3,7.4-4.2,11c-1.6,5-3,7.2-4.5,7.2c-1.8-0.1-2.8-3.4-3.8-7l-0.1-0.5
						c-0.2-0.7-0.4-1.8-0.7-3c-0.5-2.5-1.6-7.8-2.4-8.1c0,0-0.6,0.4-1.3,4.5c-1.2,7-2.4,10-4.1,10.4c-1.5,0.3-2.9-1.4-4.6-4.1
						s-2.6-3-3.2-3c-1,0.1-1.8,2.1-2.3,3.5c-1.3,3.6-1.7,4.4-2.4,4.5c-0.4,0-0.7-0.2-0.9-0.6c-1-1.9-3.2-5.2-4.3-5.2
						c-0.1,0-0.2,0-0.4,0.4s-0.4,1-0.7,1.6c-1.4,3.2-2.5,5.4-3.8,5.3c-1-0.1-1.4-1.4-1.7-2.3s-0.5-1.9-0.7-2.9
						c-0.5-2.3-1.3-5.8-1.9-6c0,0-0.4,0.1-1,2.1c-0.2,0.7-0.5,1.4-0.7,2c-1.4,4.4-2.1,6.4-3.3,6.4c-0.7,0-1.3-0.7-1.9-2.5
						c-0.3-0.8-0.6-1.7-0.9-2.7c-1-3-2.8-8.7-4.1-8.7l0,0c-0.3,0-0.7,0.5-1.2,1.8c-1.1,3.2-7.1,19-10.4,18.7
						c-1.2-0.1-1.5-1.8-1.6-2.4c-0.2-1-0.4-2.1-0.5-3.1c-0.7-4.1-1.5-9.2-3.1-9.5c-0.5-0.1-1.7,0.3-4,4.2c-3.5,6-5.3,8.5-7.3,8.7
						s-3.6-1.8-6.6-5.4c-0.7-0.9-1.5-1.3-2.2-1.1c-4,0.7-8.7,14.8-14.3,31.2C-186.9,100.4-188.3,104.5-189.7,108.7z"/>
				</g>
				<g class="st5">
					<g>
						<polygon class="st8" points="17,71.7 19.8,61.8 25.2,54.8 30,54.8 34.1,54.8 37.5,51.5 41.2,54.8 41.6,49 44.6,46 48.7,48.5 
							52.5,47.5 52.8,44.6 58.2,45.5 63.7,47.5 68.5,41.1 70.8,44.6 72.2,36.7 75.3,36.7 77.6,42.1 80.4,31.8 81.4,36.7 86.5,43.1 
							95,41.1 95.3,31.8 98.1,31.8 99.1,34.2 100.8,39.6 103.9,36.5 109.3,36.7 110.7,29.3 115.8,31.8 118.5,34.7 120.9,31.8 
							123.3,26.9 126.2,21 129.4,24.8 132.1,26.9 135.5,31.8 139.6,31.8 141.6,36.7 145.7,36.7 151.2,40.6 154.6,43.6 157,31.8 
							160,34.2 164.1,31.8 167.5,22.9 172.6,26.9 175.7,34.2 179.4,31.8 182.8,26.9 185.2,34.7 189,41.6 191.3,36.7 194.1,31.8 
							203.3,56.9 203.3,98.3 17.7,98.3 						"/>
					</g>
				</g>
				<g>
					<path class="st7" d="M203.3,98.8H17.7c-0.3,0-0.5-0.2-0.5-0.5c0,0,0,0,0,0l-0.7-26.6c0,0,0-0.1,0-0.2l2.7-9.9
						c0-0.1,0-0.1,0.1-0.2l5.4-7c0.1-0.1,0.2-0.2,0.4-0.2h8.6l3.3-3.2c0.2-0.2,0.5-0.2,0.7,0l3,2.7l0.3-4.8c0-0.1,0.1-0.2,0.2-0.3
						l3.1-3c0.2-0.2,0.4-0.2,0.6-0.1l3.9,2.4l3.2-0.8l0.3-2.6c0-0.1,0.1-0.3,0.2-0.3c0.1-0.1,0.3-0.1,0.4-0.1l5.5,1l5.2,1.9l4.6-6.1
						c0.1-0.1,0.2-0.2,0.4-0.2c0.2,0,0.3,0.1,0.4,0.2l1.7,2.5l1.2-6.6c0-0.2,0.2-0.4,0.5-0.4h3.1c0.2,0,0.4,0.1,0.4,0.3l1.8,4.1
						l2.4-8.9c0.1-0.2,0.3-0.4,0.5-0.4c0.2,0,0.4,0.2,0.5,0.4l1,4.8l4.8,6l7.8-1.8l0.3-8.9c0-0.3,0.2-0.5,0.5-0.5h2.7
						c0.2,0,0.4,0.1,0.5,0.3l1,2.4l1.5,4.7l2.5-2.5c0.1-0.1,0.2-0.2,0.4-0.2l5,0.2l1.3-7c0-0.2,0.1-0.3,0.3-0.4
						c0.1-0.1,0.3-0.1,0.4,0l5.1,2.5l0.1,0.1l2.3,2.5l2-2.4l2.4-4.9l2.9-5.9c0.1-0.1,0.2-0.3,0.4-0.3c0.2,0,0.3,0,0.4,0.2l3.2,3.8
						l2.7,2c0,0,0.1,0.1,0.1,0.1l3.3,4.7h3.8c0.2,0,0.4,0.1,0.5,0.3l1.9,4.6h3.8c0.1,0,0.2,0,0.3,0.1l5.4,3.9l2.8,2.4l2.2-11
						c0-0.2,0.2-0.3,0.3-0.4c0.2-0.1,0.3,0,0.5,0.1l2.8,2.2l3.6-2.1l3.4-8.8c0.1-0.1,0.2-0.3,0.3-0.3c0.2,0,0.3,0,0.4,0.1l5.1,4
						c0.1,0.1,0.1,0.1,0.1,0.2l2.8,6.8l3.2-2l3.4-4.9c0.1-0.2,0.3-0.2,0.5-0.2c0.2,0,0.3,0.2,0.4,0.3l2.4,7.8l3.3,6l1.9-4l2.7-5
						c0.1-0.2,0.3-0.3,0.5-0.3c0.2,0,0.4,0.1,0.4,0.3l9.2,25.1c0,0.1,0,0.1,0,0.2v41.4C203.7,98.6,203.5,98.8,203.3,98.8z
						 M18.3,97.8h184.5V57L194,33l-2.2,4l-2.4,4.9c-0.1,0.2-0.3,0.3-0.4,0.3c-0.2,0-0.4-0.1-0.4-0.3l-3.7-6.9c0,0,0-0.1,0-0.1
						l-2.1-6.9l-2.8,4.1c0,0.1-0.1,0.1-0.1,0.1l-3.8,2.4c-0.1,0.1-0.3,0.1-0.4,0.1c-0.1,0-0.3-0.2-0.3-0.3l-3-7.2l-4.5-3.5l-3.2,8.3
						c0,0.1-0.1,0.2-0.2,0.3l-4.1,2.4c-0.2,0.1-0.4,0.1-0.6,0l-2.4-1.9l-2.2,11c0,0.2-0.2,0.3-0.3,0.4c-0.2,0.1-0.4,0-0.5-0.1
						l-3.4-3l-5.3-3.8h-3.9c-0.2,0-0.4-0.1-0.5-0.3l-1.9-4.6h-3.8c-0.2,0-0.3-0.1-0.4-0.2l-3.4-4.9l-2.6-2l-0.1-0.1l-2.7-3.3
						l-2.6,5.2l-2.4,4.9c0,0,0,0.1-0.1,0.1l-2.4,2.9c-0.1,0.1-0.2,0.2-0.4,0.2c-0.2,0-0.3-0.1-0.4-0.2l-2.7-2.8L111,30l-1.2,6.8
						c0,0.2-0.3,0.4-0.5,0.4l-5.2-0.2l-2.9,3c-0.1,0.1-0.3,0.2-0.5,0.1c-0.2,0-0.3-0.2-0.4-0.3l-1.7-5.4l-0.9-2.1h-1.9l-0.3,8.8
						c0,0.2-0.2,0.4-0.4,0.5l-8.5,2c-0.2,0-0.4,0-0.5-0.2L81,37c0-0.1-0.1-0.1-0.1-0.2L80.3,34l-2.2,8.2c-0.1,0.3-0.3,0.4-0.6,0.4
						c-0.1,0-0.3-0.1-0.3-0.3l-2.3-5.1h-2.3l-1.3,7.4c0,0.2-0.2,0.4-0.4,0.4c-0.2,0-0.4,0-0.5-0.2l-2-2.9l-4.3,5.8
						C64,48,63.8,48.1,63.6,48l-5.4-2l-4.8-0.9L53,47.6c0,0.2-0.2,0.4-0.4,0.4l-3.8,1c-0.1,0-0.3,0-0.4-0.1l-3.8-2.3L42,49.2
						l-0.3,5.6c0,0.2-0.1,0.4-0.3,0.4c-0.2,0.1-0.4,0-0.5-0.1l-3.4-3l-3.1,3c-0.1,0.1-0.2,0.1-0.3,0.2h-8.6l-5.2,6.7l-2.7,9.7
						L18.3,97.8z"/>
				</g>
			</g>
		</g>
	</g>
</g>
</svg>
