<?xml version="1.0" encoding="utf-8"?>
<!-- Generator: Adobe Illustrator 24.1.2, SVG Export Plug-In . SVG Version: 6.00 Build 0)  -->
<svg version="1.1" id="Layer_1" xmlns="http://www.w3.org/2000/svg" xmlns:xlink="http://www.w3.org/1999/xlink" x="0px" y="0px"
	 viewBox="0 0 203.4 127" style="enable-background:new 0 0 203.4 127;" xml:space="preserve">
<style type="text/css">
	.st0{fill:#5B5B5B;}
	.st1{fill:#727272;}
	.st2{fill:#E2E2E2;}
	.st3{clip-path:url(#SVGID_2_);}
	.st4{opacity:0.5;}
	.st5{fill:#D6D6D6;}
	.st6{fill:#FAAF42;}
	.st7{fill:#C6E0F7;}
</style>
<g id="Layer_2_1_">
	<g id="Layer_1-2">
		<g id="Layer_2-2">
			<g id="Layer_1-2-2">
				<path class="st0" d="M78.8,5.4c-0.4-0.5-0.6-1.2-0.6-1.8V0.3h1v2.9c0,0.3,0,0.7,0.1,1c0,0.3,0.2,0.5,0.4,0.6
					c0.5,0.3,1.1,0.3,1.6,0c0.2-0.1,0.3-0.4,0.4-0.6c0.1-0.3,0.1-0.7,0.1-1V0.3h1v3.2c0,0.7-0.2,1.3-0.6,1.8C81.7,5.8,81.1,6,80.5,6
					C79.9,6.1,79.3,5.9,78.8,5.4z"/>
				<path class="st0" d="M84.7,5.9c-0.3-0.1-0.5-0.2-0.8-0.3L84,4.5C84.6,4.8,85.2,5,85.9,5c0.3,0,0.5,0,0.7-0.2
					c0.2-0.1,0.3-0.3,0.2-0.5c0,0,0,0,0,0c0-0.1,0-0.3-0.1-0.4c-0.1-0.1-0.2-0.2-0.4-0.3l-0.8-0.3c-0.3-0.1-0.6-0.2-0.8-0.4
					c-0.2-0.1-0.4-0.3-0.5-0.5C84.1,2.2,84,1.9,84,1.6c0-0.4,0.2-0.9,0.5-1.2c0.4-0.3,1-0.5,1.5-0.4c0.3,0,0.6,0,0.9,0.1
					c0.3,0.1,0.5,0.2,0.8,0.3l-0.1,1l-0.9-0.3c-0.3,0.1-0.6,0.1-0.9,0.1c-0.2,0-0.5,0-0.7,0.1c-0.1,0.1-0.2,0.2-0.2,0.4
					c0,0.1,0,0.3,0.1,0.4c0.1,0.1,0.2,0.2,0.3,0.2c0.2,0.1,0.5,0.1,0.7,0.2c0.5,0.1,1,0.4,1.4,0.7c0.3,0.3,0.5,0.7,0.4,1.1
					c0,0.4-0.2,0.9-0.5,1.2c-0.5,0.4-1.1,0.6-1.7,0.5C85.3,6,85,6,84.7,5.9z"/>
				<path class="st0" d="M88.7,0.3h2.1c0.5,0,1,0.1,1.4,0.3c0.4,0.2,0.8,0.6,1,1c0.2,0.5,0.4,1,0.4,1.5c0,0.5-0.1,1-0.3,1.5
					c-0.2,0.4-0.6,0.8-1,1c-0.4,0.2-0.9,0.3-1.4,0.3h-2.1L88.7,0.3L88.7,0.3z M90.8,5c0.5,0,0.9-0.2,1.2-0.5
					c0.3-0.4,0.4-0.9,0.4-1.4c0-0.5-0.1-1-0.4-1.4c-0.3-0.3-0.7-0.5-1.2-0.5h-1.1V5H90.8z"/>
				<path class="st0" d="M95.7,1.9h1l1,2.8l1-2.8h1l-1.5,4h-0.8L95.7,1.9z"/>
				<path class="st0" d="M100.5,5.9c-0.2-0.1-0.5-0.1-0.7-0.2l0.1-0.8c0.2,0.2,0.4,0.3,0.7,0.3c0.2,0.1,0.4,0.1,0.6,0.1
					c0.4,0,0.6-0.1,0.6-0.4c0-0.1-0.1-0.3-0.2-0.3L101,4.3c-0.3-0.1-0.6-0.3-0.9-0.5c-0.2-0.2-0.3-0.5-0.3-0.8
					c0-0.3,0.1-0.6,0.4-0.8c0.3-0.2,0.7-0.3,1.1-0.3c0.4,0,0.8,0.1,1.2,0.3L102.4,3l-0.6-0.3c-0.2-0.1-0.4-0.1-0.6-0.1
					c-0.1,0-0.3,0-0.4,0.1c-0.1,0.1-0.1,0.2-0.1,0.3c0,0.1,0,0.2,0.1,0.3l0.2,0.2l0.5,0.2c0.3,0.1,0.6,0.3,0.8,0.5
					c0.4,0.4,0.4,1.1,0,1.5c0,0,0,0-0.1,0.1c-0.4,0.2-0.8,0.3-1.2,0.3C101,6,100.7,6,100.5,5.9z"/>
				<path class="st0" d="M106.4,5h2.6v0.9h-4.2l2.7-4.7h-2.3V0.3h3.9L106.4,5z"/>
				<path class="st0" d="M112.7,4.6h-2l-0.5,1.3h-1l2-5.6h1l2,5.6h-1L112.7,4.6z M112.3,3.7l-0.7-2l-0.7,2H112.3z"/>
				<path class="st0" d="M114.8,0.3h2c0.5,0,1,0.1,1.4,0.4c0.4,0.3,0.6,0.8,0.5,1.3c0,0.3-0.1,0.7-0.2,1c-0.2,0.3-0.4,0.5-0.7,0.6
					l1.3,2.3h-1.2l-1.1-2.1h-1v2.1h-1L114.8,0.3z M116.5,3c0.8,0,1.1-0.3,1.1-0.9c0-0.3-0.1-0.5-0.3-0.7c-0.1-0.2-0.4-0.2-0.7-0.2
					h-0.8V3H116.5z"/>
				<path class="st1" d="M38.2,120h3v0.6h-2.3v1.4h1.8v0.6h-1.8v2.3h-0.7V120z"/>
				<path class="st1" d="M41.8,120h3v0.6h-2.3v1.4h1.8v0.6h-1.8v1.7h2.4v0.6h-3V120H41.8z"/>
				<path class="st1" d="M48.9,122.7c0.2,0.2,0.3,0.5,0.2,0.8c0,0.4-0.1,0.7-0.4,1c-0.3,0.3-0.8,0.4-1.2,0.4h-1.8V120h1.5
					c0.4,0,0.7,0.1,1,0.3c0.3,0.2,0.4,0.6,0.4,0.9c0,0.2,0,0.4-0.1,0.6c-0.1,0.2-0.2,0.3-0.4,0.4C48.4,122.3,48.7,122.5,48.9,122.7z
					 M46.4,122.1h0.8c0.2,0,0.4,0,0.6-0.2c0.3-0.4,0.3-0.8,0-1.2c-0.2-0.1-0.4-0.2-0.6-0.2h-0.8V122.1z M48.1,124.1
					c0.2-0.2,0.3-0.4,0.2-0.6c0-0.6-0.3-0.8-0.9-0.8h-1.1v1.7h1.1C47.7,124.3,48,124.3,48.1,124.1z"/>
				<path class="st1" d="M52.6,122.9c0.2-0.3,0.4-0.6,0.5-0.9c0.1-0.2,0.2-0.5,0.2-0.7c0.1-0.4-0.2-0.7-0.6-0.8c-0.1,0-0.1,0-0.2,0
					c-0.5,0-0.9,0.2-1.2,0.6l-0.1-0.7c0.2-0.1,0.4-0.3,0.6-0.3c0.2-0.1,0.5-0.1,0.7-0.1c0.7,0,1.3,0.5,1.4,1.2v0.2
					c0,0.3-0.1,0.6-0.2,0.9c-0.2,0.4-0.4,0.7-0.6,1.1l-0.7,1.1h1.7v0.6h-2.9L52.6,122.9z"/>
				<path class="st1" d="M55.9,124.7c-0.3-0.2-0.6-0.5-0.7-0.9c-0.2-0.4-0.3-0.8-0.3-1.3c0-0.5,0.1-0.9,0.3-1.3
					c0.4-1,1.5-1.5,2.5-1.1c0.2,0.1,0.3,0.1,0.4,0.2c0.3,0.2,0.6,0.5,0.7,0.9c0.2,0.4,0.3,0.8,0.3,1.3c0,0.4-0.1,0.9-0.2,1.3
					c-0.1,0.4-0.4,0.7-0.7,0.9c-0.3,0.2-0.7,0.3-1.1,0.3C56.7,125.1,56.3,124.9,55.9,124.7z M58,123.9c0.3-0.4,0.4-1,0.4-1.5
					c0-0.5-0.1-1-0.4-1.4c-0.4-0.6-1.2-0.7-1.8-0.3c-0.1,0.1-0.2,0.2-0.3,0.3c-0.3,0.4-0.4,0.9-0.4,1.4c0,0.5,0.1,1,0.3,1.5
					c0.2,0.3,0.6,0.5,1,0.5C57.4,124.4,57.8,124.3,58,123.9z"/>
				<path class="st1" d="M61.2,122.9c0.2-0.3,0.4-0.6,0.5-0.9c0.1-0.2,0.2-0.5,0.2-0.7c0-0.2-0.1-0.4-0.2-0.6
					c-0.2-0.1-0.4-0.2-0.6-0.2c-0.5,0-0.9,0.2-1.2,0.6l-0.1-0.7c0.2-0.1,0.4-0.3,0.6-0.3c0.2-0.1,0.5-0.1,0.7-0.1
					c0.7-0.1,1.3,0.4,1.4,1.1c0,0,0,0,0,0v0.2c0,0.3-0.1,0.6-0.2,0.9c-0.2,0.4-0.4,0.7-0.6,1.1l-0.8,1.1h1.7v0.6h-2.9L61.2,122.9z"
					/>
				<path class="st1" d="M64.4,124.7c-0.3-0.2-0.6-0.5-0.7-0.9c-0.2-0.4-0.3-0.8-0.3-1.3c0-0.5,0.1-0.9,0.3-1.3
					c0.1-0.4,0.4-0.7,0.7-0.9c0.3-0.2,0.7-0.3,1.1-0.3c0.4,0,0.7,0.1,1,0.3c0.3,0.2,0.6,0.5,0.7,0.9c0.2,0.4,0.3,0.8,0.3,1.3
					c0,0.5-0.1,0.9-0.3,1.3c-0.1,0.4-0.4,0.7-0.7,0.9C65.9,125.1,65,125.1,64.4,124.7z M66.6,123.9c0.3-0.4,0.4-1,0.3-1.5
					c0-0.5-0.1-1-0.4-1.4c-0.4-0.6-1.2-0.7-1.8-0.3c-0.1,0.1-0.2,0.2-0.3,0.3c-0.3,0.4-0.4,0.9-0.4,1.4c0,0.5,0.1,1,0.4,1.5
					c0.2,0.3,0.6,0.5,1,0.5C65.9,124.5,66.4,124.3,66.6,123.9z"/>
				<path class="st1" d="M98.6,124.9l-0.5-3.7l-1.3,2.6l-1.4-2.6l-0.5,3.7h-0.7l0.7-4.9h0.6l1.3,2.4l1.3-2.4h0.6l0.7,4.9H98.6z"/>
				<path class="st1" d="M102.7,123.6h-1.9l-0.5,1.3h-0.7l1.8-4.9h0.7l1.8,4.9h-0.7L102.7,123.6z M102.5,123l-0.7-2l-0.7,2H102.5z"
					/>
				<path class="st1" d="M104.5,120h1.6c0.5,0,0.9,0.1,1.3,0.4c0.3,0.3,0.5,0.7,0.4,1.1c0,0.6-0.3,1.2-0.9,1.4l1.1,2h-0.8l-1-1.9h-1
					v1.9h-0.7V120z M106.1,122.4c0.3,0,0.5-0.1,0.8-0.2c0.2-0.2,0.3-0.4,0.3-0.7c0-0.3-0.1-0.5-0.3-0.7c-0.2-0.2-0.5-0.3-0.8-0.2
					h-0.9v1.8L106.1,122.4z"/>
				<path class="st1" d="M111.4,122.9c0.2-0.3,0.4-0.6,0.5-0.9c0.1-0.2,0.2-0.5,0.2-0.7c0-0.2-0.1-0.4-0.2-0.6
					c-0.2-0.1-0.4-0.2-0.6-0.2c-0.5,0-0.9,0.2-1.2,0.6l-0.1-0.7c0.2-0.1,0.4-0.3,0.6-0.3c0.2-0.1,0.5-0.1,0.7-0.1
					c0.8,0,1.4,0.6,1.4,1.3c0,0,0,0,0,0.1c0,0.3-0.1,0.6-0.2,0.9c-0.2,0.4-0.4,0.7-0.6,1.1l-0.8,1.1h1.7v0.6h-2.9L111.4,122.9z"/>
				<path class="st1" d="M114.7,124.7c-0.3-0.2-0.6-0.5-0.7-0.9c-0.2-0.4-0.3-0.8-0.3-1.3c0-0.5,0.1-0.9,0.3-1.3
					c0.1-0.4,0.4-0.7,0.7-0.9c0.7-0.4,1.5-0.4,2.2,0c0.3,0.2,0.6,0.5,0.7,0.9c0.2,0.4,0.3,0.8,0.3,1.3c0,0.5-0.1,0.9-0.3,1.3
					c-0.1,0.4-0.4,0.7-0.7,0.9C116.2,125.1,115.4,125.1,114.7,124.7z M116.8,123.9c0.3-0.4,0.4-1,0.3-1.5c0-0.5-0.1-1-0.4-1.4
					c-0.4-0.6-1.2-0.7-1.8-0.3c-0.1,0.1-0.2,0.2-0.3,0.3c-0.3,0.4-0.4,0.9-0.4,1.4c0,0.5,0.1,1,0.4,1.5c0.2,0.3,0.6,0.5,1,0.5
					C116.2,124.4,116.6,124.3,116.8,123.9z"/>
				<path class="st1" d="M120,122.9c0.2-0.3,0.4-0.6,0.5-0.9c0.1-0.2,0.2-0.5,0.2-0.7c-0.1-0.6-0.7-0.9-1.3-0.8
					c-0.3,0.1-0.6,0.3-0.7,0.6l-0.1-0.7c0.2-0.1,0.4-0.3,0.6-0.3c0.2-0.1,0.5-0.1,0.7-0.1c0.4,0,0.7,0.1,1,0.4
					c0.2,0.3,0.4,0.6,0.3,1c0,0.3-0.1,0.6-0.2,0.9c-0.2,0.3-0.4,0.7-0.6,1l-0.7,1.1h1.7v0.6h-2.9L120,122.9z"/>
				<path class="st1" d="M123.3,124.7c-0.3-0.2-0.6-0.5-0.7-0.9c-0.2-0.4-0.3-0.8-0.3-1.3c0-0.5,0.1-0.9,0.3-1.3
					c0.4-1,1.5-1.5,2.5-1.1c0.2,0.1,0.3,0.1,0.4,0.2c0.3,0.2,0.6,0.5,0.7,0.9c0.2,0.4,0.3,0.8,0.3,1.3c0,0.4-0.1,0.9-0.2,1.3
					c-0.1,0.4-0.4,0.7-0.7,0.9C124.9,125.1,124,125.1,123.3,124.7z M125.4,123.9c0.3-0.4,0.4-1,0.3-1.5c0-0.5-0.1-1-0.4-1.4
					c-0.4-0.6-1.2-0.7-1.8-0.3c-0.1,0.1-0.2,0.2-0.3,0.3c-0.3,0.4-0.4,0.9-0.4,1.4c0,0.5,0.1,1,0.3,1.5c0.2,0.3,0.6,0.5,1,0.5
					C124.8,124.4,125.2,124.3,125.4,123.9z"/>
				<path class="st1" d="M154.9,123.6H153l-0.5,1.3h-0.7l1.8-4.9h0.7l1.8,4.9h-0.7L154.9,123.6z M154.7,123l-0.7-2l-0.7,2H154.7z"/>
				<path class="st1" d="M156.7,120h1.6c0.4,0,0.9,0.1,1.2,0.4c0.6,0.7,0.6,1.7,0,2.4c-0.3,0.3-0.8,0.4-1.2,0.4h-0.9v1.7h-0.7
					L156.7,120L156.7,120z M158.2,122.6c0.5,0.1,1-0.3,1.1-0.9c0-0.1,0-0.1,0-0.2c0-0.3-0.1-0.6-0.3-0.8c-0.2-0.2-0.5-0.3-0.8-0.3
					h-0.8v2h0.8V122.6z"/>
				<path class="st1" d="M160.7,120h1.6c0.5,0,0.9,0.1,1.3,0.4c0.6,0.6,0.6,1.6,0,2.2c-0.1,0.1-0.2,0.2-0.4,0.3l1.1,2h-0.8l-1-1.9
					h-1v1.9h-0.7L160.7,120z M162.3,122.4c0.3,0,0.5-0.1,0.8-0.2c0.2-0.2,0.3-0.4,0.3-0.7c0-0.3-0.1-0.5-0.3-0.7
					c-0.2-0.2-0.5-0.3-0.8-0.2h-0.9v1.8L162.3,122.4z"/>
				<path class="st1" d="M167.7,122.9c0.2-0.3,0.4-0.6,0.5-0.9c0.1-0.2,0.2-0.5,0.2-0.7c-0.1-0.6-0.7-0.9-1.3-0.8
					c-0.3,0.1-0.6,0.3-0.7,0.6l-0.1-0.7c0.2-0.1,0.4-0.3,0.6-0.3c0.2-0.1,0.5-0.1,0.7-0.1c0.4,0,0.7,0.1,1,0.4
					c0.2,0.3,0.4,0.6,0.4,1c0,0.3-0.1,0.6-0.2,0.9c-0.2,0.4-0.4,0.7-0.6,1.1l-0.7,1.1h1.7v0.6h-2.9L167.7,122.9z"/>
				<path class="st1" d="M170.9,124.7c-0.3-0.2-0.6-0.5-0.7-0.9c-0.2-0.4-0.3-0.8-0.3-1.3c0-0.5,0.1-0.9,0.3-1.3
					c0.1-0.4,0.4-0.7,0.7-0.9c0.6-0.4,1.5-0.4,2.1,0c0.3,0.2,0.6,0.5,0.7,0.9c0.2,0.4,0.3,0.8,0.3,1.3c0,0.4-0.1,0.9-0.2,1.3
					c-0.1,0.4-0.4,0.7-0.7,0.9c-0.3,0.2-0.7,0.3-1.1,0.3C171.6,125,171.2,124.9,170.9,124.7z M173.1,123.9c0.3-0.4,0.4-1,0.4-1.5
					c0-0.5-0.1-1-0.4-1.4c-0.4-0.6-1.2-0.7-1.8-0.3c-0.1,0.1-0.2,0.2-0.3,0.3c-0.3,0.4-0.4,0.9-0.4,1.4c0,0.5,0.1,1,0.4,1.5
					c0.2,0.3,0.6,0.5,1,0.5C172.5,124.4,172.9,124.2,173.1,123.9z"/>
				<path class="st1" d="M176.2,122.9c0.2-0.3,0.4-0.6,0.5-0.9c0.1-0.2,0.2-0.5,0.2-0.7c0-0.2-0.1-0.4-0.2-0.6
					c-0.2-0.1-0.4-0.2-0.6-0.2c-0.5,0-0.9,0.2-1.2,0.6l-0.1-0.7c0.2-0.1,0.4-0.3,0.6-0.3c0.2-0.1,0.5-0.1,0.7-0.1
					c0.7,0,1.3,0.5,1.4,1.2v0.2c0,0.3-0.1,0.6-0.2,0.9c-0.2,0.4-0.4,0.7-0.6,1.1l-0.7,1.1h1.7v0.6h-2.9L176.2,122.9z"/>
				<path class="st1" d="M179.5,124.7c-0.3-0.2-0.6-0.5-0.7-0.9c-0.2-0.4-0.2-0.9-0.2-1.3c0-0.5,0.1-0.9,0.3-1.3
					c0.1-0.4,0.4-0.7,0.7-0.9c0.7-0.4,1.5-0.4,2.2,0c0.3,0.2,0.6,0.5,0.7,0.9c0.2,0.4,0.3,0.8,0.3,1.3c0,0.5-0.1,0.9-0.3,1.3
					c-0.1,0.4-0.4,0.7-0.7,0.9c-0.3,0.2-0.7,0.3-1.1,0.3C180.3,125.1,179.9,124.9,179.5,124.7z M181.6,123.9c0.3-0.4,0.4-1,0.4-1.5
					c0-0.5-0.1-1-0.4-1.4c-0.4-0.6-1.2-0.7-1.8-0.3c-0.1,0.1-0.2,0.2-0.3,0.3c-0.3,0.4-0.4,0.9-0.4,1.4c0,0.5,0.1,1,0.4,1.5
					c0.4,0.6,1.2,0.7,1.8,0.3C181.4,124.1,181.5,124,181.6,123.9z"/>
				<rect x="21.7" y="16.9" class="st2" width="0.5" height="97"/>
				<rect x="15.3" y="36.1" class="st2" width="183.7" height="0.5"/>
				<rect x="15.3" y="55.4" class="st2" width="183.7" height="0.5"/>
				<rect x="15.3" y="74.7" class="st2" width="183.7" height="0.5"/>
				<rect x="15.3" y="113.3" class="st2" width="183.7" height="0.5"/>
				<rect x="15.3" y="94" class="st2" width="183.7" height="0.5"/>
				<path class="st1" d="M2.7,111.6c-0.2,0.1-0.3,0.2-0.5,0.3C2.1,112,2,112,1.8,112.1l-0.1-0.7c0.3-0.1,0.5-0.2,0.7-0.4
					c0.2-0.1,0.4-0.3,0.5-0.5h0.5v5.6H2.7V111.6z"/>
				<path class="st1" d="M8.2,113.7c0.2,0.3,0.2,0.6,0.2,0.9c0,0.3-0.1,0.6-0.2,0.9c-0.2,0.3-0.4,0.5-0.7,0.6
					c-0.3,0.1-0.7,0.2-1,0.2c-0.3,0-0.7-0.1-1-0.2c-0.3-0.1-0.5-0.3-0.7-0.6c-0.2-0.3-0.2-0.6-0.2-0.9c0-0.3,0.1-0.6,0.2-0.9
					c0.1-0.3,0.3-0.5,0.6-0.6c-0.4-0.2-0.6-0.7-0.6-1.1c0-0.2,0.1-0.5,0.2-0.7c0.1-0.2,0.4-0.5,0.6-0.6c0.3-0.2,0.6-0.2,0.9-0.2
					c0.3,0,0.6,0.1,0.9,0.2c0.2,0.1,0.4,0.3,0.5,0.6c0.1,0.2,0.2,0.5,0.2,0.7c0,0.5-0.2,0.9-0.6,1.1C7.8,113.2,8.1,113.4,8.2,113.7z
					 M7.3,115.3c0.4-0.4,0.4-1.2,0-1.6c-0.4-0.4-1.2-0.4-1.6,0s-0.4,1.2,0,1.6S6.9,115.8,7.3,115.3z M5.8,111.3
					c-0.2,0.2-0.3,0.4-0.2,0.6c0,0.2,0.1,0.4,0.3,0.6c0.2,0.2,0.4,0.3,0.7,0.2c0.2,0,0.5-0.1,0.7-0.2c0.2-0.2,0.2-0.4,0.2-0.6
					c0-0.2-0.1-0.4-0.2-0.6c-0.2-0.2-0.4-0.2-0.7-0.2C6.3,111.1,6,111.2,5.8,111.3z"/>
				<path class="st1" d="M9.3,115.3h0.9v0.8H9.3V115.3z"/>
				<path class="st1" d="M11.7,111.6c-0.2,0.1-0.3,0.2-0.5,0.3c-0.1,0.1-0.2,0.1-0.4,0.2l-0.1-0.7c0.3-0.1,0.5-0.2,0.7-0.4
					c0.2-0.1,0.4-0.3,0.5-0.5h0.5v5.6h-0.7V111.6z"/>
				<path class="st1" d="M1,92.3c-0.2,0.1-0.3,0.2-0.5,0.3c-0.1,0.1-0.2,0.1-0.4,0.2L0,92.1c0.2-0.1,0.5-0.2,0.7-0.3
					c0.2-0.1,0.4-0.3,0.5-0.5h0.5v5.6H1V92.3z"/>
				<path class="st1" d="M6.5,94.4c0.3,0.6,0.3,1.2,0,1.8c-0.2,0.3-0.4,0.5-0.7,0.6c-0.3,0.1-0.7,0.2-1,0.2c-0.3,0-0.7-0.1-1-0.2
					c-0.3-0.1-0.5-0.3-0.7-0.6c-0.3-0.6-0.3-1.2,0-1.8c0.1-0.3,0.3-0.5,0.6-0.6c-0.2-0.1-0.3-0.3-0.4-0.5c-0.1-0.2-0.2-0.4-0.2-0.6
					c0-0.2,0.1-0.5,0.2-0.7c0.1-0.2,0.4-0.5,0.6-0.6c0.3-0.2,0.7-0.2,1-0.2c0.3,0,0.6,0.1,0.9,0.2C6,91.6,6.3,91.8,6.4,92
					c0.1,0.2,0.2,0.5,0.2,0.7c0,0.2-0.1,0.5-0.2,0.7c-0.1,0.2-0.2,0.4-0.4,0.5C6.2,93.9,6.4,94.1,6.5,94.4z M5.6,96
					c0.2-0.2,0.4-0.5,0.3-0.8c0-0.3-0.1-0.6-0.3-0.8c-0.2-0.2-0.5-0.3-0.8-0.3c-0.3,0-0.6,0.1-0.8,0.3c-0.4,0.5-0.4,1.1,0,1.6
					c0.2,0.2,0.5,0.2,0.8,0.2C5.1,96.2,5.4,96.2,5.6,96z M4.1,92C3.8,92.2,3.7,92.7,4,93c0,0.1,0.1,0.1,0.1,0.1
					c0.2,0.2,0.4,0.3,0.7,0.2c0.3,0,0.5,0,0.7-0.2c0.3-0.3,0.3-0.9,0-1.2c-0.2-0.2-0.4-0.2-0.7-0.2C4.6,91.8,4.3,91.9,4.1,92z"/>
				<path class="st1" d="M7.6,96h0.9v0.8H7.6V96z"/>
				<path class="st1" d="M10.9,94.5c0.2-0.3,0.4-0.7,0.6-1c0.3-0.4,0.3-1,0-1.4c-0.2-0.2-0.4-0.3-0.6-0.3c-0.5,0-1,0.2-1.4,0.6
					l-0.1-0.8c0.2-0.2,0.4-0.3,0.7-0.4c0.3-0.1,0.5-0.2,0.8-0.2c0.8-0.1,1.5,0.5,1.6,1.3v0.2c0,0.3-0.1,0.7-0.2,1
					c-0.2,0.4-0.4,0.8-0.7,1.2l-0.9,1.5h2v0.7H9.3L10.9,94.5z"/>
				<path class="st1" d="M0.9,73c-0.2,0.1-0.3,0.2-0.5,0.3c-0.1,0.1-0.2,0.1-0.4,0.2l-0.1-0.7c0.2-0.1,0.5-0.2,0.7-0.3
					C0.8,72.4,1,72.2,1.1,72h0.5v5.6H0.9V73z"/>
				<path class="st1" d="M6.4,75c0.3,0.6,0.3,1.2,0,1.8c-0.2,0.3-0.4,0.5-0.7,0.6c-0.3,0.1-0.7,0.2-1,0.2c-0.3,0-0.7-0.1-1-0.2
					c-0.3-0.1-0.5-0.3-0.7-0.6c-0.2-0.3-0.2-0.6-0.2-0.9c0-0.3,0.1-0.6,0.2-0.9c0.1-0.3,0.3-0.5,0.6-0.6c-0.2-0.1-0.3-0.3-0.4-0.5
					C3.1,73.7,3,73.5,3,73.3c0-0.2,0.1-0.5,0.2-0.7c0.1-0.2,0.4-0.5,0.6-0.6c0.3-0.1,0.6-0.2,0.9-0.2c0.3,0,0.6,0.1,0.9,0.2
					c0.2,0.1,0.4,0.3,0.5,0.6c0.1,0.2,0.2,0.5,0.2,0.7c0,0.2,0,0.5-0.1,0.7c-0.1,0.2-0.2,0.4-0.4,0.5C6.1,74.6,6.2,74.8,6.4,75z
					 M5.5,76.7c0.4-0.5,0.4-1.1,0-1.6c-0.2-0.2-0.5-0.3-0.8-0.3c-0.3,0-0.6,0.1-0.9,0.3c-0.4,0.5-0.4,1.1,0,1.6
					C4,76.9,4.4,77,4.7,77C5,77,5.3,76.9,5.5,76.7L5.5,76.7z M4,72.7c-0.3,0.3-0.3,0.9,0,1.2l0,0c0.2,0.2,0.4,0.3,0.7,0.2
					c0.2,0,0.5-0.1,0.7-0.2c0.2-0.2,0.2-0.4,0.2-0.6c0-0.2-0.1-0.4-0.2-0.6c-0.2-0.2-0.4-0.2-0.7-0.2C4.4,72.5,4.2,72.5,4,72.7z"/>
				<path class="st1" d="M7.5,76.7h0.9v0.8H7.5V76.7z"/>
				<path class="st1" d="M12.6,76c0,0.3-0.1,0.6-0.3,0.9c-0.2,0.3-0.4,0.5-0.7,0.6c-0.3,0.1-0.7,0.2-1,0.2c-0.6,0-1.1-0.2-1.6-0.4
					l0.2-0.7c0.2,0.1,0.5,0.2,0.7,0.3c0.2,0.1,0.5,0.1,0.7,0.1c0.3,0,0.6-0.1,0.8-0.3c0.2-0.2,0.3-0.4,0.3-0.7
					c0-0.3-0.1-0.6-0.3-0.8c-0.3-0.2-0.6-0.3-1-0.3H10v-0.7h0.4c0.3,0,0.6-0.1,0.8-0.3c0.2-0.2,0.3-0.4,0.3-0.7
					c0-0.2-0.1-0.5-0.2-0.7c-0.2-0.2-0.4-0.2-0.7-0.2c-0.2,0-0.4,0-0.6,0.1l-0.6,0.3l-0.1-0.5c0.4-0.2,0.9-0.4,1.4-0.4
					c0.4,0,0.9,0.1,1.2,0.4c0.3,0.3,0.4,0.7,0.4,1.1c0,0.3-0.1,0.6-0.2,0.8c-0.2,0.2-0.4,0.4-0.6,0.5C12.2,74.7,12.6,75.3,12.6,76z"
					/>
				<path class="st1" d="M0.6,53.7C0.4,53.9,0.3,54,0.1,54c-0.1,0.1-0.2,0.2-0.4,0.2l-0.1-0.7c0.3-0.1,0.5-0.2,0.7-0.4
					c0.2-0.1,0.4-0.3,0.5-0.5h0.5v5.6H0.6V53.7z"/>
				<path class="st1" d="M6.1,55.7c0.3,0.6,0.3,1.2,0,1.8c-0.2,0.3-0.4,0.5-0.7,0.6c-0.3,0.2-0.7,0.2-1,0.2c-0.3,0-0.7-0.1-1-0.2
					c-0.3-0.1-0.5-0.3-0.7-0.6c-0.3-0.6-0.3-1.2,0-1.8c0.1-0.3,0.3-0.5,0.6-0.6C3.1,55,3,54.8,2.9,54.6c-0.1-0.2-0.2-0.4-0.2-0.6
					c0-0.2,0.1-0.5,0.2-0.7c0.1-0.2,0.4-0.5,0.6-0.6c0.3-0.1,0.6-0.2,0.9-0.2c0.3,0,0.6,0.1,0.9,0.2c0.2,0.1,0.4,0.3,0.5,0.6
					C5.9,53.5,6,53.8,6,54c0,0.2-0.1,0.5-0.2,0.7c-0.1,0.2-0.2,0.4-0.4,0.5C5.7,55.3,6,55.5,6.1,55.7z M5.2,57.4
					c0.4-0.5,0.4-1.1,0-1.6c-0.2-0.2-0.5-0.3-0.8-0.3c-0.3,0-0.6,0.1-0.8,0.3c-0.4,0.5-0.4,1.1,0,1.6c0.2,0.2,0.5,0.3,0.8,0.3
					C4.7,57.7,5,57.6,5.2,57.4z M3.7,53.4c-0.3,0.2-0.4,0.7-0.2,1c0,0.1,0.1,0.1,0.2,0.2c0.2,0.2,0.4,0.3,0.7,0.2
					c0.2,0,0.5-0.1,0.7-0.2c0.3-0.3,0.3-0.9,0-1.2c-0.2-0.1-0.5-0.2-0.7-0.2C4.2,53.2,3.9,53.3,3.7,53.4z"/>
				<path class="st1" d="M7.2,57.4H8v0.8H7.2V57.4z"/>
				<path class="st1" d="M12.9,56.1v0.7h-0.7v1.4h-0.8v-1.4H8.6l3-4.2h0.6v3.5H12.9z M11.4,56.1V54l-1.5,2.1L11.4,56.1z"/>
				<path class="st1" d="M0.9,33.4c-0.2,0.1-0.3,0.2-0.5,0.3c-0.1,0.1-0.2,0.1-0.4,0.2l-0.1-0.7c0.3-0.1,0.5-0.2,0.7-0.4
					c0.2-0.1,0.4-0.3,0.5-0.5h0.5v5.6H0.9V33.4z"/>
				<path class="st1" d="M6.4,35.5c0.3,0.6,0.3,1.2,0,1.8c-0.2,0.3-0.4,0.5-0.7,0.6c-0.3,0.2-0.7,0.2-1,0.2c-0.3,0-0.7-0.1-1-0.2
					c-0.3-0.2-0.5-0.4-0.7-0.7c-0.2-0.3-0.2-0.6-0.2-0.9c0-0.3,0.1-0.6,0.2-0.9c0.1-0.3,0.3-0.5,0.6-0.6c-0.2-0.1-0.3-0.3-0.4-0.5
					C3.1,34.2,3,33.9,3,33.7c0-0.2,0.1-0.5,0.2-0.7c0.1-0.2,0.4-0.5,0.6-0.6c0.3-0.1,0.6-0.2,0.9-0.2c0.3,0,0.6,0.1,0.9,0.2
					C5.8,32.6,6,32.8,6.1,33c0.1,0.2,0.2,0.5,0.2,0.7c0,0.2,0,0.4-0.1,0.6c-0.1,0.2-0.2,0.4-0.4,0.5C6,35,6.2,35.3,6.4,35.5z
					 M5.5,37.1c0.2-0.2,0.3-0.4,0.3-0.7c0-0.3-0.1-0.6-0.3-0.8c-0.2-0.3-0.5-0.4-0.8-0.4c-0.3,0-0.6,0.1-0.9,0.3
					c-0.2,0.2-0.3,0.5-0.3,0.8c0,0.3,0.1,0.5,0.3,0.7c0.2,0.2,0.6,0.3,0.9,0.3C5,37.4,5.3,37.3,5.5,37.1z M4,33.1
					c-0.3,0.3-0.3,0.9,0,1.2l0,0c0.2,0.2,0.4,0.3,0.7,0.2c0.2,0,0.5-0.1,0.7-0.2c0.3-0.3,0.3-0.9,0-1.2C5.2,33,5,32.9,4.7,32.9
					C4.5,32.9,4.2,33,4,33.1z"/>
				<path class="st1" d="M7.5,37.1h0.9v0.8H7.5V37.1z"/>
				<path class="st1" d="M11.8,34.6c0.3,0.1,0.5,0.3,0.6,0.6c0.2,0.3,0.2,0.6,0.2,0.9c0,0.7-0.4,1.3-1,1.6c-0.3,0.2-0.7,0.2-1,0.2
					c-0.3,0-0.5,0-0.8-0.1c-0.2-0.1-0.5-0.2-0.7-0.3l0.2-0.7l0.6,0.3c0.2,0.1,0.5,0.1,0.7,0.1c0.3,0,0.6-0.1,0.9-0.3
					c0.2-0.2,0.4-0.5,0.3-0.8c0-0.3-0.1-0.7-0.4-0.9c-0.3-0.2-0.6-0.3-0.9-0.3c-0.4,0-0.7,0.1-1.1,0.2l0.3-2.8h2.6V33h-2l-0.2,1.4
					h0.6C11.1,34.4,11.5,34.5,11.8,34.6z"/>
				<rect x="15.3" y="16.6" class="st2" width="183.7" height="0.5"/>
				<path class="st1" d="M0.9,14c-0.2,0.1-0.3,0.2-0.5,0.3c-0.1,0.1-0.2,0.1-0.4,0.2l-0.1-0.7c0.3-0.1,0.5-0.2,0.7-0.4
					c0.2-0.2,0.4-0.3,0.5-0.5h0.5v5.6H0.9V14z"/>
				<path class="st1" d="M6.4,16c0.3,0.6,0.3,1.2,0,1.8C6.2,18,6,18.2,5.7,18.4c-0.3,0.2-0.7,0.2-1,0.2c-0.3,0-0.7-0.1-1-0.2
					C3.4,18.2,3.2,18,3,17.8c-0.2-0.3-0.2-0.6-0.2-0.9c0-0.3,0.1-0.6,0.2-0.9c0.1-0.3,0.3-0.5,0.6-0.6c-0.3-0.3-0.5-0.7-0.6-1.1
					c0-0.2,0.1-0.5,0.2-0.7c0.1-0.2,0.4-0.5,0.6-0.6c0.3-0.2,0.6-0.2,0.9-0.2c0.3,0,0.6,0.1,0.9,0.2c0.2,0.1,0.4,0.3,0.5,0.6
					c0.1,0.2,0.2,0.5,0.2,0.7c0,0.2,0,0.4-0.1,0.6c-0.1,0.2-0.2,0.4-0.4,0.5C6.1,15.5,6.3,15.7,6.4,16z M5.5,17.6
					c0.2-0.2,0.3-0.4,0.3-0.7c0-0.3-0.1-0.6-0.3-0.8c-0.2-0.2-0.5-0.3-0.8-0.3c-0.3,0-0.6,0.1-0.9,0.3c-0.2,0.2-0.3,0.5-0.3,0.8
					c0,0.3,0.1,0.5,0.3,0.7c0.2,0.2,0.6,0.3,0.9,0.3C5,17.9,5.3,17.8,5.5,17.6L5.5,17.6z M4,13.7c-0.2,0.2-0.3,0.4-0.2,0.6
					c0,0.2,0.1,0.4,0.3,0.6c0.2,0.2,0.4,0.3,0.7,0.2c0.2,0,0.5-0.1,0.7-0.2c0.2-0.2,0.2-0.4,0.2-0.6c0-0.2-0.1-0.4-0.2-0.6
					c-0.2-0.2-0.4-0.2-0.7-0.2C4.5,13.4,4.2,13.5,4,13.7L4,13.7z"/>
				<path class="st1" d="M7.5,17.6h0.9v0.9H7.5V17.6z"/>
				<path class="st1" d="M11.8,15.2c0.3,0.1,0.5,0.3,0.6,0.6c0.2,0.3,0.2,0.6,0.2,0.9c0,0.7-0.4,1.3-1,1.6c-0.3,0.2-0.7,0.2-1,0.2
					c-0.3,0-0.5,0-0.8-0.1c-0.2-0.1-0.5-0.2-0.7-0.3l0.2-0.7l0.6,0.3c0.2,0.1,0.5,0.1,0.7,0.1c0.3,0,0.6-0.1,0.9-0.3
					c0.2-0.2,0.3-0.5,0.3-0.8c0-0.3-0.1-0.7-0.4-0.9c-0.3-0.2-0.6-0.3-0.9-0.3c-0.4,0-0.7,0.1-1.1,0.2l0.3-2.8h2.6v0.7h-2L10.1,15
					h0.6C11.1,15,11.5,15.1,11.8,15.2z"/>
				<g>
					<defs>
						<polygon id="SVGID_1_" points="198.9,113.5 21.9,113.5 21.9,17.3 198.9,16.9 						"/>
					</defs>
					<clipPath id="SVGID_2_">
						<use xlink:href="#SVGID_1_"  style="overflow:visible;"/>
					</clipPath>
					<g class="st3">
						<g class="st4">
							<path class="st5" d="M-190.7,131.7c9.4-26.8,15.7-50.3,21.7-43.1s6.8,7.8,13.1-3.2s7.1,0.9,8.5,8.7s8.5-9.6,11-16.4
								s5.3,4.6,7.1,9.6c1.8,5,2.8,0.4,5-5.9s3.2,1.4,4.6,6.8s3.9-1.9,5.2-4.7s5,3.8,5.6,4.8s1.1,0,2.4-3.8s2.9-6.2,6.4-0.7
								s5.6,6.5,7.7-6.2s4.3,2.4,5.3,6.5s3.2,13.7,7.5,0.3s4.6-12.8,6-9.2s4.2,9,7,2.1s2.7-4.1,3-1.8s0.4,8.2,3,8s2.5-1.6,5.2-7.3
								s10.7-53.8,12.8-42.8s2.1,15,3.5,22.3s4.3-5,5-10.9s2.8,3.2,5.7,9.6s5,7.7,7.1,0.9s3.5,6.4,4.6,10.5s10.6,65.8,10.6,65.8
								L-190.7,131.7z"/>
						</g>
						<path class="st6" d="M-5.4,132.2h-186l0.2-0.7c1.5-4.4,3-8.7,4.4-12.8c6.1-18,10.5-31,15-31.8c1.2-0.2,2.5,0.4,3.1,1.5
							c2.8,3.3,4.4,5.2,5.8,5.1c1.6-0.1,3.4-2.8,6.5-8.2c2-3.4,3.6-4.9,5-4.6c2.3,0.4,3.1,5.3,3.9,10.4c0.2,1.1,0.3,2.1,0.5,3.1
							s0.5,1.5,0.7,1.6l0,0c1.5,0,5.6-7.9,9.3-18c0.4-1.1,1-2.5,2.2-2.5c1.8,0,3.2,3.9,5,9.4c0.3,0.9,0.6,1.8,0.9,2.6
							c0.6,1.7,1,1.8,1,1.8c0.6-0.1,1.6-3.2,2.4-5.7c0.2-0.7,0.4-1.3,0.7-2c0.7-2,1.3-2.8,2-2.7c1.3,0,1.8,2.3,2.9,6.7
							c0.2,1,0.4,1.9,0.7,2.9c0.4,1.5,0.8,1.6,0.8,1.6c0.7,0,2.2-3.3,2.8-4.7c0.3-0.6,0.5-1.2,0.7-1.6c0.2-0.6,0.7-1,1.3-1l0,0
							c2.1,0,4.9,5.2,5.2,5.7c0.6-1.2,1.1-2.4,1.5-3.7c0.7-2.1,1.6-4,3.2-4.2c1.2-0.1,2.6,1,4.1,3.4c1,1.7,2.5,3.8,3.5,3.6
							c1.2-0.2,2.3-3.4,3.3-9.6c0.8-4.4,1.4-5.4,2.3-5.4l0,0c1.3,0,2.1,2.6,3.4,8.9c0.3,1.2,0.5,2.2,0.7,2.9l0.1,0.5
							c0.5,2,1.6,6.2,2.8,6.3c0.4,0,1.7-0.6,3.5-6.5c3.4-10.2,4.2-11.7,5.3-11.8l0,0c0.8,0,1.2,1.1,1.8,2.6c1.1,3.2,2.5,5.1,3.6,5.1
							c0.9,0,1.7-1,2.5-3c1.7-4.1,2.3-4.7,2.9-4.6s0.8,0.9,0.9,2.1c0,0.3,0.1,0.6,0.1,0.8c0.1,0.4,0.1,1,0.2,1.6
							c0.2,2.3,0.6,6.1,2.3,6s2-0.7,3.3-3.7c0.4-0.9,0.8-2,1.5-3.3c0.9-2,2.6-9.6,4.4-17.7c4.4-19.9,6.2-27,8-27l0,0
							c0.8,0,1.1,1.1,1.3,2c1.2,6,1.7,10,2.2,13.5c0.4,2.8,0.7,5.5,1.4,8.8c0.3,1.6,0.6,1.8,0.7,1.8c0.8-0.3,2.7-7.1,3.3-12.8
							c0.2-1.4,0.4-2.3,1.1-2.3c0.9-0.1,1.6,1.3,3.2,5.9c0.7,1.9,1.5,4,2.3,5.9c1.9,4.3,3.1,5.2,3.7,5.2c0.4,0,1.4-0.6,2.5-4.2
							c0.4-1.2,0.9-2.4,1.7-2.3c1.3,0.1,2,2.9,3.1,8.9c0.3,1.5,0.5,3,0.8,3.9c1.1,4.1,10.3,63.4,10.7,65.9L-5.4,132.2z M-190,131.2
							H-6.6c-1-6.3-9.5-61.4-10.5-65.2c-0.3-1-0.5-2.4-0.8-4c-0.5-2.7-1.4-7.7-2.2-8c-0.3,0.5-0.5,1-0.7,1.6c-1,3.3-2.1,4.8-3.4,4.9
							s-2.8-1.6-4.7-5.7c-0.8-1.9-1.6-4-2.3-5.9c-0.6-1.7-1.3-3.5-2.1-5.1c-0.1,0.4-0.2,0.9-0.3,1.3c0,0.1-1.8,13.5-4.3,13.6
							c-1,0-1.4-1.4-1.6-2.6c-0.6-3.3-1-6-1.4-8.8c-0.5-3.5-1-7.5-2.2-13.5l-0.3-1.2c-1.6,1.2-4.8,16.2-7,26.2
							c-1.8,8.5-3.5,15.8-4.4,17.9c-0.5,1.1-1,2.2-1.4,3.3c-1.3,3-1.8,4.1-4.1,4.3c-2.7,0.2-3.1-4.1-3.4-6.9
							c-0.1-0.6-0.1-1.1-0.2-1.5C-64,75.6-64,75.3-64,75c0-0.3-0.1-0.7-0.1-1c-0.7,1.2-1.3,2.5-1.8,3.8c-1,2.5-2.1,3.7-3.4,3.6
							c-2,0-3.6-3.2-4.5-5.8c-0.2-0.7-0.5-1.3-0.8-1.9c-0.8,0.6-3,7.4-4.2,11c-1.6,5-3,7.2-4.5,7.2c-1.8-0.1-2.8-3.3-3.8-7l-0.1-0.5
							c-0.2-0.7-0.4-1.8-0.7-3c-0.5-2.5-1.6-7.8-2.4-8.1c0,0-0.6,0.4-1.3,4.5c-1.2,7-2.4,10.1-4.1,10.4c-1.5,0.3-2.9-1.4-4.6-4
							s-2.6-3-3.2-3c-1,0.1-1.8,2.1-2.3,3.6c-1.3,3.6-1.7,4.4-2.4,4.5c-0.4,0-0.8-0.3-0.9-0.7c-1-1.9-3.2-5.2-4.3-5.2
							c-0.1,0-0.2,0-0.4,0.4c-0.3,0.5-0.5,1.1-0.7,1.6c-1.4,3.2-2.5,5.4-3.8,5.3c-1-0.1-1.4-1.4-1.7-2.3c-0.3-1-0.5-1.9-0.7-2.9
							c-0.5-2.3-1.3-5.7-2-6c0,0-0.4,0.2-1,2.1c-0.2,0.7-0.5,1.4-0.7,2c-1.4,4.4-2.1,6.4-3.3,6.4c-0.7,0-1.3-0.7-1.9-2.5
							c-0.3-0.8-0.6-1.7-0.9-2.7c-1-3-2.8-8.7-4-8.7l0,0c-0.3,0-0.7,0.5-1.2,1.8c-1.1,3.2-7.1,19-10.4,18.7
							c-1.2-0.1-1.5-1.8-1.6-2.4c-0.2-1-0.4-2.1-0.5-3.1c-0.7-4.1-1.5-9.2-3.1-9.5c-0.5-0.1-1.7,0.3-4,4.2c-3.5,6-5.3,8.5-7.3,8.7
							s-3.6-1.8-6.6-5.4c-0.4-0.8-1.3-1.2-2.2-1.1c-4,0.7-8.7,14.8-14.3,31.2C-187.1,123-188.5,127-190,131.2L-190,131.2z"/>
						<g class="st4">
							<polygon class="st7" points="16.8,94.2 19.5,84.4 25,77.3 29.7,77.3 33.8,77.3 37.2,74 41,77.3 41.3,71.5 44.4,68.6 48.5,71 
								52.2,70 52.6,67.1 58,68.1 63.4,70 68.2,63.6 70.6,67.1 72,59.2 75,59.2 77.4,64.6 80.1,54.3 81.2,59.2 86.3,65.6 94.8,63.6 
								95.1,54.3 97.8,54.3 98.9,56.7 100.6,62.2 103.6,59 109.1,59.2 110.4,51.8 115.5,54.3 118.3,57.2 120.6,54.3 123,49.4 
								126,43.5 129.2,47.4 131.9,49.4 135.3,54.3 139.4,54.3 141.4,59.2 145.5,59.2 150.9,63.1 154.3,66.1 156.7,54.3 159.8,56.7 
								163.9,54.3 167.3,45.4 172.4,49.4 175.4,56.7 179.2,54.3 182.6,49.4 185,57.2 188.7,64.1 191.1,59.2 193.8,54.3 203,79.4 
								203,120.9 17.5,120.9 							"/>
						</g>
						<path class="st6" d="M203,121.4H17.5c-0.3,0-0.5-0.2-0.5-0.4c0,0,0,0,0-0.1l-0.7-26.7V94l2.7-9.8c0-0.1,0-0.1,0.1-0.2l5.4-7
							c0.1-0.1,0.2-0.2,0.4-0.2h8.6l3.3-3.2c0.2-0.2,0.5-0.2,0.7,0c0,0,0,0,0,0l3,2.7l0.3-4.8c0-0.1,0.1-0.2,0.2-0.3l3.1-3
							c0.1-0.2,0.4-0.2,0.6-0.1l4,2.4l3.2-0.8l0.3-2.6c0-0.1,0.1-0.3,0.2-0.3c0.1-0.1,0.3-0.1,0.4-0.1l5.5,1l5.2,1.9l4.5-6.1
							c0.2-0.2,0.5-0.3,0.7-0.1c0,0,0.1,0.1,0.1,0.1l1.7,2.4l1.1-6.6c0-0.2,0.3-0.4,0.5-0.4H75c0.2,0,0.4,0.1,0.5,0.3l1.8,4.1l2.4-9
							c0.1-0.2,0.3-0.4,0.5-0.4c0.2,0,0.4,0.2,0.4,0.4l1,4.8l4.8,6l7.9-1.8l0.3-8.9c0-0.3,0.2-0.5,0.4-0.5c0,0,0,0,0.1,0h2.7
							c0.2,0,0.4,0.1,0.5,0.3l1,2.4l1.5,4.7l2.5-2.5c0.1-0.1,0.2-0.2,0.4-0.2l5,0.2l1.3-7c0-0.1,0.1-0.3,0.2-0.3c0,0,0,0,0.1,0
							c0.1-0.1,0.3-0.1,0.4,0l5.1,2.5c0.1,0,0.1,0.1,0.2,0.1l2.3,2.5l2-2.4l2.4-4.9l2.9-5.9c0.1-0.1,0.2-0.3,0.4-0.3s0.3,0,0.4,0.2
							l3.2,3.8l2.7,2l0.1,0.1l3.3,4.7h3.8c0.2,0,0.4,0.1,0.5,0.3l1.9,4.6h3.8c0.1,0,0.2,0,0.3,0.1l5.4,3.9l2.6,2.4l2.2-11
							c0-0.2,0.2-0.3,0.3-0.4s0.3,0,0.5,0.1l2.8,2.2l3.6-2.2l3.3-8.8c0.1-0.1,0.2-0.3,0.3-0.3s0.3,0,0.4,0.1l5.1,4
							c0.1,0.1,0.1,0.1,0.1,0.2l2.8,6.8l3.1-2l3.4-4.8c0.2-0.2,0.5-0.3,0.7-0.1c0,0,0,0,0,0c0.1,0.1,0.2,0.2,0.2,0.3l2.4,7.8l3.3,6
							l1.9-4l2.7-5c0.1-0.2,0.3-0.3,0.5-0.3c0.2,0,0.4,0.1,0.4,0.3l9.2,25v41.6C203.5,121.1,203.3,121.3,203,121.4L203,121.4z
							 M18,120.4h184.5V79.5l-8.8-24l-2.2,4l-2.4,4.9c-0.1,0.2-0.2,0.3-0.4,0.3c-0.2,0-0.4-0.1-0.4-0.3l-3.7-6.9v-0.1l-2.1-6.8
							l-2.9,4.1c0,0.1,0,0.1-0.1,0.1l0,0l-3.7,2.5c-0.1,0.1-0.3,0.1-0.4,0c-0.2,0-0.3-0.1-0.3-0.3l-3-7.2l-4.5-3.5l-3.2,8.3
							c0,0.1-0.1,0.2-0.2,0.3l-4.2,2.3c-0.2,0.1-0.4,0.1-0.6,0l-2.4-2l-2.2,11c0,0.2-0.2,0.3-0.3,0.4c-0.2,0.1-0.4,0-0.5-0.1l-3.4-3
							l-5.3-3.8h-3.9c-0.2,0-0.4-0.1-0.5-0.3l-1.9-4.6h-3.8c-0.2,0-0.3-0.1-0.4-0.2l-3.4-4.9l-2.7-2l-0.1-0.1l-2.7-3.3l-2.6,5.2
							l-2.4,4.9c0,0.1,0,0.1-0.1,0.1l-2.4,2.9c-0.1,0.1-0.2,0.2-0.4,0.2c-0.2,0-0.3-0.1-0.4-0.2l-2.7-2.8l-4.4-2.2l-1.2,6.8
							c0,0.2-0.3,0.4-0.5,0.4l-5.2-0.2l-2.9,3c-0.2,0.2-0.5,0.2-0.7,0c0,0,0,0,0,0c-0.1-0.1-0.1-0.1-0.1-0.2l-1.7-5.4l-0.9-2.1h-1.9
							l-0.3,8.8c0,0.2-0.2,0.4-0.4,0.5l-8.5,2c-0.2,0-0.4,0-0.5-0.2l-5.1-6.4c-0.1-0.1-0.1-0.1-0.1-0.2l-0.6-2.8l-2.2,8.2
							c0,0.2-0.2,0.4-0.4,0.4c-0.1,0-0.1,0-0.2,0c-0.2,0-0.4-0.2-0.4-0.4l-2.2-5.1h-2.3l-1.1,7.7c0,0.2-0.2,0.4-0.4,0.4
							c-0.2,0-0.4,0-0.5-0.2l-2-2.9l-4.3,5.8c-0.1,0.2-0.4,0.2-0.6,0.2l-5.4-2L53,67.7l-0.3,2.4c0,0.2-0.2,0.4-0.4,0.4l-3.8,1
							c-0.1,0.1-0.3,0.1-0.4,0l-3.6-2.3l-2.7,2.6l-0.3,5.6c0,0.2-0.1,0.4-0.3,0.4c-0.2,0.1-0.4,0-0.5-0.1l-3.4-3l-3.1,3
							c-0.1,0.1-0.2,0.1-0.3,0.1h-8.6L20,84.6l-2.7,9.7L18,120.4z"/>
					</g>
				</g>
			</g>
		</g>
	</g>
</g>
</svg>
