<svg xmlns="http://www.w3.org/2000/svg" width="60.55" height="60.55" viewBox="0 0 60.55 60.55"><g id="Layer_2" data-name="Layer 2"><g id="icons"><path d="M0,24V60.55H60.55V24ZM58.42,58.42H2.13V26.16H58.42Z" style="fill:#5a595b"/><rect x="10.83" y="15.26" width="2.13" height="2.13" style="fill:#5a595b"/><path d="M46.07,48.46v1.35h2V48.46a3.67,3.67,0,0,0-1-7.19,1.57,1.57,0,1,1,1.57-1.57v.12h2V39.7a3.65,3.65,0,0,0-2.64-3.49V34.86h-2v1.35a3.67,3.67,0,0,0-2.64,3.49,3.71,3.71,0,0,0,3.71,3.7,1.57,1.57,0,0,1,0,3.14A1.63,1.63,0,0,1,45.48,45v-.12h-2V45A3.67,3.67,0,0,0,46.07,48.46Z" style="fill:#5a595b"/><rect x="7.73" y="50.12" width="31.72" height="2.13" style="fill:#5a595b"/><rect x="20.45" y="44.57" width="19" height="2.13" style="fill:#5a595b"/><rect x="20.45" y="39.01" width="19" height="2.13" style="fill:#5a595b"/><rect x="33.17" y="33.54" width="2.13" height="2.13" style="fill:#5a595b"/><rect x="28.92" y="33.54" width="2.13" height="2.13" style="fill:#5a595b"/><rect x="24.69" y="33.54" width="2.13" height="2.13" style="fill:#5a595b"/><rect x="37.31" y="33.54" width="2.13" height="2.13" style="fill:#5a595b"/><rect x="20.45" y="33.54" width="2.13" height="2.13" style="fill:#5a595b"/><path d="M4.58,18.4V7H5.94V22.49H17.87V6a6.24,6.24,0,0,0-1.73-4.24A6,6,0,0,0,6,4.9H2.45V18.4a1.37,1.37,0,0,1-1.38,1.39H.94v2.13h.13A3.52,3.52,0,0,0,4.58,18.4Zm3.49,2V6A3.84,3.84,0,0,1,11.9,2.13a3.29,3.29,0,0,1,2.65,1.2A3.51,3.51,0,0,1,15.64,6V20.35Z" style="fill:#5a595b"/><rect x="10.83" y="5.09" width="2.13" height="2.13" style="fill:#5a595b"/><rect x="10.83" y="10.18" width="2.13" height="2.13" style="fill:#5a595b"/><path d="M16,20.76V33.67c0,3.67-4,9.14-4,9.14s-4.05-5.47-4.05-9.14V20.76Z" style="fill:#faaf42"/><path d="M6.78,20.69v13c0,4.15,4.24,9.75,4.27,9.77l.86,1.19.74-1.17s4.28-5.65,4.28-9.79v-13Zm8.11,1.14V33.67c0,2.43-2.17,6-3,7.22-1.16-1.69-3-5-3-7.22V21.83Z" style="fill:#5a595b"/></g></g></svg>