<svg xmlns="http://www.w3.org/2000/svg" width="409.6" height="409.6" viewBox="0 0 409.6 409.6"><g id="Layer_2" data-name="Layer 2"><g id="Layer_1-2" data-name="Layer 1"><path d="M409.6,204.8c0,113.11-91.69,204.8-204.8,204.8S0,317.91,0,204.8,91.69,0,204.8,0,409.6,91.69,409.6,204.8Z" style="fill:#d80027"/><path d="M112.09,124.66l17.68,54.42H187L140.7,212.71l17.68,54.42L112.09,233.5,65.8,267.13l17.68-54.42L37.19,179.08H94.41Z" style="fill:#ffda44"/><path d="M223.53,305.66,206.18,293l-17.36,12.61,6.63-20.4-17.36-12.61h21.46l6.63-20.41,6.62,20.41h21.46l-17.35,12.61Z" style="fill:#ffda44"/><path d="M268.82,243.32H247.36l-6.63,20.41-6.63-20.41H212.64L230,230.71l-6.63-20.4,17.36,12.6,17.36-12.6-6.63,20.4Z" style="fill:#ffda44"/><path d="M268.82,166.28l-17.36,12.61,6.63,20.41-17.36-12.61L223.37,199.3,230,178.89l-17.36-12.61H234.1l6.63-20.41,6.63,20.41Z" style="fill:#ffda44"/><path d="M223.53,104l-6.62,20.41L234.26,137H212.81l-6.63,20.41L199.55,137H178.09l17.36-12.62L188.82,104l17.36,12.61Z" style="fill:#ffda44"/></g></g></svg>