<svg xmlns="http://www.w3.org/2000/svg" width="54.69" height="49.48" viewBox="0 0 54.69 49.48"><g id="Layer_2" data-name="Layer 2"><g id="icons"><rect x="0.05" y="17.92" width="12.12" height="29.78" style="fill:#424242"/><polygon points="13.93 49.46 0.03 49.46 0.03 47.73 12.2 47.73 12.2 17.89 0.03 17.89 0.03 16.16 13.93 16.16 13.93 49.46" style="fill:#fff"/><path d="M14,49.48H0V47.7H12.17V17.92H0V16.14H14Zm-13.91,0H13.9V16.19H.05v1.68H12.22V47.75H.05Z" style="fill:#fff"/><path d="M50.56,27.21H45.14V25.47h5.42a2.37,2.37,0,0,0,0-4.74H29.1l.67-1.27a19.57,19.57,0,0,0,1.65-4.34A18.81,18.81,0,0,0,32,10.58v-2a2.37,2.37,0,0,0-4.74,0,11.49,11.49,0,0,1-1,4.7,13,13,0,0,1-2.84,4.22,11.28,11.28,0,0,1-7.94,3.25V19a9.44,9.44,0,0,0,3.63-.72,9.53,9.53,0,0,0,3.09-2,11.18,11.18,0,0,0,2.46-3.66,9.78,9.78,0,0,0,.87-4,4.11,4.11,0,0,1,8.21,0v2a20.63,20.63,0,0,1-.6,4.95A21.61,21.61,0,0,1,31.91,19H50.56a4.11,4.11,0,0,1,0,8.21Z" style="fill:#fff"/><path d="M50.56,27.23H45.12V25.45h5.44a2.35,2.35,0,0,0,0-4.69H29.06l0,0,.66-1.27a19.12,19.12,0,0,0,1.66-4.34A18.72,18.72,0,0,0,32,10.58v-2a2.31,2.31,0,0,0-.68-1.65,2.34,2.34,0,0,0-1.67-.69A2.27,2.27,0,0,0,28,6.9a2.32,2.32,0,0,0-.7,1.66,11.34,11.34,0,0,1-1,4.71A13,13,0,0,1,23.4,17.5a11.16,11.16,0,0,1-3.65,2.41,11.32,11.32,0,0,1-4.29.85h0V19h0a9.34,9.34,0,0,0,3.61-.72,9.49,9.49,0,0,0,3.08-2,11.25,11.25,0,0,0,2.46-3.65,9.7,9.7,0,0,0,.87-4,4.11,4.11,0,0,1,1.21-2.92A4.05,4.05,0,0,1,29.6,4.43a4.13,4.13,0,0,1,4.13,4.13v2a20.72,20.72,0,0,1-.6,5A21.22,21.22,0,0,1,32,19H50.56a4.13,4.13,0,1,1,0,8.25Zm-5.39-.05h5.39a4.08,4.08,0,1,0,0-8.15H31.88v0a20.25,20.25,0,0,0,1.19-3.46,20.63,20.63,0,0,0,.6-4.95v-2a4.08,4.08,0,0,0-8.15,0,9.65,9.65,0,0,1-.88,4,11.18,11.18,0,0,1-2.46,3.66A9.61,9.61,0,0,1,15.48,19v1.68a11.12,11.12,0,0,0,4.25-.85,11.2,11.2,0,0,0,3.64-2.4,12.85,12.85,0,0,0,2.83-4.21,11.25,11.25,0,0,0,1-4.69A2.41,2.41,0,0,1,29.6,6.17,2.39,2.39,0,0,1,32,8.56v2a18.89,18.89,0,0,1-.55,4.55,20.07,20.07,0,0,1-1.66,4.35l-.65,1.23H50.56a2.42,2.42,0,0,1,1.7.7,2.4,2.4,0,0,1,0,3.39,2.42,2.42,0,0,1-1.7.7H45.17Z" style="fill:#fff"/><path d="M48.73,33.68H45.14V32h3.59a2.37,2.37,0,1,0,0-4.74H45.14V25.47h3.59a4.11,4.11,0,0,1,0,8.21Z" style="fill:#fff"/><path d="M48.73,33.71H45.12V31.92h3.61a2.33,2.33,0,0,0,1.66-.68,2.37,2.37,0,0,0,.69-1.66,2.34,2.34,0,0,0-.69-1.66,2.3,2.3,0,0,0-1.66-.69H45.12V25.45h3.61a4.13,4.13,0,0,1,0,8.26Zm-3.56-.06h3.56a4.08,4.08,0,1,0,0-8.15H45.17v1.68h3.56a2.39,2.39,0,0,1,2.4,2.4,2.38,2.38,0,0,1-.7,1.69,2.42,2.42,0,0,1-1.7.7H45.17Z" style="fill:#fff"/><path d="M46.94,40.15h-1.8V38.42h1.8a2.37,2.37,0,1,0,0-4.74h-1.8V32h1.8a4.1,4.1,0,1,1,0,8.2Z" style="fill:#fff"/><path d="M46.94,40.18H45.12V38.39h1.82a2.33,2.33,0,0,0,1.66-.68,2.34,2.34,0,0,0,0-3.32,2.33,2.33,0,0,0-1.66-.68H45.12V31.92h1.82a4.13,4.13,0,0,1,0,8.26Zm-1.77,0h1.77a4.08,4.08,0,0,0,0-8.16H45.17v1.68h1.77a2.4,2.4,0,0,1,0,4.8H45.17Z" style="fill:#fff"/><path d="M45.14,46.63H15.45V44.89H45.14a2.37,2.37,0,0,0,0-4.74V38.42a4.11,4.11,0,0,1,0,8.21Z" style="fill:#fff"/><path d="M45.14,46.65H15.43V44.87H45.14a2.36,2.36,0,0,0,2.35-2.35,2.34,2.34,0,0,0-2.35-2.34h0V38.39h0a4.13,4.13,0,0,1,0,8.26Zm-29.66,0H45.14a4.08,4.08,0,0,0,0-8.15v1.68a2.35,2.35,0,0,1,1.67.7,2.38,2.38,0,0,1,.7,1.69,2.39,2.39,0,0,1-2.4,2.4H15.48Z" style="fill:#fff"/><rect x="5.73" y="41.89" width="1.73" height="1.73" style="fill:#fff"/><rect x="28.74" y="0.03" width="1.73" height="2.7" style="fill:#fff"/><path d="M30.5,2.75H28.71V0H30.5Zm-1.73,0h1.68V.05H28.77Z" style="fill:#fff"/><rect x="33.34" y="2.61" width="2.69" height="1.73" transform="translate(7.7 25.55) rotate(-45)" style="fill:#fff"/><path d="M34.35,5.08,33.09,3.82,35,1.88l1.26,1.26ZM33.16,3.82,34.35,5l1.87-1.87L35,2Z" style="fill:#fff"/><rect x="35.45" y="7.69" width="2.69" height="1.73" style="fill:#fff"/><path d="M38.17,9.45H35.42V7.67h2.75Zm-2.7,0h2.65V7.72H35.47Z" style="fill:#fff"/><rect x="23.66" y="2.13" width="1.73" height="2.69" transform="translate(4.72 18.36) rotate(-45)" style="fill:#fff"/><path d="M24.86,5.08,22.92,3.14l1.26-1.26,1.94,1.94ZM23,3.14,24.86,5l1.19-1.19L24.18,2Z" style="fill:#fff"/><rect x="21.07" y="7.69" width="2.69" height="1.73" style="fill:#fff"/><path d="M23.79,9.45H21.05V7.67h2.74Zm-2.69,0h2.64V7.72H21.1Z" style="fill:#fff"/></g></g></svg>