<?xml version="1.0" encoding="utf-8"?>
<!-- Generator: Adobe Illustrator 24.1.2, SVG Export Plug-In . SVG Version: 6.00 Build 0)  -->
<svg version="1.1" id="Layer_1" xmlns="http://www.w3.org/2000/svg" xmlns:xlink="http://www.w3.org/1999/xlink" x="0px" y="0px"
	 viewBox="0 0 28 23.9" style="enable-background:new 0 0 28 23.9;" xml:space="preserve">
<style type="text/css">
	.st0{fill:#232323;}
</style>
<g>
	<path class="st0" d="M27.3,0H0.7C0.3,0,0,0.3,0,0.7v13.9c0,0.4,0.3,0.7,0.7,0.7h26.6c0.4,0,0.7-0.3,0.7-0.7V0.7
		C28,0.3,27.7,0,27.3,0z M3.9,3.7c-0.7,0.7-1.5,1-2.5,1V1.3h3.5C4.8,2.3,4.5,3.1,3.9,3.7z M23.2,1.4h3.5v3.4
		C24.7,4.8,23.2,3.3,23.2,1.4z M1.3,9.1V6.2c2.6,0,4.8-2.1,4.8-4.8h15.6C21.9,4,24,6.1,26.6,6.2v2.9c-2.6,0-4.7,2.2-4.8,4.8H6.2
		C6.1,11.3,4,9.1,1.3,9.1z M1.4,10.5c0.9,0,1.8,0.4,2.4,1s1,1.5,1,2.4H1.4V10.5z M26.6,10.5v3.4h-3.4C23.2,12,24.7,10.5,26.6,10.5z"
		/>
	<path class="st0" d="M14,12.8c2.3,0,4.1-2.3,4.1-5.2S16.3,2.4,14,2.4S9.9,4.8,9.9,7.6C9.9,10.5,11.7,12.8,14,12.8z M14,3.8
		c1.5,0,2.7,1.7,2.7,3.8s-1.2,3.8-2.7,3.8s-2.7-1.7-2.7-3.8S12.5,3.8,14,3.8z"/>
	<path class="st0" d="M27.2,16.7H0.8c-0.2,0-0.4,0.1-0.5,0.2s-0.2,0.3-0.2,0.5c0,0.4,0.3,0.7,0.7,0.7h26.4c0.4,0,0.7-0.3,0.7-0.7
		S27.6,16.7,27.2,16.7z"/>
	<path class="st0" d="M27.2,19.7H0.8c-0.2,0-0.4,0.1-0.5,0.2s-0.2,0.3-0.2,0.5c0,0.4,0.3,0.7,0.7,0.7h26.4l0,0
		c0.4,0,0.7-0.3,0.7-0.7c0-0.2-0.1-0.4-0.2-0.5S27.4,19.7,27.2,19.7z"/>
	<path class="st0" d="M27.2,22.5L27.2,22.5H0.8c-0.4,0.1-0.7,0.4-0.6,0.8c0,0.3,0.3,0.6,0.6,0.6h26.4c0.4-0.1,0.7-0.4,0.6-0.8
		C27.8,22.8,27.5,22.5,27.2,22.5z"/>
	<circle class="st0" cx="7" cy="7.6" r="0.8"/>
	<circle class="st0" cx="20.8" cy="7.6" r="0.8"/>
</g>
</svg>
