<svg xmlns="http://www.w3.org/2000/svg" width="14.91" height="17.09" viewBox="0 0 14.91 17.09"><g id="Layer_2" data-name="Layer 2"><g id="Layer_1-2" data-name="Layer 1"><path d="M14,2.8H.93a.93.93,0,0,0,0,1.86h.93V15.23a1.87,1.87,0,0,0,1.87,1.86h7.46a1.87,1.87,0,0,0,1.86-1.86V4.66H14A.93.93,0,0,0,14,2.8ZM11.19,15.23H3.73V4.66h7.46Z" style="fill:#5a595b"/><path d="M5.9,13.05a.94.94,0,0,0,.94-.93V7.77A.94.94,0,0,0,5,7.77v4.35A.93.93,0,0,0,5.9,13.05Z" style="fill:#5a595b"/><path d="M9,13.05a.93.93,0,0,0,.93-.93V7.77a.93.93,0,0,0-1.86,0v4.35A.93.93,0,0,0,9,13.05Z" style="fill:#5a595b"/><path d="M5,1.86h5A.93.93,0,1,0,9.94,0H5A.93.93,0,0,0,5,1.86Z" style="fill:#5a595b"/></g></g></svg>