<?xml version="1.0" encoding="utf-8"?>
<!-- Generator: Adobe Illustrator 24.1.2, SVG Export Plug-In . SVG Version: 6.00 Build 0)  -->
<svg version="1.1" id="Layer_1" xmlns="http://www.w3.org/2000/svg" xmlns:xlink="http://www.w3.org/1999/xlink" x="0px" y="0px"
	 viewBox="0 0 512 353.1" style="enable-background:new 0 0 512 353.1;" xml:space="preserve">
<style type="text/css">
	.st0{fill:#F3F2F2;}
	.st1{clip-path:url(#SVGID_2_);}
	.st2{fill:#F26E21;}
	.st3{fill:#0B161F;}
</style>
<g id="Layer_2_1_">
	<g id="Capa_1">
		<path class="st0" d="M512,322.8c0,16.7-13.6,30.3-30.3,30.3H30.3C13.5,353.1,0,339.6,0,322.8c0,0,0,0,0,0V30.3
			C0,13.6,13.5,0,30.2,0c0,0,0,0,0,0h451.5C498.4,0,512,13.6,512,30.3V322.8z"/>
		<g>
			<defs>
				<path id="SVGID_1_" d="M512,322.8c0,16.7-13.6,30.3-30.3,30.3H30.3C13.5,353.1,0,339.6,0,322.8c0,0,0,0,0,0V30.3
					C0,13.6,13.5,0,30.2,0c0,0,0,0,0,0h451.5C498.4,0,512,13.6,512,30.3V322.8z"/>
			</defs>
			<clipPath id="SVGID_2_">
				<use xlink:href="#SVGID_1_"  style="overflow:visible;"/>
			</clipPath>
			<g class="st1">
				<circle class="st0" cx="256" cy="130.5" r="256"/>
				<circle class="st2" cx="272.6" cy="114.6" r="33.7"/>
				<path class="st3" d="M91.2,130.7c-4,3.6-9.1,5.1-17.2,5.1h-3.4V93.5H74c8.1,0,13.1,1.4,17.2,5.2c4.5,4.1,7,9.9,6.9,15.9
					C98.2,120.7,95.7,126.6,91.2,130.7L91.2,130.7z M76.5,82.7H58v63.9h18.4c9.8,0,16.8-2.3,23-7.4c7.4-6,11.6-15,11.7-24.6
					C111.1,95.8,96.9,82.7,76.5,82.7"/>
				<polyline class="st3" points="116.9,146.6 129.4,146.6 129.4,82.7 116.9,82.7 116.9,146.6 				"/>
				<path class="st3" d="M160.2,107.2c-7.6-2.8-9.8-4.6-9.8-8c0-4,3.9-7.1,9.4-7.1c3.8,0,6.9,1.5,10.2,5.2l6.6-8.5
					c-5.2-4.6-12-7.1-18.9-7.1c-11.4,0-20.1,7.9-20.1,18.3c0,8.8,4.1,13.3,15.9,17.6c3,0.9,5.9,2.2,8.7,3.6c2.3,1.4,3.8,3.9,3.8,6.6
					c0,5.2-4.2,9-9.8,9c-6,0-10.8-3-13.7-8.5l-8.1,7.7c5.8,8.4,12.8,12.2,22.3,12.2c13.1,0,22.2-8.6,22.2-21
					C178.8,117,174.5,112.4,160.2,107.2"/>
				<path class="st3" d="M182.7,114.7c0,18.8,14.9,33.4,34,33.4c5.5,0,10.9-1.3,15.8-3.7v-14.7c-5,5-9.5,7-15.2,7
					c-12.7,0-21.7-9.1-21.7-22.1c0-12.3,9.3-22,21.1-22c6,0,10.5,2.1,15.8,7.2V85.2c-4.7-2.6-10.1-3.9-15.5-3.9
					C198,81.3,182.7,96.1,182.7,114.7"/>
				<polyline class="st3" points="334.4,125.7 317.2,82.7 303.5,82.7 330.9,148.3 337.6,148.3 365.5,82.7 351.8,82.7 334.4,125.7 
									"/>
				<polyline class="st3" points="371.2,146.6 406.8,146.6 406.8,135.8 383.7,135.8 383.7,118.6 406,118.6 406,107.7 383.7,107.7 
					383.7,93.5 406.8,93.5 406.8,82.7 371.2,82.7 371.2,146.6 				"/>
				<path class="st3" d="M431.4,112.1h-3.7V92.8h3.9c7.8,0,12.1,3.3,12.1,9.5C443.7,108.7,439.4,112.1,431.4,112.1z M456.6,101.6
					c0-12-8.3-18.9-22.8-18.9h-18.6v63.9h12.6V121h1.6l17.4,25.7h15.5l-20.3-26.9C451.4,117.8,456.6,111.4,456.6,101.6"/>
				<path d="M149.7,206.1v-36l24.6,25.7v-23.4h5.1v35.7l-24.6-25.6v23.6L149.7,206.1L149.7,206.1z"/>
				<path d="M206.1,177.2h-13.5v8.1h13.1v4.8h-13.1v11.3H206v4.8h-18.6v-33.7h18.6V177.2z"/>
				<path d="M222,177.2v28.9h-5.1v-28.9h-7.7v-4.8h20.6v4.8H222z"/>
				<path d="M237.9,172.4l8.8,22.5l9.2-24.1l8.8,24.1l9.4-22.5h5.5l-15,35.8l-8.7-23.9l-9,23.9l-14.4-35.8H237.9z"/>
				<path d="M280.5,189.1c0-4.6,1.8-9.1,5.2-12.2c3.3-3.3,7.8-5.2,12.5-5.1c9.7,0,17.5,7.9,17.5,17.5c0.1,4.7-1.8,9.1-5.2,12.3
					c-6.7,6.6-17.3,6.8-24.3,0.6C282.4,198.9,280.3,194.1,280.5,189.1z M285.6,189.1c-0.1,3.5,1.3,6.8,3.8,9.2
					c4.9,4.8,12.7,4.8,17.6-0.1c4.8-5,4.8-13,0-18c-4.9-4.9-12.8-4.9-17.7,0C286.8,182.6,285.5,185.8,285.6,189.1L285.6,189.1z"/>
				<path d="M333.5,191.7l10.4,14.4h-6.2l-9.6-13.8h-0.9v13.8h-5.1v-33.7h5.9c4.4,0,7.7,0.8,9.6,2.5c2.2,1.8,3.4,4.5,3.3,7.4
					c0.1,2.2-0.7,4.4-2,6.1C337.5,190.1,335.6,191.3,333.5,191.7z M327.1,187.9h1.6c4.8,0,7.2-1.8,7.2-5.5c0-3.4-2.3-5.2-7-5.2h-1.8
					L327.1,187.9L327.1,187.9z"/>
				<path d="M354,185.8l13.1-13.4h6.8l-15.2,15.3l15.3,18.4h-6.8l-12.1-15l-1,1V206H349v-33.6h5V185.8L354,185.8z"/>
				<path class="st2" d="M523.2,149.7c-61.7,61-204.8,166.3-459.3,215c42.6,14.6,87.4,22,132.4,21.8c72.1,0,249.3,8,303.4-22.9
					C575.3,320.6,515.9,226.8,523.2,149.7z"/>
			</g>
		</g>
	</g>
</g>
</svg>
