<svg xmlns="http://www.w3.org/2000/svg" width="409.6" height="409.6" viewBox="0 0 409.6 409.6"><g id="Layer_2" data-name="Layer 2"><g id="Layer_1-2" data-name="Layer 1"><path d="M409.6,204.8c0,113.11-91.69,204.8-204.8,204.8S0,317.91,0,204.8,91.69,0,204.8,0,409.6,91.69,409.6,204.8Z" style="fill:#0052b4"/><path d="M204.8,80.14l6.63,20.41h21.46l-17.36,12.61,6.63,20.41L204.8,121l-17.36,12.62,6.63-20.41-17.36-12.61h21.46Z" style="fill:#ffda44"/><path d="M116.65,116.65l19.12,9.74,15.17-15.17-3.35,21.19,19.11,9.75-21.19,3.35-3.35,21.19-9.75-19.11-21.19,3.35,15.17-15.17Z" style="fill:#ffda44"/><path d="M80.14,204.8l20.41-6.63V176.71l12.61,17.36,20.41-6.63L121,204.8l12.62,17.36-20.41-6.63-12.61,17.36V211.43Z" style="fill:#ffda44"/><path d="M116.65,293l9.74-19.12-15.17-15.17L132.41,262l9.75-19.12,3.35,21.19,21.19,3.36-19.11,9.74,3.35,21.19-15.17-15.17Z" style="fill:#ffda44"/><path d="M204.8,329.46l-6.63-20.4H176.71l17.36-12.62L187.44,276l17.36,12.61L222.16,276l-6.63,20.4,17.36,12.62H211.43Z" style="fill:#ffda44"/><path d="M293,293l-19.12-9.74-15.17,15.17L262,277.19l-19.12-9.74,21.19-3.36,3.35-21.19L277.19,262l21.19-3.36-15.17,15.17Z" style="fill:#ffda44"/><path d="M329.46,204.8l-20.41,6.63v21.46l-12.61-17.36L276,222.16l12.62-17.36L276,187.44l20.41,6.63,12.61-17.36v21.46Z" style="fill:#ffda44"/><path d="M293,116.65l-9.74,19.12,15.17,15.17-21.19-3.35-9.75,19.11-3.35-21.19-21.19-3.36L262,132.41l-3.36-21.19,15.17,15.18Z" style="fill:#ffda44"/></g></g></svg>