<svg xmlns="http://www.w3.org/2000/svg" width="14" height="14" viewBox="0 0 14 14">
  <defs>
    <style>
      .cls-1 {
        fill: #777;
        fill-rule: evenodd;
      }
    </style>
  </defs>
  <path id="_" data-name="" class="cls-1" d="M370.622,2436.42v-2.26a1.008,1.008,0,0,0-.256-0.62l-1.238-1.24a1,1,0,0,0-.618-0.25h-6.638a0.873,0.873,0,0,0-.875.87v12.25a0.882,0.882,0,0,0,.875.88h8.75a0.882,0.882,0,0,0,.875-0.88v-7.87A0.875,0.875,0,0,0,370.622,2436.42Zm-5.25,7.44a0.441,0.441,0,0,1-.437.44H364.06a0.441,0.441,0,0,1-.438-0.44v-0.88a0.432,0.432,0,0,1,.438-0.43h0.875a0.432,0.432,0,0,1,.437.43v0.88Zm0-3.5a0.441,0.441,0,0,1-.437.44H364.06a0.441,0.441,0,0,1-.438-0.44v-0.88a0.432,0.432,0,0,1,.438-0.43h0.875a0.432,0.432,0,0,1,.437.43v0.88Zm3.5,3.5a0.441,0.441,0,0,1-.437.44H367.56a0.441,0.441,0,0,1-.438-0.44v-0.88a0.432,0.432,0,0,1,.438-0.43h0.875a0.432,0.432,0,0,1,.437.43v0.88Zm0-3.5a0.441,0.441,0,0,1-.437.44H367.56a0.441,0.441,0,0,1-.438-0.44v-0.88a0.432,0.432,0,0,1,.438-0.43h0.875a0.432,0.432,0,0,1,.437.43v0.88Zm0-3.06h-6.125v-3.5h4.375v1.31a0.441,0.441,0,0,0,.438.44h1.312v1.75Zm-9.625-1.75h-0.875a0.873,0.873,0,0,0-.875.87v8.75a0.882,0.882,0,0,0,.875.88h0.875a0.882,0.882,0,0,0,.875-0.88v-8.75A0.873,0.873,0,0,0,359.247,2435.55Z" transform="translate(-357.5 -2432.03)"/>
</svg>
