<svg xmlns="http://www.w3.org/2000/svg" width="668.43" height="193.46" viewBox="0 0 668.43 193.46"><g id="Layer_2" data-name="Layer 2"><g id="Layer_1-2" data-name="Layer 1"><path d="M.06.13C37-.12,73.84.07,110.74,0q.23,21,0,41.94-30.27.18-60.56,0c-.14,8.71-.09,17.42,0,26.13,18.58-.13,37.15,0,55.73-.07.08,7.7,0,15.4,0,23.1a78.79,78.79,0,0,1,15.32-16.77,68.09,68.09,0,0,1,33.53-13.06c12-.69,24.43-.88,35.83,3.53,14.56,4.74,26.66,15.73,33.67,29.24a114.85,114.85,0,0,1,5,11.64c4.9-16.08,16-30.4,31.06-38.16a60.23,60.23,0,0,1,44.21-3.75c7.26,2.29,13.48,6.86,18.67,12.34.07-25.37,0-50.73,0-76.1,14.71.06,29.41-.13,44.11.12-.33,36.18,0,72.37-.14,108.55.06,25.85-.1,51.71.08,77.56-14.48.46-29,.19-43.44.18q-.12-6.08-.07-12.13l-.37.55c-6.65,8.73-16,15.68-26.92,17.8a57.09,57.09,0,0,1-39.86-8c-16.73-10.5-27.86-29.07-30-48.61-27.35-.08-54.7,0-82-.06-1.53.1-3.19-.17-4.59.57a26.91,26.91,0,0,0,11.56,20.14c7.58,5.25,17.83,5.48,26.17,2,3.65-1.94,6.23-5.32,8.84-8.43,14.22.19,28.45-.08,42.67.09-5.66,15-16.46,28.59-31.14,35.59-13.62,6.66-29.38,8.08-44.28,6.21-17.54-2.32-34.2-11.71-44.6-26.13A64.5,64.5,0,0,1,97,126.72c-.26-6.15.92-12.21,1.64-18.29H50.14q-.09,39.19,0,78.4c-16.69.26-33.39,0-50.09.13Q-.06,93.53.06.13ZM151.49,93.57c-5.16,3.43-8.07,9.13-10,14.85,15.66.1,31.3.43,46.95,0-1.54-4.57-3.18-9.42-6.88-12.74C173.6,88.32,160.41,87.2,151.49,93.57Zm139.74,1.94c-11,2.65-18,13.42-19.49,24.14-2.49,11.62.75,25,10,32.82,8.82,7.65,23.34,7.23,31.8-.78,7.94-8.32,9.46-20.7,8-31.66-1.36-7.45-4-15.35-10.08-20.25C305.82,95.2,298.19,94.08,291.23,95.51Z" style="fill:#312280"/><path d="M367.32.14q51.94.18,103.87,0c0,13.9.05,27.79,0,41.69-19.9.49-39.83.11-59.75.19-.11,8.72-.77,17.54.48,26.2,19.83-.14,39.65,0,59.48,0-.41,13.34,0,26.7-.24,40-19.74.08-39.47,0-59.21,0-1.27,7.08-.48,14.29-.69,21.44,0,5.14-.31,10.33.63,15.43,19.59-.13,39.19-.27,58.78,0,1.32,3.93.23,8.4.55,12.54.39,9-.92,18.08,1,26.91,7.09-7,13.25-14.9,20.23-22,5.84-7.45,12.58-14.1,18.7-21.31,4-4.57,8.73-8.6,12.08-13.72a14,14,0,0,0-1.78-2.72q-14.88-16.67-29.76-33.28c-6.54-7.89-14.13-14.9-20.16-23.19,13-.43,26-.09,39-.2,5.32.12,10.66-.29,16,.2C536,77,543.44,87.86,553.3,96.23c6.9-8.06,14.17-15.77,20.88-24,1.7-1.83,3.37-4.61,6.28-4.13,16.91.13,33.83-.22,50.74.19a57.3,57.3,0,0,1-7.57,9.37c-14.56,16.41-29.44,32.54-43.7,49.2,5.17,8,12.81,14.17,18.76,21.64,8.3,8.71,16.17,17.81,24.27,26.71,3.24,3.81,6.87,7.32,9.5,11.61-17,.26-34,0-51,.11-2-.11-4.37.34-5.85-1.34-8.28-9.3-16.4-18.79-25-27.81-7.44,8.5-15.27,16.65-22.42,25.41-1.53,1.7-3,4.13-5.69,3.71q-99.61.07-199.25-.1c-.07-4-.19-8,.09-12l.37-.55q-.06,6.06.07,12.13c14.48,0,29,.28,43.44-.18-.18-25.85,0-51.71-.08-77.56C367.28,72.51,367,36.32,367.32.14Z" style="fill:#ea6214"/><path d="M653.87,162.77c7-2.09,15.57,4.35,14.46,11.91,1.31,9.21-10.8,14.81-18,10.15C641.12,180.48,643.67,164.29,653.87,162.77Zm.12,2.45c-3.89,1.17-7.54,5.16-7,9.46-.53,7,8.26,11.85,14.14,8.54,6.2-2.8,6.94-12.66,1.41-16.5C660,165,656.9,164.92,654,165.22Z" style="fill:#ea6214"/><path d="M651.82,167.19c3.11.1,6.52-.63,9.38.93a116.5,116.5,0,0,0,.56,12.53l-1,2.23c-1.64-2.9-2.3-6.5-5.24-8.45-.71,2.6-1.32,5.24-2,7.85C650.43,177.9,652.5,172.17,651.82,167.19Zm3,2.73c0,1.14.09,2.28.14,3.43,1-.09,2.07-.17,3.11-.24.13-1,.26-2.09.4-3.13Z" style="fill:#ea6214"/></g></g></svg>