<svg xmlns="http://www.w3.org/2000/svg" width="409.6" height="409.6" viewBox="0 0 409.6 409.6"><g id="Layer_2" data-name="Layer 2"><g id="Layer_1-2" data-name="Layer 1"><path d="M409.6,204.8c0,113.11-91.69,204.8-204.8,204.8S0,317.91,0,204.8,91.69,0,204.8,0,409.6,91.69,409.6,204.8Z" style="fill:#f0f0f0"/><path d="M42.34,80.11A204.15,204.15,0,0,0,7.05,151.38H113.6Z" style="fill:#0052b4"/><path d="M402.54,151.38a204.11,204.11,0,0,0-35.27-71.27L296,151.38Z" style="fill:#0052b4"/><path d="M7.05,258.23a204.19,204.19,0,0,0,35.29,71.26l71.25-71.26Z" style="fill:#0052b4"/><path d="M329.49,42.34A204.28,204.28,0,0,0,258.23,7.05V113.6Z" style="fill:#0052b4"/><path d="M80.11,367.26a204,204,0,0,0,71.26,35.28V296Z" style="fill:#0052b4"/><path d="M151.37,7.05A204.19,204.19,0,0,0,80.11,42.34l71.26,71.26Z" style="fill:#0052b4"/><path d="M258.23,402.54a204.15,204.15,0,0,0,71.26-35.27L258.23,296Z" style="fill:#0052b4"/><path d="M296,258.23l71.27,71.26a204.15,204.15,0,0,0,35.27-71.26Z" style="fill:#0052b4"/><path d="M407.87,178.09H231.51V1.73a207.06,207.06,0,0,0-53.42,0V178.09H1.73a207.06,207.06,0,0,0,0,53.42H178.09V407.87a207.06,207.06,0,0,0,53.42,0V231.51H407.87a207.06,207.06,0,0,0,0-53.42Z" style="fill:#d80027"/><path d="M258.23,258.23l91.38,91.39q6.31-6.31,12-13.15l-78.24-78.24Z" style="fill:#d80027"/><path d="M151.37,258.23h0L60,349.61q6.32,6.31,13.15,12l78.24-78.24Z" style="fill:#d80027"/><path d="M151.37,151.38,60,60q-6.3,6.32-12,13.15l78.24,78.25Z" style="fill:#d80027"/><path d="M258.23,151.38,349.62,60q-6.31-6.3-13.15-12l-78.24,78.24Z" style="fill:#d80027"/></g></g></svg>