<svg xmlns="http://www.w3.org/2000/svg" width="67" height="62" viewBox="0 0 67 62"><g id="Layer_2" data-name="Layer 2"><g id="Layer_1-2" data-name="Layer 1"><circle cx="56" cy="11" r="11" style="fill:#faaf42"/><path d="M26,15a3,3,0,0,1,3-3H39V10H29a5,5,0,0,0-5,5H22.76L0,26.38V32H2v4H4V52H2v4H0v6H50V56H48V52H46V36h2V32h2V26.38L27.24,15ZM40,36V52H38v4H36V52H34V36h2V32h2v4Zm-8,0V52H30V36Zm2,18v2H28V54Zm0-20H28V32h6Zm-6,2V52H26v4H24V52H22V36h2V32h2v4Zm-8,0V52H18V36Zm2,18v2H16V54Zm0-20H16V32h6Zm-6,2V52H14v4H12V52H10V36h2V32h2v4Zm-6-2H4V32h6ZM6,36H8V52H6ZM4,54h6v2H4Zm44,6H2V58H48Zm-8-4V54h6v2Zm4-4H42V36h2Zm2-18H40V32h6Zm2-4H2V27.62L23.24,17H24v7h2V17h.76L48,27.62Z" style="fill:#5a595b"/><rect x="8" y="26" width="34" height="2" style="fill:#5a595b"/><path d="M56,0A11,11,0,1,0,67,11,11,11,0,0,0,56,0Zm0,20a9,9,0,1,1,9-9A9,9,0,0,1,56,20Z" style="fill:#5a595b"/><path d="M55,8h2a1,1,0,0,1,1,1h2a3,3,0,0,0-3-3V4H55V6a3,3,0,0,0,0,6h2a1,1,0,0,1,0,2H55a1,1,0,0,1-1-1H52a3,3,0,0,0,3,3v2h2V16a3,3,0,0,0,0-6H55a1,1,0,0,1,0-2Z" style="fill:#5a595b"/><rect x="41" y="10" width="2" height="2" style="fill:#5a595b"/><path d="M61,39a3,3,0,0,1-3,3H52v2h6a5,5,0,0,0,5-5V23H61Z" style="fill:#5a595b"/><rect x="48" y="42" width="2" height="2" style="fill:#5a595b"/><rect x="30" y="36" width="2" height="16" style="fill:#faaf42"/><rect x="18" y="36" width="2" height="16" style="fill:#faaf42"/><rect x="6" y="36" width="2" height="16" style="fill:#faaf42"/><rect x="42" y="36" width="2" height="16" style="fill:#faaf42"/></g></g></svg>