<svg xmlns="http://www.w3.org/2000/svg" width="54" height="51" viewBox="0 0 54 51"><g id="Layer_2" data-name="Layer 2"><g id="Layer_1-2" data-name="Layer 1"><rect x="10.55" y="9.05" width="32.9" height="19.9" style="fill:#faaf42"/><path d="M49,0H5A5,5,0,0,0,0,5V39a5,5,0,0,0,5,5h8v5H9v2H45V49H41V44h8a5,5,0,0,0,5-5V5A5,5,0,0,0,49,0ZM39,49H15V44H39ZM52,39a3,3,0,0,1-3,3H5a3,3,0,0,1-3-3V38H52Zm0-28V36H2V5A3,3,0,0,1,5,2H49a3,3,0,0,1,3,3Z" style="fill:#5a595b"/><path d="M43.45,29H10.55V9.05h32.9Zm-31-1.9h29.1V11H12.45Z" style="fill:#5a595b"/><path d="M19.25,13.75v1.5a2.25,2.25,0,0,0,0,4.5h1.5a.75.75,0,0,1,0,1.5h-1.5a.76.76,0,0,1-.75-.75H17a2.25,2.25,0,0,0,2.25,2.25v1.5h1.5v-1.5a2.25,2.25,0,0,0,0-4.5h-1.5a.75.75,0,0,1,0-1.5h1.5a.76.76,0,0,1,.75.75H23a2.25,2.25,0,0,0-2.25-2.25v-1.5Z" style="fill:#5a595b"/><rect x="26.7" y="13.75" width="11" height="1.9" style="fill:#5a595b"/><rect x="26.7" y="18.05" width="11" height="1.9" style="fill:#5a595b"/><rect x="26.7" y="22.35" width="11" height="1.9" style="fill:#5a595b"/></g></g></svg>