<svg xmlns="http://www.w3.org/2000/svg" width="62" height="62" viewBox="0 0 62 62"><g id="Layer_2" data-name="Layer 2"><g id="Layer_1-2" data-name="Layer 1"><circle cx="11.53" cy="51" r="9" style="fill:#faaf42"/><path d="M62,41V9H56V5A5,5,0,0,0,46,5V9H0V41H22.05A11,11,0,0,0,44,41h2v2.9l-1.09,5.43L51,55.41l6.09-6.08L56,43.9V41ZM60,11V39H56V34h2V32H56V28h2V26H56V22h2V20H56V16h2V14H56V11ZM52,43V39H50v4H48L48,9h6V43ZM51,2a3,3,0,0,1,3,3V7H48V5A3,3,0,0,1,51,2ZM33,49a9,9,0,0,1-8.94-8H34a1,1,0,0,1,0,2H32a1,1,0,0,1-1-1H29a3,3,0,0,0,3,3v2h2V45a3,3,0,0,0,2.82-4h5.12A9,9,0,0,1,33,49ZM14,39H2V11H46v3H30v2H46v4H30v2H46v4H30v2H46v4H42v2h4v5ZM52,51.59V48H50v3.59l-2.91-2.92L47.82,45H54.2l.71,3.67Z" style="fill:#5a595b"/><path d="M9,21.5v2.62h2v5H9v2H23v-2H21v-5h2V21.5L16,18Zm4,2.62h2v5H13Zm6,5H17v-5h2Zm-6.76-7L16,20.24l3.76,1.88Z" style="fill:#5a595b"/><polygon points="52 43 52 39 50 39 50 43 47.98 43 48 9 54 9 54 43 52 43" style="fill:#faaf42"/><path d="M11.53,60a9,9,0,1,0-9-9A9,9,0,0,0,11.53,60Zm1-8h-2a3,3,0,1,1,0-6V44h2v2a3,3,0,0,1,3,3h-2a1,1,0,0,0-1-1h-2a1,1,0,0,0,0,2h2a3,3,0,1,1,0,6v2h-2V56a3,3,0,0,1-3-3h2a1,1,0,0,0,1,1h2a1,1,0,1,0,0-2Z" style="fill:none"/><line x1="6.98" y1="41" x2="1.48" y2="41" style="fill:none;stroke:#5a595b;stroke-linecap:round;stroke-linejoin:round;stroke-width:0px"/><path d="M.53,51A11,11,0,1,0,16.09,41H7A11,11,0,0,0,.53,51Zm11-9a9,9,0,1,1-9,9A9,9,0,0,1,11.53,42Z" style="fill:#5a595b"/><path d="M12.53,54h-2a1,1,0,0,1-1-1h-2a3,3,0,0,0,3,3v2h2V56a3,3,0,1,0,0-6h-2a1,1,0,0,1,0-2h2a1,1,0,0,1,1,1h2a3,3,0,0,0-3-3V44h-2v2a3,3,0,1,0,0,6h2a1,1,0,1,1,0,2Z" style="fill:#5a595b"/></g></g></svg>