<svg xmlns="http://www.w3.org/2000/svg" width="409.6" height="409.6" viewBox="0 0 409.6 409.6"><g id="Layer_2" data-name="Layer 2"><g id="Layer_1-2" data-name="Layer 1"><path d="M409.6,204.8c0,113.11-91.69,204.8-204.8,204.8S0,317.91,0,204.8,91.69,0,204.8,0,409.6,91.69,409.6,204.8Z" style="fill:#d80027"/><path d="M226,154.93c-4.66,19.36-12.93,15.67-17,32.55a44.52,44.52,0,1,1,20.81-86.57c-8.11,33.76.34,36.71-3.82,54Z" style="fill:#f0f0f0"/><path d="M163.91,169.28c17,10.41,10.91,17.13,25.71,26.21a44.52,44.52,0,1,1-75.91-46.55c29.6,18.16,35,11,50.2,20.34Z" style="fill:#f0f0f0"/><path d="M158.38,232.72c15.15-12.93,19.67-5.08,32.87-16.36a44.52,44.52,0,1,1-67.72,57.81c26.41-22.54,21.31-29.9,34.85-41.45Z" style="fill:#f0f0f0"/><path d="M217,257.57c-7.61-18.39,1.25-20.27-5.39-36.31a44.52,44.52,0,1,1,34,82.27c-13.28-32.08-21.85-29.5-28.66-46Z" style="fill:#f0f0f0"/><path d="M258.76,209.5c-19.85,1.56-18.9-7.45-36.21-6.09a44.52,44.52,0,1,1,88.77-7c-34.62,2.71-34.81,11.66-52.56,13.05Z" style="fill:#f0f0f0"/></g></g></svg>