<svg xmlns="http://www.w3.org/2000/svg" width="409.6" height="409.6" viewBox="0 0 409.6 409.6"><g id="Layer_2" data-name="Layer 2"><g id="Layer_1-2" data-name="Layer 1"><path d="M409.6,204.8c0,113.11-91.69,204.8-204.8,204.8S0,317.91,0,204.8,91.69,0,204.8,0,409.6,91.69,409.6,204.8Z" style="fill:#f0f0f0"/><path d="M204.8,0A204.81,204.81,0,0,0,20.32,115.76h369A204.81,204.81,0,0,0,204.8,0Z" style="fill:#ff9811"/><path d="M204.8,409.6A204.81,204.81,0,0,0,389.28,293.84h-369A204.81,204.81,0,0,0,204.8,409.6Z" style="fill:#6da544"/><path d="M276,204.8a71.23,71.23,0,1,1-71.23-71.23A71.24,71.24,0,0,1,276,204.8Z" style="fill:#0052b4"/><path d="M249.32,204.8a44.52,44.52,0,1,1-44.52-44.52,44.52,44.52,0,0,1,44.52,44.52Z" style="fill:#f0f0f0"/><path d="M204.8,149.86,218.54,181l33.84-3.68L232.27,204.8l20.11,27.47-33.84-3.68L204.8,259.74l-13.73-31.15-33.85,3.68,20.11-27.47-20.11-27.47L191.07,181Z" style="fill:#0052b4"/></g></g></svg>