<svg xmlns="http://www.w3.org/2000/svg" width="409.6" height="409.6" viewBox="0 0 409.6 409.6"><g id="Layer_2" data-name="Layer 2"><g id="Layer_1-2" data-name="Layer 1"><path d="M409.6,204.8c0,113.11-91.69,204.8-204.8,204.8S0,317.91,0,204.8,91.69,0,204.8,0,409.6,91.69,409.6,204.8Z" style="fill:#f0f0f0"/><path d="M276,204.8c0,17.81-31.89,62.33-71.23,62.33s-71.23-44.52-71.23-62.33a71.23,71.23,0,1,1,142.46,0Z" style="fill:#d80027"/><path d="M276,204.8a71.23,71.23,0,1,1-142.46,0" style="fill:#0052b4"/><path d="M280.35,267.77l18.89-18.89,12.6,12.59-18.9,18.89Z"/><path d="M248.87,299.25l18.89-18.89L280.35,293l-18.89,18.89Z"/><path d="M318.14,305.54,337,286.65l12.6,12.59-18.89,18.89Z"/><path d="M286.65,337l18.89-18.89,12.59,12.6-18.89,18.89Z"/><path d="M299.24,286.65l18.89-18.89,12.6,12.6-18.89,18.88Z"/><path d="M267.77,318.13l18.89-18.88,12.59,12.59-18.89,18.89Z"/><path d="M318.14,141.83,267.77,91.46l12.59-12.59,50.37,50.37Z"/><path d="M267.77,129.25l-18.89-18.89,12.59-12.59,18.89,18.89Z"/><path d="M299.25,160.73l-18.89-18.89L293,129.25l18.89,18.88Z"/><path d="M305.53,91.47,286.64,72.58,299.23,60l18.89,18.89Z"/><path d="M337,123l-18.89-18.89,12.59-12.59,18.89,18.89Z"/><path d="M72.58,286.65,123,337l-12.6,12.6L60,299.25Z"/><path d="M122.94,299.24l18.89,18.89-12.59,12.59-18.89-18.89Z"/><path d="M91.46,267.76l18.89,18.89L97.76,299.24,78.87,280.36Z"/><path d="M110.35,248.88l50.37,50.36-12.59,12.6L97.76,261.47Z"/><path d="M122.94,72.58,72.58,123,60,110.35,110.35,60Z"/><path d="M141.83,91.46,91.46,141.83,78.87,129.24l50.37-50.37Z"/><path d="M160.73,110.36l-50.37,50.37L97.77,148.14l50.37-50.37Z"/></g></g></svg>