<svg xmlns="http://www.w3.org/2000/svg" width="60" height="50.17" viewBox="0 0 60 50.17"><g id="Layer_2" data-name="Layer 2"><g id="icons"><path d="M38.6,44.28V35.54H21.39v8.74ZM23.37,37.51H36.63v4.8H23.37Z" style="fill:#5a595b"/><rect x="32.82" y="27.72" width="1.98" height="1.98" style="fill:#5a595b"/><path d="M52.66,33.08V24.34H7.33v8.74ZM16.08,26.31H50.69v4.8H16.08Zm-6.77,0H14.1v4.8H9.31Z" style="fill:#5a595b"/><rect x="36.63" y="27.72" width="1.98" height="1.98" style="fill:#5a595b"/><rect x="21.39" y="27.72" width="1.98" height="1.98" style="fill:#5a595b"/><rect x="21.39" y="16.52" width="17.21" height="1.98" style="fill:#5a595b"/><rect x="25.2" y="27.72" width="1.98" height="1.98" style="fill:#5a595b"/><rect x="29.01" y="27.72" width="1.98" height="1.98" style="fill:#5a595b"/><rect x="14.26" y="3.63" width="1.98" height="1.98" style="fill:#5a595b"/><rect x="9.91" y="3.63" width="1.98" height="1.98" style="fill:#5a595b"/><path d="M0,0V50.17H60V0ZM58,48.19H2v-39H58ZM58,7.25H2V2H58Z" style="fill:#5a595b"/><rect x="5.56" y="3.63" width="1.98" height="1.98" style="fill:#5a595b"/><path d="M52.66,21.88V13.13H7.33v8.75ZM16.08,15.11H50.69V19.9H16.08Zm-6.77,0H14.1V19.9H9.31Z" style="fill:#5a595b"/><rect x="23.37" y="37.51" width="13.25" height="4.79" style="fill:#faaf42"/><rect x="1.98" y="1.98" width="56.04" height="5.28" style="fill:#faaf42"/></g></g></svg>