<svg xmlns="http://www.w3.org/2000/svg" width="144.01" height="60" viewBox="0 0 144.01 60"><g id="Layer_2" data-name="Layer 2"><g id="Layer_1-2" data-name="Layer 1"><polygon points="144.01 3.34 135.25 3.34 130.09 11.43 134.53 17.59 144.01 3.34" style="fill:#faaf42"/><polygon points="115.11 31.72 124.25 31.72 127.73 25.99 131.63 31.72 140.76 31.72 124.31 9.01 115.63 9.01 123.25 19.81 115.11 31.72" style="fill:#5a595b"/><path d="M56.31,1.11A3.8,3.8,0,0,1,59.14,0a3.64,3.64,0,0,1,2.79,1.11,3.88,3.88,0,0,1,1,2.82,3.71,3.71,0,0,1-1.06,2.72,3.66,3.66,0,0,1-2.78,1.09,3.77,3.77,0,0,1-2.78-1.09,3.72,3.72,0,0,1-1.07-2.72A3.94,3.94,0,0,1,56.31,1.11Z" style="fill:#5a595b"/><rect x="55.24" y="9.01" width="7.74" height="22.71" style="fill:#5a595b"/><path d="M75.9,9.92a8.13,8.13,0,0,1,4.26-1.21v8.45H77.87a6.5,6.5,0,0,0-4,1,4.29,4.29,0,0,0-1.33,3.56v10H64.62V8.91h7.93v4.23A10.51,10.51,0,0,1,75.9,9.92Z" style="fill:#5a595b"/><path d="M98.06,10.88a9.77,9.77,0,0,1,3.31,5.88H94A2.88,2.88,0,0,0,92.82,15a3.56,3.56,0,0,0-2.09-.59,2.08,2.08,0,0,0-1.34.38A1.29,1.29,0,0,0,89.93,17,20.11,20.11,0,0,0,93.1,18a30.19,30.19,0,0,1,4.31,1.19,7.73,7.73,0,0,1,3,2.14,5.25,5.25,0,0,1,1.17,3.76,5.67,5.67,0,0,1-1.07,3.45,6.9,6.9,0,0,1-3.13,2.35,12,12,0,0,1-4.83.85,12.28,12.28,0,0,1-7.49-2A8.36,8.36,0,0,1,81.56,24h7.67a2.45,2.45,0,0,0,1.06,1.85,3.69,3.69,0,0,0,2.21.6,2.15,2.15,0,0,0,1.44-.4,1.12,1.12,0,0,0,.46-1,1.47,1.47,0,0,0-1-1.41,17.67,17.67,0,0,0-3.28-.89,27.29,27.29,0,0,1-4.23-1.15,7,7,0,0,1-2.88-2,5.61,5.61,0,0,1-1.23-3.84,6.33,6.33,0,0,1,2.36-5.06A10.88,10.88,0,0,1,91,8.7,10.8,10.8,0,0,1,98.06,10.88Z" style="fill:#5a595b"/><path d="M115.11,25v6.71h-3.22a9.17,9.17,0,0,1-6.36-2c-1.56-1.37-2.29-3.59-2.29-6.75v-6.2H99.1V9h4.14V3.34H111V9h4.64v7.75h-4.13v6.32a2,2,0,0,0,.46,1.49,2.18,2.18,0,0,0,1.55.44Z" style="fill:#5a595b"/><path d="M51.91,6.76a3.17,3.17,0,0,0-2,.55A2.7,2.7,0,0,0,49.08,9h4.61v7.75H49.06v15H41.13v-15H37.64V9h3.49A8.46,8.46,0,0,1,43.7,2.4Q46.28,0,51.11,0c.35,0,1.83,0,2.58.08V6.8Z" style="fill:#5a595b"/><path d="M38.8,21.22a7.38,7.38,0,0,0-2.92-2.06A32.11,32.11,0,0,0,31.63,18a18.91,18.91,0,0,1-3.18-1,1.35,1.35,0,0,1-1-1.25,1.33,1.33,0,0,1,.46-1,2.08,2.08,0,0,1,1.32-.38,3.51,3.51,0,0,1,2.07.6,2.86,2.86,0,0,1,1.13,1.8h7a9.24,9.24,0,0,0-3.24-5.63A10.57,10.57,0,0,0,29.37,9a10.62,10.62,0,0,0-6.13,1.59V9H15.49V21.22a4.32,4.32,0,0,1-1.06,3.15,3.67,3.67,0,0,1-2.85,1.12,3.66,3.66,0,0,1-2.79-1.1,4.19,4.19,0,0,1-1-3V9H0V22.34a10.4,10.4,0,0,0,2.23,7c1.48,1.71,3.52,2.34,6.11,2.34a8.43,8.43,0,0,0,4.34-.84A7.09,7.09,0,0,0,15.49,28v3.72h7.75V29.38l.41.32a12.24,12.24,0,0,0,7.43,2,12.25,12.25,0,0,0,4.8-.85A6.86,6.86,0,0,0,39,28.51a5.75,5.75,0,0,0,1-3.44A5.6,5.6,0,0,0,38.8,21.22ZM32.44,26a2.05,2.05,0,0,1-1.38.39,3.87,3.87,0,0,1-2.24-.59,2.51,2.51,0,0,1-1-1.84H23.24V20.91a6.75,6.75,0,0,0,1.28.66,26.39,26.39,0,0,0,4.16,1.13,18.56,18.56,0,0,1,3.23.88,1.47,1.47,0,0,1,1,1.4A1.26,1.26,0,0,1,32.44,26Z" style="fill:#faaf42"/><rect x="0.01" y="38.68" width="144" height="21.32" style="fill:#5a595b"/><path d="M8.2,45v5a1.84,1.84,0,0,0,.33,1.14,1.18,1.18,0,0,0,1,.4,1.21,1.21,0,0,0,1-.4A1.66,1.66,0,0,0,10.87,50V45h2.42v5a4.13,4.13,0,0,1-.5,2.1,3.16,3.16,0,0,1-1.36,1.3,4.22,4.22,0,0,1-1.95.44,4,4,0,0,1-1.92-.43,3.16,3.16,0,0,1-1.31-1.3A4.52,4.52,0,0,1,5.79,50V45Z" style="fill:#fff"/><path d="M21.34,52.53a2.43,2.43,0,0,1-1.09.94,3.74,3.74,0,0,1-1.72.35A4,4,0,0,1,16,53.09,2.67,2.67,0,0,1,15,51h2.58a1,1,0,0,0,.28.68.88.88,0,0,0,.61.22.73.73,0,0,0,.5-.16.56.56,0,0,0,.18-.46.66.66,0,0,0-.36-.61,7.21,7.21,0,0,0-1.14-.48,9.92,9.92,0,0,1-1.36-.55,2.53,2.53,0,0,1-.93-.82A2.35,2.35,0,0,1,15,47.43,2.4,2.4,0,0,1,15.4,46a2.87,2.87,0,0,1,1.15-.89,4.68,4.68,0,0,1,1.65-.3,3.81,3.81,0,0,1,2.41.71,2.66,2.66,0,0,1,1,2H18.94a1,1,0,0,0-.25-.6.76.76,0,0,0-.54-.2.71.71,0,0,0-.44.15.6.6,0,0,0-.16.44.64.64,0,0,0,.35.58,5.6,5.6,0,0,0,1.1.47,12.79,12.79,0,0,1,1.37.58,2.69,2.69,0,0,1,.94.83,2.21,2.21,0,0,1,.4,1.4A2.41,2.41,0,0,1,21.34,52.53Z" style="fill:#fff"/><path d="M32.22,45v1.94h-3.5V48.5h2.61v1.82H28.72v3.42H26.29V45Z" style="fill:#fff"/><path d="M36.27,45v8.74H33.84V45Z" style="fill:#fff"/><path d="M42.68,53.73l-1.77-3.22h-.24v3.22H38.23V45h3.84a3.92,3.92,0,0,1,1.79.37,2.54,2.54,0,0,1,1.1,1,2.78,2.78,0,0,1,.37,1.45,2.48,2.48,0,0,1-.5,1.58,2.67,2.67,0,0,1-1.46,1l2,3.39Zm-2-4.85h1.19c.68,0,1-.3,1-.91a.88.88,0,0,0-.25-.68,1,1,0,0,0-.76-.25H40.67Z" style="fill:#fff"/><path d="M53.06,52.53a2.43,2.43,0,0,1-1.09.94,3.72,3.72,0,0,1-1.71.35,3.93,3.93,0,0,1-2.5-.73A2.64,2.64,0,0,1,46.69,51h2.58a1,1,0,0,0,.28.68.88.88,0,0,0,.61.22.73.73,0,0,0,.5-.16.56.56,0,0,0,.18-.46.66.66,0,0,0-.36-.61,7.21,7.21,0,0,0-1.14-.48A9.45,9.45,0,0,1,48,49.66a2.53,2.53,0,0,1-.93-.82,2.35,2.35,0,0,1-.39-1.39,2.4,2.4,0,0,1,.42-1.4,2.87,2.87,0,0,1,1.15-.89,4.51,4.51,0,0,1,1.66-.3,3.79,3.79,0,0,1,2.4.71,2.66,2.66,0,0,1,1,2H50.66a.87.87,0,0,0-.25-.6.78.78,0,0,0-1,0,.6.6,0,0,0-.16.44.65.65,0,0,0,.35.58,5.36,5.36,0,0,0,1.11.47A12.79,12.79,0,0,1,52.1,49a2.66,2.66,0,0,1,.93.83,2.21,2.21,0,0,1,.4,1.4A2.32,2.32,0,0,1,53.06,52.53Z" style="fill:#fff"/><path d="M61.69,45v1.94H59.33v6.8H56.91v-6.8H54.58V45Z" style="fill:#fff"/><path d="M68.44,46.93v1.45h2.82v1.83H68.44v1.58h3.19v1.94H66V45h5.62v1.94Z" style="fill:#fff"/><path d="M78.79,53.73l-1.71-2.48-1.46,2.48H72.86l2.82-4.49L72.74,45h2.88l1.67,2.41L78.69,45h2.78l-2.8,4.41,3,4.33Z" style="fill:#fff"/><path d="M89,45.32a3.82,3.82,0,0,1,1.44,1.17,4.3,4.3,0,0,1,.75,1.76H88.68a1.74,1.74,0,0,0-.66-.81,1.83,1.83,0,0,0-1-.29,1.64,1.64,0,0,0-1.3.6,2.87,2.87,0,0,0,0,3.2,1.59,1.59,0,0,0,1.3.61,1.68,1.68,0,0,0,1-.3,1.6,1.6,0,0,0,.66-.81h2.55a3.93,3.93,0,0,1-1.4,2.44,4.25,4.25,0,0,1-2.79.9,4.32,4.32,0,0,1-2.27-.56,3.82,3.82,0,0,1-1.49-1.57,5.34,5.34,0,0,1,0-4.62,4,4,0,0,1,1.49-1.57A4.52,4.52,0,0,1,87,44.91,4.72,4.72,0,0,1,89,45.32Z" style="fill:#fff"/><path d="M100.75,45v8.74H98.33V50.2h-3v3.53H92.94V45h2.43v3.27h3V45Z" style="fill:#fff"/><path d="M108.23,52.28h-3.1l-.48,1.45H102.1l3.19-8.7h2.8l3.19,8.7h-2.57Zm-.6-1.83-.94-2.84-1,2.84Z" style="fill:#fff"/><path d="M120.68,53.73h-2.43L115,48.86v4.87h-2.4V45H115l3.21,4.93V45h2.43Z" style="fill:#fff"/><path d="M129.53,45.73a3.35,3.35,0,0,1,1.3,2.2h-2.56a1.39,1.39,0,0,0-.58-.57,2,2,0,0,0-.9-.21,1.81,1.81,0,0,0-1.41.6,2.37,2.37,0,0,0-.52,1.6,2.42,2.42,0,0,0,.56,1.72,2.13,2.13,0,0,0,1.64.59,1.93,1.93,0,0,0,1.83-1.17h-2.42V48.76h4.43v2.4A4.4,4.4,0,0,1,129.4,53a4.12,4.12,0,0,1-2.59.77,4.57,4.57,0,0,1-2.34-.56,3.8,3.8,0,0,1-1.53-1.57,5.19,5.19,0,0,1,0-4.61,4,4,0,0,1,1.52-1.57,4.85,4.85,0,0,1,2.32-.56A4.47,4.47,0,0,1,129.53,45.73Z" style="fill:#fff"/><path d="M135,46.93v1.45h2.82v1.83H135v1.58h3.19v1.94h-5.59V45h5.62v1.94Z" style="fill:#fff"/></g></g></svg>