<svg xmlns="http://www.w3.org/2000/svg" width="180.62mm" height="124.56mm" viewBox="0 0 512 353.1"><g id="Layer_2" data-name="Layer 2"><g id="Capa_1" data-name="Capa 1"><path d="M512,322.83a30.27,30.27,0,0,1-30.27,30.27H30.26A30.26,30.26,0,0,1,0,322.83V30.27A30.26,30.26,0,0,1,30.26,0H481.73A30.27,30.27,0,0,1,512,30.27V322.83Z" style="fill:#101820"/><g id="Circles_only" data-name="Circles only"><rect x="210.3" y="94.84" width="90.93" height="163.42" style="fill:#ea5b0c"/><path d="M216.3,176.55A103.74,103.74,0,0,1,256,94.84a103.92,103.92,0,1,0,0,163.42,103.74,103.74,0,0,1-39.7-81.71" style="fill:#df1612"/><path d="M414.23,240.94V237.6h1.35v-.68h-3.44v.68h1.35v3.34Zm6.67,0v-4h-1l-1.22,2.78-1.21-2.78h-1.05v4h.74v-3l1.14,2.62H419l1.13-2.62v3Z" style="fill:#f59e00"/><path d="M320.22,72.62A103.45,103.45,0,0,0,256,94.84a103.94,103.94,0,0,1,0,163.42A103.93,103.93,0,1,0,320.22,72.62" style="fill:#f59e00"/></g></g></g></svg>