<svg xmlns="http://www.w3.org/2000/svg" width="409.6" height="409.6" viewBox="0 0 409.6 409.6"><g id="Layer_2" data-name="Layer 2"><g id="Layer_1-2" data-name="Layer 1"><path d="M409.6,204.8c0,113.11-91.69,204.8-204.8,204.8S0,317.91,0,204.8,91.69,0,204.8,0,409.6,91.69,409.6,204.8Z" style="fill:#f0f0f0"/><path d="M409.6,204.8A204.82,204.82,0,0,0,293.84,20.32v369A204.81,204.81,0,0,0,409.6,204.8Z" style="fill:#d80027"/><path d="M0,204.8A204.81,204.81,0,0,0,115.76,389.28v-369A204.82,204.82,0,0,0,0,204.8Z" style="fill:#6da544"/><path d="M151.37,204.8a53.43,53.43,0,0,0,106.86,0V187H151.37Z" style="fill:#6da544"/><path d="M276,169.18H222.61a17.81,17.81,0,0,0-35.62,0H133.56c0,9.84,8.57,17.81,18.4,17.81h-.59a17.81,17.81,0,0,0,17.81,17.81A17.81,17.81,0,0,0,187,222.61h35.62a17.81,17.81,0,0,0,17.81-17.81A17.81,17.81,0,0,0,258.23,187h-.6c9.84,0,18.4-8,18.4-17.81Z" style="fill:#ff9811"/></g></g></svg>