<svg xmlns="http://www.w3.org/2000/svg" width="409.6" height="409.6" viewBox="0 0 409.6 409.6"><g id="Layer_2" data-name="Layer 2"><g id="Layer_1-2" data-name="Layer 1"><path d="M409.6,204.8c0,113.11-91.69,204.8-204.8,204.8S0,317.91,0,204.8,91.69,0,204.8,0,409.6,91.69,409.6,204.8Z" style="fill:#f0f0f0"/><path d="M7.05,258.23A205.05,205.05,0,0,0,80.14,367.29V258.23Z" style="fill:#d80027"/><path d="M187,408.82q8.81.76,17.81.78c94.62,0,174.24-64.18,197.74-151.37H187Z" style="fill:#d80027"/><path d="M402.54,151.38C379,64.18,299.42,0,204.8,0q-9,0-17.81.78v150.6Z" style="fill:#d80027"/><path d="M80.14,42.32A205,205,0,0,0,7.05,151.38H80.14Z" style="fill:#d80027"/><path d="M407.87,178.09H160.28V4.87a203.68,203.68,0,0,0-53.43,20V178.09H1.73a207.06,207.06,0,0,0,0,53.42H106.85V384.7a203.33,203.33,0,0,0,53.43,20V231.51H407.87a207.06,207.06,0,0,0,0-53.42Z" style="fill:#0052b4"/></g></g></svg>