<svg xmlns="http://www.w3.org/2000/svg" width="409.6" height="409.6" viewBox="0 0 409.6 409.6"><g id="Layer_2" data-name="Layer 2"><g id="Layer_1-2" data-name="Layer 1"><path d="M409.6,204.8c0,113.11-91.69,204.8-204.8,204.8S0,317.91,0,204.8C0,204.85,204.8,0,204.8,0,317.91,0,409.6,91.69,409.6,204.8Z" style="fill:#0052b4"/><path d="M204.25,204.8h.55v-.55l-.55.55Z" style="fill:#f0f0f0"/><path d="M204.8,106.85V0h0C91.67,0,0,91.7,0,204.8H106.85V144.63L167,204.8h37.23l.55-.55V167l-60.17-60.17Z" style="fill:#f0f0f0"/><path d="M103.61,26.71a205.81,205.81,0,0,0-76.9,76.9V204.8H80.14V80.14H204.8V26.71Z" style="fill:#d80027"/><path d="M204.8,179.61,132,106.85H106.85l98,97.94Z" style="fill:#d80027"/><path d="M354.66,152l4.43,13.6h14.3L361.82,174l4.42,13.61-11.58-8.41-11.57,8.41L347.51,174l-11.57-8.41h14.3Z" style="fill:#d80027"/><path d="M303.53,249.91l6.63,20.41h21.46l-17.36,12.61,6.63,20.41-17.36-12.61-17.36,12.61,6.63-20.41-17.36-12.61H296.9Z" style="fill:#d80027"/><path d="M305.46,89.64l5.53,17h17.88l-14.47,10.5,5.53,17-14.47-10.51L291,134.16l5.52-17-14.47-10.5h17.88Z" style="fill:#d80027"/><path d="M256.26,151.38l6.63,20.4h21.45L267,184.4l6.64,20.4-17.36-12.61L238.9,204.8l6.63-20.4-17.36-12.62h21.45Z" style="fill:#d80027"/></g></g></svg>