<svg xmlns="http://www.w3.org/2000/svg" width="46.98" height="50.08" viewBox="0 0 46.98 50.08"><g id="Layer_2" data-name="Layer 2"><g id="icons"><polygon points="31.02 45.03 29.25 45.03 29.25 48.3 17.73 48.3 17.73 45.03 15.95 45.03 15.95 48.3 13.01 48.3 13.01 50.08 33.97 50.08 33.97 48.3 31.02 48.3 31.02 45.03" style="fill:#5a595b"/><path d="M46.25,6.34a2.47,2.47,0,0,0-1.76-.73h-8L30.86,0H10V5.61H2.48A2.49,2.49,0,0,0,0,8.09V40.84A2.5,2.5,0,0,0,.72,42.6a2.46,2.46,0,0,0,1.76.72h42A2.49,2.49,0,0,0,47,40.84V8.09A2.46,2.46,0,0,0,46.25,6.34ZM31.38,5.61V3L34,5.61Zm3.84,1.78V32.47H11.76V1.78H29.6V7.39ZM10,11.15V32.47H5.54V11.15ZM1.77,8.09A.75.75,0,0,1,2,7.59a.72.72,0,0,1,.5-.2H10v2H3.77V34.24H43.21V9.38H37v-2h7.5a.7.7,0,0,1,.71.7V36.23H1.77ZM37,32.47V11.15h4.44V32.47ZM45.2,38v2.83a.69.69,0,0,1-.21.51.7.7,0,0,1-.5.2h-42a.72.72,0,0,1-.71-.71V38Z" style="fill:#5a595b"/><rect x="22.12" y="24.55" width="9.87" height="1.77" style="fill:#5a595b"/><rect x="22.12" y="27.56" width="9.87" height="1.77" style="fill:#5a595b"/><polygon points="16.93 26.72 15.62 25.41 14.37 26.67 16.93 29.23 20.6 25.56 19.34 24.31 16.93 26.72" style="fill:#5a595b"/><rect x="22.12" y="17.77" width="9.87" height="1.77" style="fill:#5a595b"/><rect x="22.12" y="20.78" width="9.87" height="1.77" style="fill:#5a595b"/><polygon points="16.93 19.94 15.62 18.64 14.37 19.89 16.93 22.45 20.59 18.79 20.6 18.78 19.34 17.53 16.93 19.94" style="fill:#5a595b"/><rect x="22.12" y="10.99" width="9.87" height="1.78" style="fill:#5a595b"/><rect x="22.12" y="14" width="9.87" height="1.78" style="fill:#5a595b"/><polygon points="16.93 13.16 15.62 11.86 14.37 13.11 16.93 15.67 20.59 12.01 20.6 12 19.34 10.75 16.93 13.16" style="fill:#5a595b"/><path d="M1.77,8.09A.75.75,0,0,1,2,7.59a.72.72,0,0,1,.5-.2H10v2H3.77V34.24H43.21V9.38H37v-2h7.5a.7.7,0,0,1,.71.7V36.23H1.77Z" style="fill:#faaf42"/></g></g></svg>