<svg xmlns="http://www.w3.org/2000/svg" width="101.46mm" height="133.51mm" viewBox="0 0 287.62 378.44"><g id="Layer_2" data-name="Layer 2"><g id="Layer_1-2" data-name="Layer 1"><path d="M219.5,196.79H68.12a7.57,7.57,0,0,0-7.57,7.57v106a7.57,7.57,0,0,0,7.57,7.57H219.5a7.57,7.57,0,0,0,7.57-7.57v-106A7.57,7.57,0,0,0,219.5,196.79Zm-75.69,68.12A15.13,15.13,0,1,1,159,249.77,15.15,15.15,0,0,1,143.81,264.91Z" style="fill:#f8af43"/><path d="M68.12,181.65a22.71,22.71,0,0,0-22.71,22.71v106A22.71,22.71,0,0,0,68.12,333H219.5a22.7,22.7,0,0,0,22.7-22.71v-106a22.7,22.7,0,0,0-22.7-22.71Zm159,22.71v106a7.57,7.57,0,0,1-7.57,7.57H68.12a7.57,7.57,0,0,1-7.57-7.57v-106a7.57,7.57,0,0,1,7.57-7.57H219.5a7.57,7.57,0,0,1,7.57,7.57ZM143.81,0a98.52,98.52,0,0,0-98.4,98.4v37.84H22.71A22.71,22.71,0,0,0,0,159V355.74a22.7,22.7,0,0,0,22.71,22.7h242.2a22.7,22.7,0,0,0,22.71-22.7V159a22.71,22.71,0,0,0-22.71-22.71H242.2V98.4A98.5,98.5,0,0,0,143.81,0ZM60.55,98.4a83.26,83.26,0,0,1,166.52,0v37.84H60.55ZM272.48,159V355.74a7.58,7.58,0,0,1-7.57,7.57H22.71a7.58,7.58,0,0,1-7.57-7.57V159a7.57,7.57,0,0,1,7.57-7.57h242.2a7.57,7.57,0,0,1,7.57,7.57ZM143.81,219.5A30.21,30.21,0,0,0,136.24,279v16.22a7.57,7.57,0,0,0,15.14,0V279a30.21,30.21,0,0,0-7.57-59.47Zm0,45.41A15.13,15.13,0,1,1,159,249.77a15.15,15.15,0,0,1-15.14,15.14Z" style="fill:#5b5a5b"/></g></g></svg>