<svg xmlns="http://www.w3.org/2000/svg" width="140.92mm" height="134.76mm" viewBox="0 0 399.45 382"><g id="Layer_2" data-name="Layer 2"><g id="Layer_1-2" data-name="Layer 1"><circle cx="199.73" cy="287" r="79.55" transform="translate(-125.48 415.45) rotate(-76.72)" style="fill:#f8af43"/><path d="M135.36,141.91a7.73,7.73,0,0,0-10.92,0L37.16,229.18a7.72,7.72,0,0,0,5.48,13.18,7.66,7.66,0,0,0,5.45-2.25l87.27-87.27A7.73,7.73,0,0,0,135.36,141.91Z" style="fill:#5b5a5b"/><path d="M38.12,48.89,173.68,146.8a44,44,0,0,0,52,0L361.35,48.9a7.73,7.73,0,1,0-9.06-12.52l-135.64,98a28.6,28.6,0,0,1-33.87,0L47.16,36.38a7.72,7.72,0,1,0-9,12.51Z" style="fill:#5b5a5b"/><path d="M351.35,240.11a7.73,7.73,0,0,0,10.92-10.93L275,141.91a7.73,7.73,0,1,0-10.93,10.93Z" style="fill:#5b5a5b"/><path d="M199.73,382a95,95,0,1,0-95-95A95.11,95.11,0,0,0,199.73,382Zm0-174.54A79.55,79.55,0,1,1,120.18,287,79.63,79.63,0,0,1,199.73,207.46Z" style="fill:#5b5a5b"/><path d="M321.91,277.27h34.91a42.67,42.67,0,0,0,42.63-42.63v-192A42.68,42.68,0,0,0,356.82,0H42.64A42.69,42.69,0,0,0,0,42.64v192a42.68,42.68,0,0,0,42.64,42.63h34.9a7.73,7.73,0,1,0,0-15.45H42.64a27.22,27.22,0,0,1-27.19-27.18v-192A27.22,27.22,0,0,1,42.64,15.45H356.82A27.22,27.22,0,0,1,384,42.64v192a27.21,27.21,0,0,1-27.18,27.18H321.91a7.73,7.73,0,1,0,0,15.45Z" style="fill:#5b5a5b"/><path d="M161.6,287.61a8,8,0,0,0-11.34-.21,7.9,7.9,0,0,0-2.44,5.62,8,8,0,0,0,2.24,5.72L175.32,324a8,8,0,0,0,11.34,0l62.75-62.75A8,8,0,0,0,238,249.94L181,307Z" style="fill:#5b5a5b"/></g></g></svg>