<svg xmlns="http://www.w3.org/2000/svg" width="133mm" height="133mm" viewBox="0 0 377 377"><g id="Layer_2" data-name="Layer 2"><g id="Layer_1-2" data-name="Layer 1"><path d="M377,98.45A98.5,98.5,0,0,0,208.9,28.8l-180,180a98.5,98.5,0,1,0,139.3,139.3l180-180A97.93,97.93,0,0,0,377,98.45Zm-277.56,132a98.7,98.7,0,0,0,47.11,47.11l4.51,2.11-25.69,25.7a38,38,0,0,1-53.74-53.74l25.7-25.69Zm57.75,106.74A83,83,0,0,1,39.81,219.81l51.94-51.94-1.07,9.87a99.45,99.45,0,0,0,1.21,29.53l.36,1.82L60.67,240.67a53.5,53.5,0,0,0,75.66,75.66l31.57-31.58,1.83.36a99.37,99.37,0,0,0,29.52,1.21l9.88-1.08Zm90.05-90.05a83,83,0,0,1-117.4-117.37l39.54-39.53,20.86,20.86-39.52,39.52a53.5,53.5,0,0,0,75.66,75.66l90-90a53.5,53.5,0,0,0-75.66-75.66L201.2,100.14,180.34,79.28l39.47-39.47A83,83,0,0,1,337.24,157.14Zm4.44-175.56a38,38,0,0,1,53.74,53.74l-90,90a38,38,0,0,1-53.74-53.74Z" style="fill:#5b5a5b"/><path d="M157.19,337.19A83,83,0,0,1,39.81,219.81l51.94-51.94-1.07,9.87a99.45,99.45,0,0,0,1.21,29.53l.36,1.82L60.67,240.67a53.5,53.5,0,0,0,75.66,75.66l31.57-31.58,1.83.36a99.37,99.37,0,0,0,29.52,1.21l9.88-1.08Z" style="fill:#f8af43"/></g></g></svg>