<svg xmlns="http://www.w3.org/2000/svg" width="64" height="60" viewBox="0 0 64 60"><g id="Layer_2" data-name="Layer 2"><g id="icons"><rect x="2" y="55.92" width="50" height="2" style="fill:#fff"/><path d="M52,53.92H2v-40H20v-2H2v-2H22v16H32v-16h2A34.27,34.27,0,0,0,48.46,36.76a1,1,0,0,0,1.08,0A26.38,26.38,0,0,0,52,34.87Z" style="fill:#fff"/><path d="M62,8.92c0,15.22-10.48,23.9-13,25.77C46.47,32.83,36,24.17,36,8.92v-1h3a.92.92,0,0,0,.51-.15L49,2.08l9.49,5.69a.92.92,0,0,0,.51.15h3Z" style="fill:#fff"/><path d="M40,12c.48,8.37,6.86,15.48,9,17.61,2.11-2.14,8.49-9.25,9-17.61H56.71L49,7.18,41.29,12Z" style="fill:#faaf42"/><rect x="24" y="10" width="6" height="14" style="fill:#fff"/><path d="M49,37a1,1,0,0,1-.54-.16A34.22,34.22,0,0,1,34,9V7a1,1,0,0,1,1-1h3.72L48.49.14a1,1,0,0,1,1,0L59.28,6H63a1,1,0,0,1,1,1V9A34.22,34.22,0,0,1,49.54,36.84,1,1,0,0,1,49,37ZM36,8V9c0,15.25,10.47,23.91,13,25.78C51.52,32.91,62,24.22,62,9V8H59a1,1,0,0,1-.51-.14L49,2.17,39.51,7.86A1,1,0,0,1,39,8Z" style="fill:#5a595b"/><path d="M49,32.35l-.67-.61C47.91,31.36,38,22.31,38,11V10h2.71L49,4.82,57.29,10H60v1c0,11.31-9.91,20.36-10.33,20.74ZM40,12c.48,8.37,6.86,15.48,9,17.61,2.11-2.14,8.49-9.25,9-17.61H56.71L49,7.18,41.29,12Z" style="fill:#5a595b"/><rect x="6" y="16" width="2" height="2" style="fill:#5a595b"/><rect x="10" y="16" width="2" height="2" style="fill:#5a595b"/><rect x="14" y="16" width="2" height="2" style="fill:#5a595b"/><rect x="6" y="20" width="14" height="2" style="fill:#5a595b"/><rect x="6" y="24" width="6" height="2" style="fill:#5a595b"/><path d="M16,52H14V44a1,1,0,0,1,1-1h1.83L13,38.54,9.17,43H11a1,1,0,0,1,1,1v8H10V45H7a1,1,0,0,1-.91-.58,1,1,0,0,1,.15-1.07l6-7a1,1,0,0,1,1.52,0l6,7a1,1,0,0,1,.15,1.07A1,1,0,0,1,19,45H16Z" style="fill:#5a595b"/><path d="M44,52H42V44a1,1,0,0,1,1-1h1.83L41,38.54,37.17,43H39a1,1,0,0,1,1,1v8H38V45H35a1,1,0,0,1-.91-.58,1,1,0,0,1,.15-1.07l6-7a1,1,0,0,1,1.52,0l6,7a1,1,0,0,1,.15,1.07A1,1,0,0,1,47,45H44Z" style="fill:#5a595b"/><rect x="1" y="12" width="19" height="2" style="fill:#5a595b"/><rect x="1" y="54" width="52" height="2" style="fill:#5a595b"/><path d="M52,60H2a2,2,0,0,1-2-2V10A2,2,0,0,1,2,8H32V26H22V10H2V58H52V37h2V58A2,2,0,0,1,52,60ZM24,24h6V10H24Z" style="fill:#5a595b"/></g></g></svg>