<svg xmlns="http://www.w3.org/2000/svg" width="60.25" height="49" viewBox="0 0 60.25 49"><g id="Layer_2" data-name="Layer 2"><g id="icons"><path d="M15.12,20.87a4,4,0,0,1-1.75-.41V45.12a1.75,1.75,0,0,0,1.75,1.75h43v-26ZM54.37,39.49a4.81,4.81,0,0,0-3.63,3.63h-29a11.35,11.35,0,0,0,0-18.5h29a4.78,4.78,0,0,0,3.63,3.63Z" style="fill:#faaf42"/><path d="M2.13,5.88H50.62V11.5h2.13V3.88A3.88,3.88,0,0,0,48.87,0h-45A3.88,3.88,0,0,0,0,3.88V30.12A3.88,3.88,0,0,0,3.88,34H9.63V31.87H3.88a1.75,1.75,0,0,1-1.75-1.75V15.25h7.5V13.12H2.13Zm0-2.13A1.74,1.74,0,0,1,3.88,2.13h45a1.75,1.75,0,0,1,1.75,1.62Z" style="fill:#5a595b"/><rect x="3.75" y="20.62" width="5.88" height="2.13" style="fill:#5a595b"/><rect x="37.5" y="7.5" width="9.62" height="2.13" style="fill:#5a595b"/><rect x="31.87" y="7.5" width="4" height="2.13" style="fill:#5a595b"/><path d="M15.12,18.75a1.75,1.75,0,1,1,0-3.5h35.5v1.87h2.13v-4H15.12A3.88,3.88,0,0,0,11.25,17V45.12A3.88,3.88,0,0,0,15.12,49H60.25V18.75Zm0,28.12a1.75,1.75,0,0,1-1.75-1.75V20.46a4,4,0,0,0,1.75.41h43v26Z" style="fill:#5a595b"/><path d="M52.75,23.56V22.5H15v2.12h.12a9.25,9.25,0,1,1,0,18.5H15v2.13H52.75V44.19a2.68,2.68,0,0,1,2.69-2.69H56.5V26.25H55.44A2.69,2.69,0,0,1,52.75,23.56Zm-2,19.56h-29a11.35,11.35,0,0,0,0-18.5h29a4.78,4.78,0,0,0,3.63,3.63V39.49A4.81,4.81,0,0,0,50.74,43.12Z" style="fill:#5a595b"/><polygon points="33.75 31.19 34.69 31.19 34.69 38.69 36.81 38.69 36.81 29.06 33.75 29.06 33.75 31.19" style="fill:#5a595b"/><path d="M42.31,29.06H40.44a2,2,0,0,0-2,2v5.63a2,2,0,0,0,2,2h1.87a2,2,0,0,0,2-2V31.06A2,2,0,0,0,42.31,29.06Zm-.12,7.5H40.56V31.19h1.63Z" style="fill:#5a595b"/><rect x="45.94" y="32.81" width="2.13" height="2.13" style="fill:#5a595b"/><rect x="30" y="32.81" width="2.12" height="2.13" style="fill:#5a595b"/><path d="M2.13,3.75A1.74,1.74,0,0,1,3.87,2.13h45a1.75,1.75,0,0,1,1.75,1.62Z" style="fill:#faaf42"/></g></g></svg>