<svg xmlns="http://www.w3.org/2000/svg" width="10.969" height="10.969" viewBox="0 0 10.969 10.969">
  <defs>
    <style>
      .cls-1 {
        fill: #777;
        fill-rule: evenodd;
      }
    </style>
  </defs>
  <path id="_" data-name="" class="cls-1" d="M673.388,17.533l-2.4-1.029a0.608,0.608,0,0,0-.2-0.041,0.583,0.583,0,0,0-.4.189l-1.063,1.3a9.233,9.233,0,0,1-3.8-3.8l1.3-1.063a0.58,0.58,0,0,0,.19-0.4,0.61,0.61,0,0,0-.042-0.2l-1.029-2.4a0.56,0.56,0,0,0-.474-0.311,0.623,0.623,0,0,0-.115.013l-2.23.514a0.538,0.538,0,0,0-.4.5h0a9.945,9.945,0,0,0,9.946,9.947h0a0.539,0.539,0,0,0,.5-0.4l0.515-2.229a0.626,0.626,0,0,0,.012-0.114A0.564,0.564,0,0,0,673.388,17.533Z" transform="translate(-662.719 -9.781)"/>
</svg>
