<svg xmlns="http://www.w3.org/2000/svg" xmlns:xlink="http://www.w3.org/1999/xlink" preserveAspectRatio="xMidYMid" width="12" height="12" viewBox="0 0 12 12">
  <defs>
    <style>
      .cls-1 {
        fill: #5a595b;
        opacity: 0.5;
        fill-rule: evenodd;
      }
    </style>
  </defs>
  <path d="M6.000,-0.000 C2.691,-0.000 -0.001,2.691 -0.001,6.000 C-0.001,9.308 2.691,12.000 6.000,12.000 C9.308,12.000 12.000,9.308 12.000,6.000 C12.000,2.691 9.308,-0.000 6.000,-0.000 ZM5.749,10.000 C5.336,10.000 4.999,9.663 4.999,9.250 C4.999,8.836 5.336,8.500 5.749,8.500 C6.163,8.500 6.499,8.836 6.499,9.250 C6.499,9.663 6.163,10.000 5.749,10.000 ZM6.499,6.950 L6.499,7.750 C6.499,7.888 6.387,8.000 6.249,8.000 L5.250,8.000 C5.111,8.000 4.999,7.888 4.999,7.750 L4.999,6.500 C4.999,5.948 5.448,5.500 6.000,5.500 C6.551,5.500 6.999,5.051 6.999,4.500 C6.999,3.948 6.551,3.500 6.000,3.500 C5.448,3.500 4.999,3.948 4.999,4.500 L4.999,4.750 C4.999,4.888 4.888,5.000 4.749,5.000 L3.749,5.000 C3.611,5.000 3.499,4.888 3.499,4.750 L3.499,4.500 C3.499,3.122 4.621,2.000 6.000,2.000 C7.378,2.000 8.499,3.122 8.499,4.500 C8.499,5.700 7.654,6.716 6.499,6.950 Z" class="cls-1"/>
</svg>
