<svg xmlns="http://www.w3.org/2000/svg" width="14.88" height="15" viewBox="0 0 14.88 15">
  <defs>
    <style>
      .cls-1 {
        fill: #5a595b;
        fill-rule: evenodd;
      }
    </style>
  </defs>
  <path id="search_icon" data-name="search icon" class="cls-1" d="M1315.51,80.956l-2.89-2.915a0.718,0.718,0,0,0-.5-0.2h-0.47a6.038,6.038,0,1,0-4.77,2.34,5.968,5.968,0,0,0,3.72-1.287v0.476a0.672,0.672,0,0,0,.21.5l2.89,2.915a0.7,0.7,0,0,0,.99,0l0.82-.828A0.711,0.711,0,0,0,1315.51,80.956Zm-8.63-3.12a3.743,3.743,0,1,1,3.72-3.743A3.724,3.724,0,0,1,1306.88,77.836Z" transform="translate(-1300.84 -68)"/>
</svg>
