<svg xmlns="http://www.w3.org/2000/svg" width="409.6" height="409.6" viewBox="0 0 409.6 409.6"><g id="Layer_2" data-name="Layer 2"><g id="Layer_1-2" data-name="Layer 1"><path d="M409.6,204.8c0,113.11-91.69,204.8-204.8,204.8S0,317.91,0,204.8,91.69,0,204.8,0,409.6,91.69,409.6,204.8Z" style="fill:#ffda44"/><path d="M160.28,178.09H407.87C394.78,77.6,308.86,0,204.8,0a205.33,205.33,0,0,0-44.52,4.87Z" style="fill:#0052b4"/><path d="M106.85,178.09V24.9A205,205,0,0,0,1.73,178.09Z" style="fill:#0052b4"/><path d="M106.85,231.51H1.73A205,205,0,0,0,106.85,384.7Z" style="fill:#0052b4"/><path d="M160.28,231.51V404.73a205.33,205.33,0,0,0,44.52,4.87c104.06,0,190-77.6,203.07-178.09Z" style="fill:#0052b4"/></g></g></svg>