<svg xmlns="http://www.w3.org/2000/svg" width="61.62" height="56.67" viewBox="0 0 61.62 56.67"><g id="Layer_2" data-name="Layer 2"><g id="icons"><rect x="27.94" y="25.41" width="1.9" height="5.08" style="fill:#424242"/><path d="M1.9,1.9V30.49H25.55V25.41H10.7A4.79,4.79,0,0,0,7,21.69v-11A4.36,4.36,0,0,0,10.72,7h40.2a4.77,4.77,0,0,0,3.71,3.72v11a4.79,4.79,0,0,0-3.71,3.72H36.52v5.08h1.9V27.07a1.2,1.2,0,1,1,2.39,0v3.42H59.72V1.9Z" style="fill:#424242"/><rect x="32.23" y="25.41" width="1.9" height="5.08" style="fill:#424242"/><polygon points="0 0 0 32.39 11.87 32.39 13.34 30.49 1.9 30.49 1.9 1.9 59.72 1.9 59.72 30.49 45.07 30.49 45.07 32.39 61.62 32.39 61.62 0 0 0" style="fill:#fff"/><path d="M52.72,26.36a2.87,2.87,0,0,1,2.86-2.86h1V8.89h-1A2.87,2.87,0,0,1,52.72,6v-1H8.89V6A2.63,2.63,0,0,1,6,8.89h-1V23.5H6a2.86,2.86,0,0,1,2.86,2.86v.95H21.23v-1.9H10.7A4.76,4.76,0,0,0,7,21.7v-11A4.37,4.37,0,0,0,10.72,7h40.2a4.77,4.77,0,0,0,3.71,3.72v11a4.76,4.76,0,0,0-3.71,3.71H45v1.9h7.72Z" style="fill:#fff"/><rect x="16.2" y="15.25" width="2.54" height="1.9" style="fill:#fff"/><rect x="42.88" y="15.25" width="2.54" height="1.9" style="fill:#fff"/><path d="M36.93,19.09a7.9,7.9,0,0,0,.55-2.89,7.62,7.62,0,0,0-1.92-5.13,6.36,6.36,0,0,0-4.75-2.18h0a6.37,6.37,0,0,0-4.75,2.17,7.64,7.64,0,0,0-1.92,5.13,7.85,7.85,0,0,0,.54,2.89l1.77-.69a6.05,6.05,0,0,1-.41-2.2,5.72,5.72,0,0,1,1.43-3.85,4.48,4.48,0,0,1,3.34-1.55h0a4.47,4.47,0,0,1,3.34,1.55,5.73,5.73,0,0,1,1.43,3.86,6,6,0,0,1-.41,2.19Z" style="fill:#fff"/><path d="M39.62,24a3.21,3.21,0,0,0-1.2.24v-.57a3.09,3.09,0,0,0-3.09-3.1,2.9,2.9,0,0,0-1.22.26,3.09,3.09,0,0,0-6-.79,3.09,3.09,0,0,0-4.48,2.77V33.1c0,2-.29,2.5-.42,2.6a4.85,4.85,0,0,1-1.43-2.15,4.55,4.55,0,0,0-3.27-2.94,4.19,4.19,0,0,0-3.5,1c-1.43,1.43-.32,3.29,1.29,5.57A19,19,0,0,1,17.71,40c.9,2.1,1.93,4.48,3.37,5.63,1.6,1.27,2.57,2.08,2.57,2.67v1.39H21.94v7h1.9V51.62H40v5.05h1.9v-7H40.14V48.09c0-.23.34-.61.71-1a5.73,5.73,0,0,0,1.86-4.14V27.07A3.09,3.09,0,0,0,39.62,24Zm1.19,19a3.93,3.93,0,0,1-1.36,2.86,3.42,3.42,0,0,0-1.21,2.29v1.63H25.55V48.33c0-1.55-1.31-2.59-3.29-4.16-1.07-.85-2-3.09-2.8-4.89a19.8,19.8,0,0,0-1.59-3.2c-1.71-2.43-1.67-2.95-1.49-3.13a2.31,2.31,0,0,1,1.8-.47,2.78,2.78,0,0,1,1.88,1.84c1.27,2.87,2.5,3.3,3.12,3.3,2.37,0,2.37-3.16,2.37-4.52V22.78a1.2,1.2,0,1,1,2.39,0v9.87h1.9V21.06a1.2,1.2,0,0,1,2.39,0V33.51h1.9V23.64a1.2,1.2,0,1,1,2.39,0V34.22h1.9V27.07a1.2,1.2,0,1,1,2.39,0Z" style="fill:#fff"/><rect x="25.46" y="53.15" width="2.57" height="1.9" style="fill:#fff"/></g></g></svg>