<svg xmlns="http://www.w3.org/2000/svg" width="57.1" height="50" viewBox="0 0 57.1 50">
  <defs>
    <style>
      .cls-1 {
        fill: #fff;
        fill-rule: evenodd;
      }
    </style>
  </defs>
  <path id="selling_step_3" class="cls-1" d="M15697.8,1424.43v-1.51h-1.6v1.51h1.6Zm-9.1-8.97v1.96l-0.2.03a3.551,3.551,0,0,0-2.7,3.43,3.633,3.633,0,0,0,3.6,3.55,2.04,2.04,0,1,1-2,2.22h-1.6a3.635,3.635,0,0,0,2.7,3.25l0.2,0.03v1.96h1.5v-1.96l0.1-.03a3.541,3.541,0,0,0-.9-6.98,2.04,2.04,0,0,1,0-4.08,2.09,2.09,0,0,1,2.1,1.86h1.5a3.4,3.4,0,0,0-2.7-3.25l-0.1-.03v-1.96h-1.5Zm25.5,2.45v-6.18h-6.3v1.51h4.8v4.67h1.5Zm-6.3,16.2v1.51h6.3v-6.17h-1.5v4.66h-4.8Zm-26.8-11.19v1.51h1.5v-1.51h-1.5Zm-10.2-11.19h-6.2v6.18h1.5v-4.67h4.7v-1.51Zm-10-3.73v50h57.1v-50h-57.1Zm55.6,48.48h-54.1v-2.21h54.1v2.21Zm0-7.45h-2.9v1.51h2.9v2.22h-54.1v-2.22h47.1v-1.51h-47.1v-2.22h54.1v2.22Zm0-7.46h-47.1v1.51h47.1v2.22h-54.1v-2.22h2.9v-1.51h-2.9v-2.22h54.1v2.22Zm0-3.73h-54.1v-28.33h54.1v28.33Zm-51.8-8.39v6.17h6.2v-1.51h-4.7v-4.66h-1.5Zm36.9-5.77a12.152,12.152,0,1,0-12.2,11.94,12.541,12.541,0,0,0,7-2.14l-0.9-1.23a10.8,10.8,0,0,1-6.1,1.86,10.436,10.436,0,1,1,10.6-10.43,10.172,10.172,0,0,1-2.6,6.82l1.2,1.01A11.935,11.935,0,0,0,15701.6,1423.68Z" transform="translate(-15660.9 -1408)"/>
</svg>
