<svg xmlns="http://www.w3.org/2000/svg" width="54.6" height="50" viewBox="0 0 54.6 50">
  <defs>
    <style>
      .cls-1 {
        fill: #fff;
        fill-rule: evenodd;
      }
    </style>
  </defs>
  <path id="selling_step_1" class="cls-1" d="M15093.4,1435.06v-25.68h51.8v25.68h-13v1.38h14.4V1408H15092v28.44h10.4l1-1.38h-10Zm45.3-3.82a2.693,2.693,0,0,1,2.7-2.69h0.7V1415.9h-0.7a2.7,2.7,0,0,1-2.7-2.7v-0.69h-38.8v0.69a2.477,2.477,0,0,1-2.7,2.7h-0.7v12.65h0.7a2.693,2.693,0,0,1,2.7,2.69v0.69h10.7v-1.38h-9.3l-0.1-.12a3.947,3.947,0,0,0-3.2-3.18l-0.1-.02v-10l0.1-.02a3.577,3.577,0,0,0,3.2-3.19l0.1-.13h36l0.1,0.12a3.946,3.946,0,0,0,3.1,3.18l0.2,0.03v10.01l-0.2.02a3.958,3.958,0,0,0-3.1,3.18l-0.1.12h-5.2v1.38h6.6v-0.69Zm-6.5-8.33v-1.38h-2v1.38h2Zm-17.5,32.26v1.37h2v-1.37h-2Zm4.6-39.28a5.428,5.428,0,0,0-4.1,1.88,6.516,6.516,0,0,0-1.7,4.45,9.255,9.255,0,0,0,.4,2.36l1.3-.5a5.8,5.8,0,0,1-.3-1.86,5.471,5.471,0,0,1,1.3-3.53,4.094,4.094,0,0,1,6.2,0,5.491,5.491,0,0,1,1.3,3.53,5.754,5.754,0,0,1-.3,1.86l1.3,0.5a9.108,9.108,0,0,0,.4-2.36,6.552,6.552,0,0,0-1.7-4.45A5.463,5.463,0,0,0,15119.3,1415.89Zm-12.9,5.64v1.38h2v-1.38h-2Zm1.4,21.77c0.8,1.86,1.7,3.95,2.9,4.94,1.6,1.27,2.4,1.92,2.4,2.49v1.39h-1.6v5.87h1.4v-4.49h14.7v4.49h1.4v-5.87h-1.5v-1.59a2.316,2.316,0,0,1,.6-1.01,4.859,4.859,0,0,0,1.6-3.56v-14.09a2.555,2.555,0,0,0-2.6-2.59,3.208,3.208,0,0,0-1,.2l-0.2.09v-0.75a2.58,2.58,0,0,0-3.6-2.38l-0.2.09v-0.21a2.553,2.553,0,0,0-2.6-2.37,2.478,2.478,0,0,0-2.4,1.71l-0.1.16-0.2-.08a2.187,2.187,0,0,0-1.1-.27,2.555,2.555,0,0,0-2.6,2.59v9.16c0,1.37-.2,2.21-0.5,2.43l-0.1.07v-0.06a4.188,4.188,0,0,1-1.4-1.97,3.766,3.766,0,0,0-2.8-2.52,3.3,3.3,0,0,0-2.9.84c-1.2,1.19-.3,2.78,1.1,4.74A20.882,20.882,0,0,1,15107.8,1443.3Zm-1.5-6.32a2.336,2.336,0,0,1,1.8-.46,2.816,2.816,0,0,1,1.8,1.72c1.1,2.47,2.1,2.84,2.6,2.84,2,0,2-2.7,2-3.86v-9.16a1.2,1.2,0,1,1,2.4,0v8.6h1.4v-10.12a1.2,1.2,0,1,1,2.4,0v10.89h1.4v-8.61a1.2,1.2,0,1,1,2.4,0v9.24h1.4v-6.19a1.255,1.255,0,0,1,1.2-1.22,1.276,1.276,0,0,1,1.3,1.22v14.09a3.471,3.471,0,0,1-1.3,2.64,2.9,2.9,0,0,0-1,1.93v1.59h-11.6v-1.39c0-1.29-1.2-2.19-2.9-3.56-1-.78-1.9-2.79-2.6-4.4a11.294,11.294,0,0,0-1.4-2.81C15106,1437.64,15106.1,1437.2,15106.3,1436.98Z" transform="translate(-15092 -1408)"/>
</svg>
