<svg xmlns="http://www.w3.org/2000/svg" width="65.5" height="50" viewBox="0 0 65.5 50">
  <defs>
    <style>
      .cls-1 {
        fill: #fff;
        fill-rule: evenodd;
      }
    </style>
  </defs>
  <path id="selling_step_2" class="cls-1" d="M15437.7,1420.55l-8.1-12.17a0.746,0.746,0,0,0-.7-0.38h-47.6a1.055,1.055,0,0,0-.8.38l-2.9,4.44a0.814,0.814,0,0,0,.2,1.19,0.864,0.864,0,0,0,1.2-.24l2.7-4.06h14.2l-6.9,10.46h-14.2l2.1-3.2a0.814,0.814,0,0,0-.2-1.19,0.864,0.864,0,0,0-1.2.24l-3,4.53a0.93,0.93,0,0,0-.1.88,1.012,1.012,0,0,0,.8.45h7.2v33.76a2.4,2.4,0,0,0,2.4,2.36h18.7a0.861,0.861,0,1,0,0-1.72h-3.1v-44.57l6.5,9.79a0.746,0.746,0,0,0,.7.38h11.3a0.857,0.857,0,0,0,0-1.71H15406v-0.05l-6.9-10.41h29.3l0.1,0.05,6.9,10.41h-14.7a0.857,0.857,0,0,0,0,1.71h7.3v33.76a0.638,0.638,0,0,1-.6.64h-9.2v-4.77a0.874,0.874,0,0,0-.9-0.85h-8.2a0.874,0.874,0,0,0-.9.85v4.77h-2.9a0.862,0.862,0,0,0,0,1.72h22.1a2.4,2.4,0,0,0,2.4-2.36v-33.76h7.2a0.736,0.736,0,0,0,.7-0.45A0.72,0.72,0,0,0,15437.7,1420.55Zm-41.1,35.73h-13.8a0.66,0.66,0,0,1-.7-0.64v-33.76h7.3a0.746,0.746,0,0,0,.7-0.38l6.5-9.79v44.57Zm19.8,0h-6.5v-3.91h6.5v3.91Zm4.8-7.68a0.876,0.876,0,0,0,.9-0.86v-2.88l1,0.72a0.748,0.748,0,0,0,.5.16,0.882,0.882,0,0,0,.7-0.37,0.817,0.817,0,0,0-.2-1.19l-2.4-1.67a0.872,0.872,0,0,0-1,0l-2.4,1.67a0.639,0.639,0,0,0-.3.55,0.725,0.725,0,0,0,.1.64,0.735,0.735,0,0,0,.6.35,0.794,0.794,0,0,0,.6-0.14l1-.72v2.88A0.876,0.876,0,0,0,15421.2,1448.6Zm-18.3-21.67h9.2a0.857,0.857,0,0,0,0-1.71h-9.2A0.857,0.857,0,0,0,15402.9,1426.93Zm0,3.8h5.6a0.861,0.861,0,1,0,0-1.72h-5.6A0.862,0.862,0,0,0,15402.9,1430.73Z" transform="translate(-15372.3 -1408)"/>
</svg>
