<svg xmlns="http://www.w3.org/2000/svg" width="409.6" height="409.6" viewBox="0 0 409.6 409.6"><g id="Layer_2" data-name="Layer 2"><g id="Layer_1-2" data-name="Layer 1"><path d="M409.6,204.8c0,113.11-91.69,204.8-204.8,204.8S0,317.91,0,204.8,91.69,0,204.8,0,409.6,91.69,409.6,204.8Z" style="fill:#f0f0f0"/><path d="M0,204.8C0,91.69,91.69,0,204.8,0S409.6,91.69,409.6,204.8" style="fill:#d80027"/><path d="M124.66,106.85a62.34,62.34,0,0,1,49-60.88,62.33,62.33,0,1,0,0,121.76,62.33,62.33,0,0,1-49-60.88Z" style="fill:#f0f0f0"/><path d="M204.8,49l4.42,13.61h14.31L212,71l4.42,13.6L204.8,76.18l-11.57,8.41L197.65,71l-11.58-8.41h14.31Z" style="fill:#f0f0f0"/><path d="M170.1,75.69l4.42,13.6h14.3L177.25,97.7l4.42,13.6-11.57-8.4-11.57,8.4,4.41-13.6-11.57-8.41h14.31Z" style="fill:#f0f0f0"/><path d="M239.5,75.69l4.42,13.6h14.31L246.65,97.7l4.42,13.6-11.57-8.4-11.57,8.4,4.42-13.6-11.57-8.41h14.3Z" style="fill:#f0f0f0"/><path d="M226.14,115.76l4.43,13.6h14.3l-11.57,8.41,4.42,13.6L226.14,143l-11.57,8.4,4.42-13.6-11.57-8.41h14.3Z" style="fill:#f0f0f0"/><path d="M183.46,115.76l4.42,13.6h14.3l-11.57,8.41,4.42,13.6L183.46,143l-11.58,8.4,4.42-13.6-11.57-8.41H179Z" style="fill:#f0f0f0"/></g></g></svg>