<svg xmlns="http://www.w3.org/2000/svg" width="27" height="30" viewBox="0 0 27 30">
  <defs>
    <style>
      .cls-1 {
        fill: #fff;
        fill-rule: evenodd;
      }
    </style>
  </defs>
  <path id="shipping_icon_1" class="cls-1" d="M20201.5,886a3.331,3.331,0,0,1-2.6-1.241,0.287,0.287,0,0,1-.1-0.263l-0.5.127a0.54,0.54,0,0,1-.7-0.436,0.6,0.6,0,0,1,.4-0.746l7.1-1.886a0.643,0.643,0,0,1,.8.436,0.591,0.591,0,0,1-.5.746l-0.8.216c0,0.063.1,0.132,0.1,0.2A3.083,3.083,0,0,1,20201.5,886Zm-1.5-1.825a2.119,2.119,0,0,0,1.5.6,1.767,1.767,0,0,0,1.9-1.513Zm-1.9-2.241a0.515,0.515,0,0,1-.5-0.456,0.6,0.6,0,0,1,.4-0.746l7.1-1.886a0.643,0.643,0,0,1,.8.436,0.591,0.591,0,0,1-.5.746l-7.1,1.886A0.515,0.515,0,0,1,20198.1,881.935Zm0-2.71a0.515,0.515,0,0,1-.5-0.456c0-.038-0.1-0.076-0.1-0.114,0-.092-0.1-0.2-0.1-0.329a3.527,3.527,0,0,0-1.7-3.189c-1.2-.909-2.5-1.94-2.7-5.737a7.28,7.28,0,0,1,2-5.355,8.766,8.766,0,0,1,6.5-2.8,9.124,9.124,0,0,1,6.6,2.817,6.787,6.787,0,0,1,1.9,5.337c-0.2,3.688-1.5,4.712-2.6,5.615a3.384,3.384,0,0,0-1.5,1.8,0.74,0.74,0,0,1-.3.455,1.1,1.1,0,0,1-.3.076l-7,1.86A0.515,0.515,0,0,1,20198.1,879.225Zm3.4-16.754a7.99,7.99,0,0,0-5.7,2.41,6.188,6.188,0,0,0-1.6,4.439c0.2,3.249,1.2,4.027,2.3,4.851a4.647,4.647,0,0,1,2.1,3.692l6.2-1.642a5.876,5.876,0,0,1,1.8-2.159c1-.819,2-1.592,2.2-4.746a6.152,6.152,0,0,0-1.6-4.417A7.793,7.793,0,0,0,20201.5,862.471Zm8.6,16.524a0.454,0.454,0,0,1-.4-0.179l-1.7-1.708a0.527,0.527,0,0,1,0-.864,0.536,0.536,0,0,1,.8,0l1.7,1.708a0.527,0.527,0,0,1,0,.864A0.454,0.454,0,0,1,20210.1,879Zm-17.5,0a0.669,0.669,0,0,1-.5-0.179,0.7,0.7,0,0,1,0-.864l1.7-1.708a0.654,0.654,0,0,1,.9,0,0.7,0.7,0,0,1,0,.864l-1.7,1.708A0.606,0.606,0,0,1,20192.6,879Zm8.6-4.147a0.57,0.57,0,0,1-.4-0.252l-2.6-3.61a0.582,0.582,0,0,1,.1-0.854,0.546,0.546,0,0,1,.8.135l2.1,2.843,3.4-6.145a0.7,0.7,0,0,1,.9-0.23,0.571,0.571,0,0,1,.2.833l-3.9,6.97a0.623,0.623,0,0,1-.5.309h-0.1Zm13.2-4.868h-2.4a0.611,0.611,0,0,1,0-1.222h2.4A0.611,0.611,0,0,1,20214.4,869.98Zm-23.4-.493h-2.4a0.611,0.611,0,0,1,0-1.222h2.4A0.611,0.611,0,0,1,20191,869.487Zm17.8-7.206a0.665,0.665,0,0,1-.5-0.179,0.7,0.7,0,0,1,0-.864l1.7-1.708a0.656,0.656,0,0,1,.9,0,0.7,0.7,0,0,1,0,.865l-1.7,1.707A0.6,0.6,0,0,1,20208.8,862.281Zm-14.2,0a0.454,0.454,0,0,1-.4-0.179l-1.7-1.707a0.528,0.528,0,0,1,0-.865,0.537,0.537,0,0,1,.8,0l1.7,1.707a0.528,0.528,0,0,1,0,.865A0.454,0.454,0,0,1,20194.6,862.281Zm7.1-2.632a0.627,0.627,0,0,1-.6-0.611v-2.415a0.627,0.627,0,0,1,.6-0.611,0.652,0.652,0,0,1,.7.611v2.415A0.652,0.652,0,0,1,20201.7,859.649Z" transform="translate(-20188 -856)"/>
</svg>
