<svg xmlns="http://www.w3.org/2000/svg" width="23" height="30" viewBox="0 0 23 30">
  <defs>
    <style>
      .cls-1 {
        fill: #fff;
        fill-rule: evenodd;
      }
    </style>
  </defs>
  <path id="shipping_icon_6" class="cls-1" d="M20756.3,1767.4v-4.71a8.8,8.8,0,0,0-17.6,0v4.71h-2.7V1784h23v-16.6h-2.7Zm-11.8-4.71a3,3,0,0,1,3-2.92,2.913,2.913,0,0,1,2.9,2.92v4.71h-5.9v-4.71Zm3-7.39a7.474,7.474,0,0,1,7.5,7.39v4.71h-3.2v-4.71a4.3,4.3,0,0,0-8.6,0v4.71h-3.2v-4.71A7.474,7.474,0,0,1,20747.5,1755.3Zm0,17.86a2.03,2.03,0,0,1,0,4.06A2.031,2.031,0,1,1,20747.5,1773.16Zm0.7,5.3,0.1-.05a3.385,3.385,0,0,0,2.6-3.22,3.4,3.4,0,0,0-6.8,0,3.385,3.385,0,0,0,2.6,3.22l0.1,0.05v4.24h-9.5v-14h20.4v14h-9.5v-4.24Z" transform="translate(-20736 -1754)"/>
</svg>
