<svg xmlns="http://www.w3.org/2000/svg" width="61.59" height="65.71" viewBox="0 0 61.59 65.71"><g id="Layer_2" data-name="Layer 2"><g id="icons"><path d="M61.05,14.5,31.22.1a1,1,0,0,0-.84,0L.54,14.5a1,1,0,0,0-.54.87v35a1,1,0,0,0,.54.87l29.84,14.4a.87.87,0,0,0,.42.1.92.92,0,0,0,.42-.1l29.83-14.4a1,1,0,0,0,.54-.87v-35A1,1,0,0,0,61.05,14.5ZM30.8,2,58.42,15.37l-8,3.86-.16-.1L22.81,5.88ZM20.64,7,48.22,20.29,42.57,23,15,9.71ZM48.87,22.11V32.19l-5.28,2.55V24.66Zm10.8,27.63L31.76,63.21V30.37l6.66-3.21a1,1,0,0,0-.84-1.74L30.8,28.7l-2.67-1.29a1,1,0,0,0-1.29.45,1,1,0,0,0,.45,1.28l2.54,1.23V63.21L1.93,49.74V16.9L23.18,27.16a1,1,0,0,0,.42.09,1,1,0,0,0,.86-.54A1,1,0,0,0,24,25.42L3.18,15.37l9.56-4.62,28.91,14h0V36.27a1,1,0,0,0,.45.82.94.94,0,0,0,.93,0l7.2-3.48a1,1,0,0,0,.54-.86V21.18l8.88-4.28Z" style="fill:#5a595b"/><path d="M9.87,46,5.49,43.89a1,1,0,0,0-.84,1.74L9,47.74a1.07,1.07,0,0,0,.42.1A1,1,0,0,0,9.87,46Z" style="fill:#5a595b"/><path d="M13.9,43.38,5.5,39.33a1,1,0,1,0-.84,1.73l8.4,4.06a1.06,1.06,0,0,0,.42.09,1,1,0,0,0,.42-1.83Z" style="fill:#5a595b"/><path d="M51.64,46,56,43.89a1,1,0,0,1,.84,1.74l-4.38,2.11a1.07,1.07,0,0,1-.42.1A1,1,0,0,1,51.64,46Z" style="fill:#5a595b"/><path d="M47.61,43.38,56,39.33a1,1,0,1,1,.84,1.73l-8.4,4.06a1.06,1.06,0,0,1-.42.09,1,1,0,0,1-.42-1.83Z" style="fill:#5a595b"/><polygon points="20.64 6.97 48.22 20.29 42.57 23.01 15 9.71 20.64 6.97" style="fill:#faaf42"/><polygon points="48.87 22.11 48.87 32.19 43.59 34.74 43.59 24.66 48.87 22.11" style="fill:#faaf42"/></g></g></svg>