<svg xmlns="http://www.w3.org/2000/svg" width="27" height="30" viewBox="0 0 27 30">
  <defs>
    <style>
      .cls-1 {
        fill: #fff;
        fill-rule: evenodd;
      }
    </style>
  </defs>
  <path id="shipping_icon_3" class="cls-1" d="M20201.5,1106.01a0.8,0.8,0,0,1-.3-0.06c-8.1-3.52-13.2-10.18-13.2-17.38v-11.08a0.7,0.7,0,0,1,1.2-.43c1,1.24,3.3,2.05,5.6,2.05,2.8,0,5.4-1.15,6.1-2.73a0.613,0.613,0,0,1,.6-0.38h0a0.613,0.613,0,0,1,.6.38c0.7,1.58,3.2,2.73,6.1,2.73a7.8,7.8,0,0,0,5.6-2.04,0.639,0.639,0,0,1,.7-0.19,0.654,0.654,0,0,1,.5.61v11.08c0,7.2-5.1,13.86-13.2,17.38A0.8,0.8,0,0,1,20201.5,1106.01Zm-12.2-27.09v9.65c0,6.59,4.7,12.73,12.2,16.07,7.5-3.34,12.2-9.48,12.2-16.07v-9.65a10.351,10.351,0,0,1-5.5,1.49c-2.9,0-5.4-.99-6.7-2.54-1.3,1.55-3.8,2.54-6.7,2.54A10.1,10.1,0,0,1,20189.3,1078.92Zm11.8,17.69a0.6,0.6,0,0,1-.5-0.23l-5-5.74a0.664,0.664,0,0,1,.1-0.92,0.631,0.631,0,0,1,.9.07l4.4,5.09,6.6-10a0.646,0.646,0,0,1,.9-0.18,0.761,0.761,0,0,1,.2.9l-7.1,10.71a0.663,0.663,0,0,1-.5.3h0Z" transform="translate(-20188 -1076)"/>
</svg>
