<svg xmlns="http://www.w3.org/2000/svg" width="30" height="30" viewBox="0 0 30 30">
  <defs>
    <style>
      .cls-1 {
        fill: #fff;
        fill-rule: evenodd;
      }
    </style>
  </defs>
  <path id="shipping_icon_5" class="cls-1" d="M20747,1654.49a3.51,3.51,0,1,0,3.5,3.51A3.532,3.532,0,0,0,20747,1654.49Zm0,5.75a2.24,2.24,0,1,1,2.2-2.24A2.228,2.228,0,0,1,20747,1660.24Zm14.4-2.87h-2v-0.3a12.489,12.489,0,0,0-11.5-11.49l-0.3-.02v-1.93a0.645,0.645,0,0,0-.6-0.64,0.582,0.582,0,0,0-.6.64v1.93l-0.3.02a12.489,12.489,0,0,0-11.5,11.49v0.3h-2a0.635,0.635,0,0,0-.6.63,0.645,0.645,0,0,0,.6.64h2v0.3a12.48,12.48,0,0,0,11.5,11.48l0.3,0.02v1.94a0.575,0.575,0,0,0,.6.63,0.635,0.635,0,0,0,.6-0.63v-1.94l0.3-.02a12.48,12.48,0,0,0,11.5-11.48v-0.3h2a0.645,0.645,0,0,0,.6-0.64A0.635,0.635,0,0,0,20761.4,1657.37Zm-4.5,1.27h1.3l-0.1.35a11.041,11.041,0,0,1-10.1,10.15l-0.4.03v-1.27a0.635,0.635,0,0,0-.6-0.63,0.575,0.575,0,0,0-.6.63v1.27l-0.4-.03a11.041,11.041,0,0,1-10.1-10.15l-0.1-.35h1.3a0.582,0.582,0,0,0,.6-0.64,0.575,0.575,0,0,0-.6-0.63h-1.3l0.1-.36a11.058,11.058,0,0,1,10.1-10.15l0.4-.03v1.27a0.575,0.575,0,0,0,.6.63,0.635,0.635,0,0,0,.6-0.63v-1.27l0.4,0.03a11.058,11.058,0,0,1,10.1,10.15l0.1,0.36h-1.3a0.575,0.575,0,0,0-.6.63A0.582,0.582,0,0,0,20756.9,1658.64Z" transform="translate(-20732 -1643)"/>
</svg>
