<svg xmlns="http://www.w3.org/2000/svg" width="29" height="21" viewBox="0 0 29 21">
  <defs>
    <style>
      .cls-1 {
        fill: #fff;
        fill-rule: evenodd;
      }
    </style>
  </defs>
  <path id="shipping_icon_7" class="cls-1" d="M20760,1850.99h-25a1.962,1.962,0,0,0-2,1.94v17.13a1.968,1.968,0,0,0,2,1.94h25a1.968,1.968,0,0,0,2-1.94v-17.13A1.962,1.962,0,0,0,20760,1850.99Zm-25.9,3.45v-1.54a0.889,0.889,0,0,1,.9-0.86h25a0.889,0.889,0,0,1,.9.86v1.55l-13.6,7.7Zm13.5,8.84,13.3-7.55v14.33a0.887,0.887,0,0,1-.9.85h-25a0.887,0.887,0,0,1-.9-0.85v-14.34l13,7.54A0.5,0.5,0,0,0,20747.6,1863.28Z" transform="translate(-20733 -1851)"/>
</svg>
