<svg xmlns="http://www.w3.org/2000/svg" width="24" height="30" viewBox="0 0 24 30">
  <defs>
    <style>
      .cls-1 {
        fill: #fff;
        fill-rule: evenodd;
      }
    </style>
  </defs>
  <path id="shipping_icon_4" class="cls-1" d="M20201,1201.67a7.54,7.54,0,1,0-7.6-7.54A7.55,7.55,0,0,0,20201,1201.67Zm-6.2-7.54a6.2,6.2,0,1,1,6.2,6.21A6.227,6.227,0,0,1,20194.8,1194.13Zm6.2-12.12a12.014,12.014,0,0,0-12,11.99,16.36,16.36,0,0,0,.2,2.24,0.846,0.846,0,0,0,.1.41,10.112,10.112,0,0,0,.8,2.36c1.3,3.08,4.2,7.8,10.5,12.85a0.492,0.492,0,0,0,.4.15,0.665,0.665,0,0,0,.4-0.15c6.3-5.06,9.2-9.77,10.5-12.84a20.008,20.008,0,0,0,.8-2.37,1.091,1.091,0,0,1,.1-0.39,17.871,17.871,0,0,0,.2-2.26A12.014,12.014,0,0,0,20201,1182.01Zm-10.5,13.96a12.526,12.526,0,0,1-.2-1.98,10.65,10.65,0,1,1,21.3,0,13.336,13.336,0,0,1-.1,2.01l-0.1.06v0.28a15.169,15.169,0,0,1-.7,2.13l-0.1.05c-1.2,2.81-3.8,7.14-9.5,11.87l-0.1.1-0.1-.1c-5.8-4.72-8.4-9.06-9.6-11.87v-0.05a14.232,14.232,0,0,1-.7-2.12v-0.03a0.311,0.311,0,0,1-.1-0.23v-0.07h0v-0.05Z" transform="translate(-20189 -1182)"/>
</svg>
