<svg xmlns="http://www.w3.org/2000/svg" width="30" height="30" viewBox="0 0 30 30">
  <defs>
    <style>
      .cls-1 {
        fill: #fff;
        fill-rule: evenodd;
      }
    </style>
  </defs>
  <path id="shipping_icon_2" class="cls-1" d="M20200.4,1036.99a0.665,0.665,0,0,1-.4-0.15,0.774,0.774,0,0,1-.2-0.47l0.1-5.93-0.2-.21-0.5,2.09a1.076,1.076,0,0,1-.8.74,1.746,1.746,0,0,1-1.6-.43l-6.3-5.92a1.974,1.974,0,0,1-.5-1.63,1.062,1.062,0,0,1,.7-0.75l2.1-.66-0.2-.12-6,.4a0.49,0.49,0,0,1-.4-0.18,0.5,0.5,0,0,1-.2-0.49c0.5-4.4,1.5-9.13,7-9.52a10.607,10.607,0,0,1,3.6.57c0.5,0.11.9,0.23,1.3,0.32a52.8,52.8,0,0,1,3.9-4.71c2.9-3,7.6-3.77,12.2-2.02,0.1,0.04.2,0.09,0.3,0.13a0.752,0.752,0,0,1,.4.31v0.03h0v0.01h0a12.148,12.148,0,0,1,1,8.07v0.13a8.946,8.946,0,0,1-2.4,4.26,41.316,41.316,0,0,1-4.6,4.01c0.1,0.41.3,0.83,0.4,1.25a8.743,8.743,0,0,1,.7,3.52c-0.1,5.52-4.9,6.68-9.3,7.34A0.34,0.34,0,0,1,20200.4,1036.99Zm0.8-6.52-0.2,5.2c3.9-.63,7.5-1.75,7.6-6.07a9.518,9.518,0,0,0-.7-3.12,2.466,2.466,0,0,0-.2-0.81c-1.1.79-2.1,1.56-3.2,2.33q-0.75.555-1.5,1.08v0.04a0.811,0.811,0,0,1-.2.14C20202.2,1029.67,20201.7,1030.08,20201.2,1030.47Zm-10-5.01a0.618,0.618,0,0,0,.2.38l6.2,5.92a0.719,0.719,0,0,0,.4.14l0.7-2.63-2.4-2.25h0l-2.5-2.41Zm6,0.69,3.4,3.22,1-.74-7.2-6.74-0.7.98,3.4,3.22-0.4.5Zm-2.1-5.27,7.5,7.01,5.1-3.76c0-.02,0-0.05.1-0.07a60.708,60.708,0,0,0,4.7-4.03,7.778,7.778,0,0,0,1.9-3.51l-8.3-7.85a7.807,7.807,0,0,0-3.4,2.11,30.232,30.232,0,0,0-3.9,4.78,1.1,1.1,0,0,1-.1.11Zm-4,4.61h0Zm2.3-10.53c-0.1,0-.2,0-0.3.01-4.3.3-5.3,3.89-5.8,7.72l5.3-.35c0.3-.5.7-1.01,1-1.54,0.1-.11.1-0.2,0.2-0.29a0.7,0.7,0,0,1,.1-0.08c0.3-.49.7-0.98,1-1.49,0.8-1.08,1.5-2.16,2.2-3.22-0.2-.07-0.5-0.15-0.8-0.22A11.32,11.32,0,0,0,20193.4,1014.96Zm14.1-6.62,7.2,6.76a11.762,11.762,0,0,0-1-6A12.349,12.349,0,0,0,20207.5,1008.34Zm-6.2,16.43a3.226,3.226,0,0,1-2.1-.81,2.927,2.927,0,0,1,0-4.15,2.719,2.719,0,0,1,2-.9,3.289,3.289,0,0,1,2.2.81h0a2.927,2.927,0,0,1,0,4.15A2.723,2.723,0,0,1,20201.3,1024.77Zm0-4.65h0a2.029,2.029,0,0,0-1.3.53,1.76,1.76,0,0,0,.1,2.43,1.8,1.8,0,0,0,2.5-.05,1.76,1.76,0,0,0-.1-2.43h0A1.6,1.6,0,0,0,20201.3,1020.12Zm4.4,0.08a2.946,2.946,0,0,1-2-.82,2.946,2.946,0,0,1-.1-4.14,3.008,3.008,0,0,1,4.2-.09,2.708,2.708,0,0,1,.9,2.05A2.92,2.92,0,0,1,20205.7,1020.2Zm0-4.65h0a1.57,1.57,0,0,0-1.2.53,1.834,1.834,0,0,0-.5,1.22,1.79,1.79,0,0,0,.5,1.21,1.817,1.817,0,0,0,2.5-.05,1.879,1.879,0,0,0,.5-1.23,1.79,1.79,0,0,0-.5-1.21h0A2.074,2.074,0,0,0,20205.7,1015.55Z" transform="translate(-20186 -1007)"/>
</svg>
