<?xml version="1.0" encoding="utf-8"?>
<!-- Generator: Adobe Illustrator 24.1.2, SVG Export Plug-In . SVG Version: 6.00 Build 0)  -->
<svg version="1.1" id="Layer_1" xmlns="http://www.w3.org/2000/svg" xmlns:xlink="http://www.w3.org/1999/xlink" x="0px" y="0px"
	 viewBox="0 0 32.7 24.5" style="enable-background:new 0 0 32.7 24.5;" xml:space="preserve">
<style type="text/css">
	.st0{fill-rule:evenodd;clip-rule:evenodd;fill:#5A595B;}
</style>
<path class="st0" d="M22.8,17.4c0.4,0.3,0.9,0.3,1.3,0l8.3-8c0.3-0.3,0.3-0.8,0-1.2c0,0,0,0,0,0l-8.3-8c-0.4-0.3-0.9-0.3-1.3,0
	c-0.2,0.2-0.3,0.4-0.3,0.6v3.7H14c-0.5,0-0.9,0.3-0.9,0.8c0,0.5,0.3,0.9,0.8,0.9c0,0,0.1,0,0.1,0h9.5c0.5,0,0.9-0.4,0.9-0.9V2.9
	l6.2,5.9l-6.2,5.9v-2.5c0-0.5-0.4-0.9-0.9-0.9H10.1V7.7c0-0.2-0.1-0.4-0.3-0.6c-0.4-0.3-0.9-0.3-1.3,0l-8.3,8
	c-0.3,0.3-0.3,0.8,0,1.2c0,0,0,0,0,0l8.3,8c0.3,0.2,0.6,0.3,1,0.2c0.3-0.1,0.5-0.4,0.5-0.8v-3.7h8.6c0.5,0,0.9-0.4,0.9-0.8
	s-0.4-0.9-0.8-0.9c0,0,0,0-0.1,0H9.2c-0.5,0-0.9,0.4-0.9,0.9v2.5l-6.2-5.9l6.2-5.9v2.5c0,0.5,0.4,0.9,0.9,0.9h13.4v3.7
	C22.6,17,22.7,17.3,22.8,17.4z"/>
</svg>
