<svg xmlns="http://www.w3.org/2000/svg" width="409.6" height="409.6" viewBox="0 0 409.6 409.6"><g id="Layer_2" data-name="Layer 2"><g id="Layer_1-2" data-name="Layer 1"><path d="M409.6,204.8c0,113.11-91.69,204.8-204.8,204.8S0,317.91,0,204.8,91.69,0,204.8,0,409.6,91.69,409.6,204.8Z" style="fill:#d80027"/><path d="M196.41,167.35l16.81,23.15,27.21-8.82L223.6,204.82,240.4,228l-27.2-8.86-16.83,23.14,0-28.61-27.21-8.85L196.4,196Z" style="fill:#f0f0f0"/><path d="M150.55,262.68a57.88,57.88,0,1,1,27.54-108.8,71.24,71.24,0,1,0,0,101.84,57.61,57.61,0,0,1-27.54,7Z" style="fill:#f0f0f0"/></g></g></svg>