<svg xmlns="http://www.w3.org/2000/svg" width="11" height="8.906" viewBox="0 0 11 8.906">
  <defs>
    <style>
      .cls-1 {
        fill: #777;
        fill-rule: evenodd;
      }
    </style>
  </defs>
  <path id="FOLLOW_US:_copy" data-name="FOLLOW US:       copy" class="cls-1" d="M1332.83,13.03a4.89,4.89,0,0,0,1.13-1.163,4.62,4.62,0,0,1-1.3.348,2.242,2.242,0,0,0,.99-1.24,4.411,4.411,0,0,1-1.43.543,2.25,2.25,0,0,0-3.89,1.539,2.934,2.934,0,0,0,.05.515,6.375,6.375,0,0,1-4.63-2.354,2.187,2.187,0,0,0-.31,1.135,2.26,2.26,0,0,0,1,1.873,2.236,2.236,0,0,1-1.01-.285V13.97a2.247,2.247,0,0,0,1.8,2.208,2.389,2.389,0,0,1-.59.077,2.87,2.87,0,0,1-.43-0.035,2.265,2.265,0,0,0,2.11,1.56,4.523,4.523,0,0,1-2.8.961,4.673,4.673,0,0,1-.54-0.028,6.407,6.407,0,0,0,9.86-5.39A2.859,2.859,0,0,0,1332.83,13.03Z" transform="translate(-1322.97 -10.813)"/>
</svg>
