<svg xmlns="http://www.w3.org/2000/svg" xmlns:xlink="http://www.w3.org/1999/xlink" preserveAspectRatio="xMidYMid" width="23" height="27" viewBox="0 0 23 27">
  <defs>
    <style>
      .cls-1 {
        fill: #7f7f7f;
        fill-rule: evenodd;
      }
    </style>
  </defs>
  <path d="M21.608,25.719 C20.697,26.569 19.497,27.000 18.040,27.000 L4.958,27.000 C3.501,27.000 2.301,26.569 1.390,25.719 C0.467,24.855 -0.001,23.688 -0.001,22.250 C-0.001,21.709 0.017,21.175 0.053,20.663 C0.091,20.134 0.166,19.561 0.276,18.960 C0.388,18.349 0.531,17.773 0.704,17.244 C0.883,16.696 1.125,16.153 1.427,15.633 C1.740,15.090 2.110,14.617 2.526,14.227 C2.964,13.816 3.499,13.485 4.117,13.245 C4.732,13.006 5.412,12.885 6.140,12.885 C6.454,12.885 6.744,13.003 7.294,13.354 C7.613,13.557 7.985,13.794 8.402,14.055 C8.744,14.270 9.214,14.472 9.796,14.657 C10.361,14.836 10.933,14.927 11.498,14.927 C12.063,14.927 12.636,14.836 13.201,14.657 C13.782,14.472 14.252,14.270 14.597,14.054 C15.023,13.786 15.396,13.551 15.703,13.354 C16.252,13.003 16.543,12.885 16.857,12.885 C17.584,12.885 18.265,13.006 18.880,13.245 C19.498,13.485 20.033,13.815 20.471,14.227 C20.887,14.617 21.257,15.090 21.570,15.633 C21.871,16.151 22.114,16.693 22.294,17.244 C22.466,17.771 22.609,18.348 22.721,18.960 C22.832,19.563 22.907,20.136 22.944,20.662 C22.980,21.172 22.999,21.706 22.999,22.249 C22.999,23.689 22.531,24.856 21.608,25.719 ZM21.025,20.794 L21.024,20.788 C20.991,20.332 20.926,19.829 20.827,19.293 C20.732,18.767 20.608,18.271 20.462,17.820 C20.323,17.395 20.134,16.973 19.898,16.566 C19.676,16.182 19.421,15.854 19.141,15.592 C18.883,15.349 18.558,15.150 18.172,15.001 C17.828,14.867 17.440,14.792 17.019,14.776 C16.963,14.807 16.877,14.857 16.753,14.936 C16.435,15.140 16.069,15.372 15.631,15.646 C15.150,15.948 14.531,16.220 13.793,16.454 C13.036,16.694 12.264,16.816 11.499,16.816 C10.732,16.816 9.961,16.694 9.204,16.454 C8.467,16.221 7.849,15.949 7.367,15.647 C6.973,15.400 6.595,15.161 6.244,14.936 C6.120,14.857 6.035,14.807 5.978,14.776 C5.557,14.792 5.169,14.867 4.825,15.001 C4.440,15.151 4.114,15.349 3.856,15.592 C3.577,15.854 3.322,16.182 3.100,16.566 C2.864,16.973 2.674,17.395 2.535,17.820 C2.390,18.268 2.267,18.764 2.169,19.293 C2.071,19.832 2.005,20.337 1.973,20.794 C1.940,21.261 1.923,21.751 1.923,22.250 C1.923,23.164 2.182,23.851 2.717,24.350 C3.265,24.862 3.997,25.111 4.958,25.111 L18.040,25.111 C19.000,25.111 19.733,24.862 20.281,24.350 L20.281,24.350 C20.815,23.851 21.075,23.164 21.075,22.250 C21.075,21.748 21.058,21.258 21.025,20.794 ZM11.328,13.174 C9.484,13.174 7.888,12.525 6.584,11.245 C5.279,9.964 4.617,8.397 4.617,6.587 C4.617,4.777 5.279,3.210 6.584,1.929 C7.888,0.649 9.484,-0.000 11.328,-0.000 C13.171,-0.000 14.767,0.649 16.072,1.929 C17.376,3.210 18.037,4.777 18.037,6.587 C18.037,8.397 17.376,9.964 16.072,11.245 C14.768,12.525 13.172,13.174 11.328,13.174 ZM14.712,3.265 C13.768,2.339 12.661,1.889 11.328,1.889 C9.994,1.889 8.888,2.339 7.944,3.265 C7.000,4.192 6.542,5.278 6.542,6.587 C6.542,7.896 7.000,8.983 7.944,9.909 C8.888,10.835 9.995,11.286 11.328,11.286 C12.661,11.286 13.768,10.835 14.712,9.909 C15.655,8.982 16.114,7.896 16.114,6.587 C16.114,5.278 15.655,4.192 14.712,3.265 Z" class="cls-1"/>
</svg>
