<svg xmlns="http://www.w3.org/2000/svg" width="512" height="353.1" viewBox="0 0 512 353.1"><g id="Layer_2" data-name="Layer 2"><g id="Capa_1" data-name="Capa 1"><path d="M512,322.83a30.27,30.27,0,0,1-30.27,30.27H30.26A30.26,30.26,0,0,1,0,322.83V30.27A30.26,30.26,0,0,1,30.26,0H481.73A30.27,30.27,0,0,1,512,30.27V322.83Z" style="fill:#293688"/><polygon points="198.66 238.32 220.51 115.46 254.63 115.46 233.48 238.32 198.66 238.32" style="fill:#fff"/><polygon points="198.66 238.32 226.65 115.46 254.63 115.46 233.48 238.32 198.66 238.32" style="fill:#fff"/><path d="M357,116.82c-6.83-2.73-17.75-5.46-31.4-5.46-34.13,0-58.7,17.07-58.7,41.64,0,18.43,17.06,28,30.72,34.13s17.74,10.24,17.74,15.7c0,8.19-10.92,12.28-20.47,12.28-13.66,0-21.16-2-32.77-6.82l-4.77-2-4.78,28c8.19,3.42,23.2,6.83,38.9,6.83,36.18,0,60.07-17.06,60.07-43,0-14.33-8.87-25.26-29.35-34.13-12.29-6.14-19.8-9.55-19.8-15.7,0-5.46,6.15-10.92,19.8-10.92,11.6,0,19.79,2,25.94,4.78l3.41,1.36L357,116.82Z" style="fill:#fff"/><path d="M357,116.82c-6.83-2.73-17.75-5.46-31.4-5.46-34.13,0-52.56,17.07-52.56,41.64,0,18.43,10.92,28,24.58,34.13s17.74,10.24,17.74,15.7c0,8.19-10.92,12.28-20.47,12.28-13.66,0-21.16-2-32.77-6.82l-4.77-2-4.78,28c8.19,3.42,23.2,6.83,38.9,6.83,36.18,0,60.07-17.06,60.07-43,0-14.33-8.87-25.26-29.35-34.13-12.29-6.14-19.8-9.55-19.8-15.7,0-5.46,6.15-10.92,19.8-10.92,11.6,0,19.79,2,25.94,4.78l3.41,1.36L357,116.82Z" style="fill:#fff"/><path d="M415.72,115.46c-8.19,0-14.33.68-17.75,8.87l-51.19,114h36.86l6.82-20.48h43.69l4.09,20.48H471L442.34,115.46ZM400,197.37c2.05-6.15,13.65-36.18,13.65-36.18s2.73-7.51,4.78-12.29l2.05,11.61s6.82,30.71,8.19,37.54H400Z" style="fill:#fff"/><path d="M423.91,115.46c-8.19,0-14.33.68-17.75,8.87l-59.38,114h36.86l6.82-20.48h43.69l4.09,20.48H471L442.34,115.46ZM400,197.37c2.73-6.83,13.65-36.18,13.65-36.18s2.73-7.51,4.78-12.29l2.05,11.61s6.82,30.71,8.19,37.54H400Z" style="fill:#fff"/><path d="M135.87,201.46l-3.41-17.74c-6.15-20.48-25.94-43-47.78-53.93L115.39,239h36.86l55.29-122.86H170.68Z" style="fill:#fff"/><path d="M135.87,201.46l-3.41-17.74c-6.15-20.48-25.94-43-47.78-53.93L115.39,239h36.86l55.29-122.86h-30Z" style="fill:#fff"/><path d="M41,115.46l6.15,1.36c43.68,10.24,73.71,36.18,85.32,66.9l-12.29-58c-2-8.19-8.19-10.24-15.7-10.24Z" style="fill:#ffbc00"/><path d="M41,115.46h0c43.69,10.24,79.86,36.86,91.47,67.57l-11.61-48.46a16.65,16.65,0,0,0-16.38-13Z" style="fill:#f7981d"/><path d="M41,115.46h0c43.69,10.24,79.86,36.86,91.47,67.57l-8.19-26.62c-2-8.19-4.78-16.38-14.34-19.79Z" style="fill:#ed7c00"/><path d="M170,197.37l-23.21-23.21L135.87,200.1,133.14,183c-6.14-20.47-25.94-43-47.78-53.92l30.72,109.21h36.85Z" style="fill:#fff"/><polygon points="233.48 238.32 204.13 208.29 198.66 238.32 233.48 238.32" style="fill:#fff"/><path d="M312,196h0c2.73,2.73,4.1,4.78,3.41,7.51,0,8.19-10.92,12.29-20.47,12.29-13.66,0-21.16-2.05-32.77-6.83l-4.77-2.05-4.78,28c8.19,3.41,23.2,6.82,38.9,6.82,21.85,0,39.59-6.14,49.83-17.06Z" style="fill:#fff"/><path d="M351.56,238.32h32.08l6.82-20.48h43.69l4.09,20.48H471L459.4,188.49,418.45,148.9l2.05,10.93s6.82,30.71,8.19,37.54H400c2.73-6.83,13.65-36.18,13.65-36.18s2.73-7.51,4.78-12.29" style="fill:#fff"/></g></g></svg>