<svg xmlns="http://www.w3.org/2000/svg" width="409.6" height="409.6" viewBox="0 0 409.6 409.6"><g id="Layer_2" data-name="Layer 2"><g id="Layer_1-2" data-name="Layer 1"><path d="M409.6,204.8c0,113.11-91.69,204.8-204.8,204.8S0,317.91,0,204.8,91.69,0,204.8,0,409.6,91.69,409.6,204.8Z" style="fill:#f0f0f0"/><path d="M60,349.62C-20,269.64-20,140,60,60,60,60,178.09,204.8,178.09,204.8Z"/><path d="M178.09,204.8l-150.92-102a203.49,203.49,0,0,0-12.36,25.41L91.22,204.8,14.81,281.39a205.26,205.26,0,0,0,12.35,25.39Z" style="fill:#ffda44"/><path d="M407.87,178.09H178.08L60,60a205.47,205.47,0,0,0-32.81,42.82L129,204.8l-101.79,102A205.5,205.5,0,0,0,60,349.61l118.1-118.1H407.87a207.06,207.06,0,0,0,0-53.42Z" style="fill:#6da544"/><path d="M80.11,367.26A203.89,203.89,0,0,0,204.8,409.6c94.62,0,174.24-64.18,197.75-151.37H189.15Z" style="fill:#0052b4"/><path d="M402.55,151.38C379,64.18,299.42,0,204.8,0A203.89,203.89,0,0,0,80.11,42.34l109,109Z" style="fill:#d80027"/></g></g></svg>